<svg width="1440" height="1315" viewBox="0 0 1440 1315" fill="none" xmlns="http://www.w3.org/2000/svg">
<g id="mainSite__emoji--">
<g id="a">
<g id="dot07">
<g id="Group">
<path id="Vector" d="M1193.87 456.067C1193.84 455.978 1193.81 455.89 1193.79 455.816C1193.52 455.048 1193.28 454.118 1193.17 453.039C1193.11 452.508 1193.08 451.814 1193.17 450.957C1193.19 450.75 1193.22 450.514 1193.26 450.292C1193.26 450.233 1193.28 450.174 1193.29 450.13V450.071C1193.29 450.071 1193.32 449.953 1193.34 449.879C1193.4 449.554 1193.47 449.258 1193.55 448.963C1193.58 448.874 1193.61 448.771 1193.62 448.682V448.653C1193.62 448.653 1193.68 448.52 1193.7 448.461C1193.87 447.929 1194.07 447.442 1194.29 447.014C1194.34 446.925 1194.38 446.851 1194.41 446.763C1194.43 446.733 1194.44 446.689 1194.47 446.659C1194.49 446.63 1194.5 446.6 1194.53 446.556L1194.56 446.511L1194.59 446.467C1194.59 446.467 1194.62 446.408 1194.64 446.379C1194.95 445.847 1195.22 445.448 1195.46 445.138V445.108L1195.53 445.02C1195.63 444.887 1195.75 444.754 1195.87 444.606C1195.93 444.532 1196.01 444.444 1196.07 444.385C1196.23 444.207 1196.45 443.971 1196.63 443.794C1196.72 443.705 1196.8 443.631 1196.89 443.558C1196.89 443.558 1196.99 443.454 1197.04 443.41C1197.1 443.351 1197.17 443.292 1197.23 443.248C1197.42 443.085 1197.63 442.923 1197.86 442.76C1198.04 442.627 1198.21 442.509 1198.41 442.376C1199.36 441.756 1200.41 441.283 1201.51 440.973C1202.08 440.796 1202.76 440.663 1203.51 440.589H1203.6C1203.81 440.56 1204 440.545 1204.22 440.53C1204.37 440.53 1204.54 440.53 1204.69 440.53H1204.75C1204.98 440.53 1205.09 440.53 1205.27 440.53H1205.33C1205.52 440.53 1205.66 440.545 1205.83 440.574C1205.95 440.574 1206.06 440.604 1206.18 440.604H1206.19C1206.34 440.619 1206.48 440.648 1206.62 440.663H1206.64C1206.77 440.692 1206.89 440.707 1207.03 440.737C1207.12 440.752 1207.21 440.781 1207.3 440.796C1207.33 440.796 1207.36 440.796 1207.4 440.811C1208.28 441.017 1208.95 441.268 1209.37 441.46C1209.41 441.475 1209.44 441.49 1209.46 441.505C1209.65 441.593 1209.83 441.667 1209.96 441.741L1210.11 441.815H1210.14C1210.38 441.948 1210.67 442.11 1211.02 442.332C1212.72 443.395 1214.07 444.843 1214.99 446.585C1215.02 446.63 1215.05 446.689 1215.06 446.733C1215.2 447.028 1215.33 447.309 1215.44 447.545V447.59C1215.54 447.782 1215.62 448.003 1215.69 448.21L1215.74 448.313L1215.77 448.431C1215.8 448.505 1215.81 448.579 1215.84 448.653C1215.9 448.83 1215.94 449.007 1215.99 449.17C1216.02 449.318 1216.06 449.45 1216.09 449.598V449.642C1216.09 449.642 1216.12 449.746 1216.14 449.79C1216.15 449.864 1216.17 449.938 1216.18 450.012V450.041C1216.54 451.961 1216.38 453.896 1215.74 455.727C1215.72 455.772 1215.71 455.816 1215.69 455.875V455.934C1215.69 455.934 1215.62 456.067 1215.59 456.126C1215.02 457.588 1214.2 458.844 1213.23 459.848C1211.59 461.62 1209.62 462.698 1207.64 463.127H1207.58C1207.49 463.171 1207.39 463.186 1207.3 463.215C1207.27 463.215 1207.22 463.23 1207.18 463.245C1207.12 463.245 1207.07 463.259 1207.03 463.274C1207.03 463.274 1206.91 463.304 1206.85 463.304C1206.62 463.348 1206.48 463.363 1206.46 463.363C1206.27 463.392 1206.15 463.407 1205.92 463.422H1205.79C1205.7 463.437 1205.63 463.451 1205.52 463.451H1205.31C1205.15 463.481 1204.95 463.481 1204.79 463.481C1204.79 463.481 1204.76 463.481 1204.75 463.481H1204.64C1204.46 463.481 1204.37 463.481 1204.21 463.481H1204.15C1204.04 463.481 1203.93 463.466 1203.82 463.451C1203.78 463.451 1203.73 463.451 1203.69 463.451C1203.64 463.451 1203.58 463.451 1203.54 463.451C1203.48 463.451 1203.42 463.452 1203.36 463.437C1203.14 463.407 1202.91 463.378 1202.7 463.333H1202.69C1201.52 463.127 1200.63 462.787 1200.12 462.565L1200.03 462.521C1199.9 462.462 1199.76 462.403 1199.65 462.344L1199.53 462.285C1199.38 462.211 1199.12 462.078 1198.86 461.916C1198.33 461.62 1197.84 461.28 1197.41 460.911C1197.33 460.852 1197.27 460.793 1197.21 460.749C1197.17 460.704 1197.11 460.66 1197.07 460.616C1196.1 459.774 1195.43 458.917 1194.96 458.194C1194.92 458.135 1194.89 458.076 1194.86 458.017V457.987C1194.43 457.322 1194.13 456.687 1193.89 456.082V456.052L1193.87 456.067Z" fill="url(#paint0_radial_241_14)"/>
</g>
</g>
</g>
</g>
<defs>
<radialGradient id="paint0_radial_241_14" cx="0" cy="0" r="1" gradientUnits="userSpaceOnUse" gradientTransform="translate(1205.36 452.847) scale(13.2272 13.1001)">
<stop offset="0.54" stop-color="#CE5FB1"/>
<stop offset="0.61" stop-color="#CF63B3"/>
<stop offset="0.68" stop-color="#D36FB9"/>
<stop offset="0.76" stop-color="#D984C3"/>
<stop offset="0.83" stop-color="#E2A1D1"/>
<stop offset="0.91" stop-color="#EDC7E3"/>
<stop offset="0.98" stop-color="#FBF4FA"/>
<stop offset="1" stop-color="white"/>
</radialGradient>
</defs>
</svg>
