<svg xmlns="http://www.w3.org/2000/svg" width="1440" height="1315" fill="none"><path fill="url(#a)" d="m1099.6 689 .2-.2c.4-.4 2.6-2.8 5.5-6.6l.8-1 1.2-1.5a116.1 116.1 0 0 0 21.4-88.3v-.4l-.1-.3-.3-1.2c-.2-1.6-.5-3.2-1-5v-.2l-.6-2.5-.4-1.2-.2-1-.3-.9a115.5 115.5 0 0 0-6.6-17.7l-.4-.8-.4-.9-.2-.3-.6-1.3-.1-.2-.1-.2-.5-1-.7-1.2-.5-1-.4-.6v-.1l-.2-.3-.1-.3-.7-1.1-.5-1-.6-.8a66 66 0 0 0-1-1.6l-.5-.9-.7-1v-.1l-.6-.8-.3-.4-.3-.6h-.1l-.1-.3-.2-.3-.6-.7-.3-.6a44 44 0 0 0-.7-.8l-.5-.8-.3-.4-.5-.7-.5-.6-.8-1-.8-1-.2-.3h-.1l-.7-1-1-1.2-.8-.8-.8-1-1-1a75 75 0 0 0-.5-.6l-.5-.5-.3-.4-.5-.5-5-5-1.1-1a62 62 0 0 0-2-1.6l-1.6-1.5-.6-.5-2.5-2-1.2-.9h.1c-.2 0-.3-.1-.3-.2l-1.8-1.3-1.4-1-2.5-1.7a115 115 0 0 0-42-17.5h-.1l-2.9-.6h-.3l-5-.8h-.5l-.1-.1h-.5l-1.4-.2-2.8-.3-1.5-.1-3-.2h-1c-5-.3-8.3-.1-8.5-.1a100.6 100.6 0 0 0-8.9.6h-.5c-2.6.3-5.5.7-8.8 1.3h-.2l-5 1.2-4.2 1-4.6 1.4-4.3 1.4a162.8 162.8 0 0 0-17.6 8h-.2c-3.6 2-6.8 4-9.2 5.7-8.8 6.5-9.6 7-14.8 12-6.6 6.2-10.5 11.4-12.4 13.9a113 113 0 0 0-10 15.5c-4 7.4-5.7 12.2-7.4 16.9a116.1 116.1 0 0 0-4.4 16.9l-.3 1c-.7 3.3-1.2 7.8-1.4 11l-.3 8.3a106.8 106.8 0 0 0 2.1 23.2 126.7 126.7 0 0 0 1.4 5.9l.5 2 .1.3.8 2.8.2.7a109.6 109.6 0 0 0 5.4 14.1l.5 1.2 1 2 .6 1.3.3.5.4.8.7 1.2.6 1.2c2.6 4.7 5.3 8.8 8 12.6l.3.3.8 1 .1.2.7.9 1.6 2c.7 1 1.8 2.1 2.5 3l2.4 2.7 1.3 1.3 3.8 3.9 4.1 3.7c2.7 2.3 6.4 5.2 9.3 7.3a91 91 0 0 0 9.7 6l5.6 3 2 1 5 2.3.8.3a77.8 77.8 0 0 0 9.6 3.5c2.6.8 5.9 1.8 8.5 2.4h.2l7 1.4 1.6.3 2.7.3 2.1.3 4.1.5c1.6.2 4.5.4 9.2.4h.7c2.4 0 5.2-.1 8.6-.4h.2c3.4-.2 9.2-.7 16.5-2.4h.2a121.6 121.6 0 0 0 10.8-3l1-.3a110.5 110.5 0 0 0 11.7-4.6 120.6 120.6 0 0 0 31.7-21.1l.3-.2.1-.2c2.1-2 4.2-4 6.2-6.2Z"/><path fill="url(#b)" d="m1121.5 655.4 1-2.2-1 2.2Z"/><path fill="url(#c)" d="M915.7 541Z"/><path fill="#FF3B62" d="M1053.8 570.2c6.6 13.6-2.7 30-11 44.7l-11.5-1.4c-43.7-5.3-39.4-30.7-30-38.2.7-.6 1.9-1.2 2.7-1.7 6.2-2.6 10.8-2.3 17.1 1.2.4-18 18.7-19.8 28.4-10.6 1.6 1.6 3.3 4 4.3 6M1094.3 538c11.4 13.8 9.3 30 8.1 38.6l-7.8-1.7c-39.3-7.3-39.3-30.4-33.1-35.3 3-2.4 7.5-2.2 13.5.6-2.8-5.7-3.1-8.8-1.2-11.4 7-4.3 17.2 5.2 20.5 9.3"/><path fill="#412121" d="M1066.8 681.5h1.6l-.5-1.5c-2.1-7.6-5-16.1-8.7-25.5-15 4.4-20.8-4.2-29.6-17.3-6.4 2-10 3.4-10.7 3.8-8.5 8 7.2 21.3 13.1 26.2 4.7 4 17.5 13.4 34.8 14.3m57-96.6c-2.8-10.4-5.1-7.8-5.1-7.8l-2.2 4.4c5.6 17.3 5.7 28.1.3 36a107.2 107.2 0 0 1 0 33 90.7 90.7 0 0 0 7-65.6"/><path fill="#FF3B62" d="M1117 648.4c-4.2 28.5-33.3 55.8-46.6 37-1-1.5-2-3.4-2.5-5.4-2.1-7.6-5-16.1-8.7-25.5 16-6.1 45.8-22.8 57.6-37 1.6 10.7 1.7 21 .3 31"/><path fill="#fff" d="M1116.5 581.5c8 24.3 3.5 33-2.5 39-.4.4-51 44.1-70.4 32.9-1.3-.7-5.1-3-14-16.2 24.8-8.5 69-27 87-55.7"/><defs><linearGradient id="b" x1="1121.6" x2="1122.3" y1="654.1" y2="654.7" gradientUnits="userSpaceOnUse"><stop stop-color="#19B79C"/><stop offset=".4" stop-color="#1DBB9D"/><stop offset=".8" stop-color="#29C7A2"/><stop offset="1" stop-color="#31CFA6"/></linearGradient><linearGradient id="c" x1="916.2" x2="916.4" y1="540.1" y2="540.4" gradientUnits="userSpaceOnUse"><stop stop-color="#19B79C"/><stop offset=".4" stop-color="#1DBB9D"/><stop offset=".8" stop-color="#29C7A2"/><stop offset="1" stop-color="#31CFA6"/></linearGradient><radialGradient id="a" cx="0" cy="0" r="1" gradientTransform="matrix(95.707 95.3898 -95.3912 95.7084 1003.4 628.2)" gradientUnits="userSpaceOnUse"><stop stop-color="#F79F40"/><stop offset=".2" stop-color="#F7A442"/><stop offset=".4" stop-color="#F8B449"/><stop offset=".6" stop-color="#F9CE55"/><stop offset=".8" stop-color="#FBE660"/><stop offset=".9" stop-color="#FBF36F"/><stop offset=".9" stop-color="#FBF672"/><stop offset=".9" stop-color="#FBF676"/><stop offset="1" stop-color="#FBF782"/><stop offset="1" stop-color="#FBF897"/><stop offset="1" stop-color="#FCFAB4"/><stop offset="1" stop-color="#FDFBC2"/></radialGradient></defs></svg>