<svg width="1440" height="1315" viewBox="0 0 1440 1315" fill="none" xmlns="http://www.w3.org/2000/svg">
<g id="mainSite__emoji--">
<g id="a">
<g id="dot09">
<path id="Vector" d="M866.965 756.811L867.025 756.752C867.129 756.649 867.725 756.014 868.516 754.995C868.59 754.906 868.65 754.817 868.725 754.729C868.829 754.596 868.918 754.463 869.023 754.33C871.528 750.963 873.288 747.211 874.272 743.268V743.238C874.391 742.81 874.481 742.381 874.57 741.938C874.988 739.856 875.211 737.744 875.211 735.617C875.211 734.612 875.152 733.446 875.047 732.5C874.988 731.85 874.883 731.201 874.779 730.551V730.447L874.749 730.359C874.734 730.255 874.719 730.137 874.689 730.034C874.615 729.62 874.525 729.177 874.421 728.719V728.66C874.361 728.439 874.302 728.202 874.242 727.966C874.212 727.863 874.182 727.744 874.153 727.641C874.123 727.552 874.108 727.464 874.078 727.36C874.063 727.286 874.033 727.213 874.018 727.139C873.631 725.78 873.153 724.436 872.572 723.121C872.423 722.782 872.303 722.516 872.244 722.368L872.139 722.132L872.035 721.91V721.881L871.99 721.836C871.931 721.733 871.856 721.585 871.811 721.467L871.782 721.423L871.752 721.379L871.618 721.127C871.573 721.024 871.498 720.906 871.439 720.803L871.289 720.522C871.289 720.522 871.23 720.419 871.2 720.359L871.17 720.315L871.14 720.256L871.096 720.167L870.917 719.857C870.872 719.783 870.812 719.68 870.768 719.606C870.723 719.532 870.678 719.444 870.618 719.37C870.618 719.37 870.559 719.252 870.529 719.207C870.469 719.119 870.41 719.001 870.35 718.927L870.216 718.72C870.156 718.631 870.096 718.543 870.037 718.454L870.007 718.41C870.007 718.41 869.917 718.277 869.873 718.203L869.798 718.085L869.694 717.937V717.908L869.649 717.863L869.589 717.79C869.589 717.79 869.485 717.642 869.44 717.583L869.351 717.45C869.291 717.376 869.232 717.287 869.187 717.213L869.038 717.007C869.038 717.007 868.978 716.933 868.948 716.889C868.903 716.829 868.859 716.77 868.814 716.711L868.68 716.534C868.605 716.445 868.531 716.342 868.456 716.253L868.247 716.002L868.188 715.914C868.128 715.825 868.068 715.751 867.994 715.663C867.904 715.544 867.8 715.441 867.71 715.323L867.517 715.087C867.442 714.998 867.368 714.924 867.293 714.836C867.218 714.747 867.129 714.658 867.054 714.57C867.01 714.511 866.95 714.466 866.905 714.407L866.771 714.259C866.771 714.259 866.697 714.186 866.667 714.156L866.547 714.038C866.115 713.58 865.653 713.137 865.19 712.694C865.086 712.59 864.982 712.502 864.892 712.413C864.788 712.325 864.683 712.221 864.579 712.133C864.519 712.074 864.445 712.014 864.385 711.97C864.221 711.837 864.072 711.704 863.923 711.571C863.863 711.527 863.818 711.483 863.759 711.438C863.535 711.246 863.311 711.069 863.103 710.907C862.998 710.833 862.894 710.744 862.789 710.67L862.73 710.626C862.566 710.493 862.402 710.375 862.238 710.272C862.118 710.183 861.984 710.094 861.865 710.006C861.582 709.799 861.358 709.651 861.194 709.548C860.418 709.031 859.613 708.544 858.793 708.1C858.301 707.82 857.868 707.598 857.302 707.332C854.961 706.21 852.47 705.368 849.876 704.836C849.622 704.777 849.354 704.733 849.1 704.689H848.996C848.548 704.585 848.086 704.526 847.639 704.467H847.49L847.46 704.438H847.37C847.251 704.408 847.117 704.393 846.997 704.378C846.744 704.349 846.49 704.319 846.252 704.305C846.118 704.305 845.983 704.275 845.834 704.275C845.551 704.26 845.283 704.231 845.029 704.231H844.954C844.954 704.231 844.835 704.231 844.776 704.231C843.433 704.172 842.539 704.216 842.479 704.231C842.032 704.231 841.569 704.275 841.107 704.305C840.779 704.334 840.451 704.349 840.093 704.393H839.959C839.258 704.482 838.483 704.585 837.573 704.762H837.498C837.096 704.851 836.648 704.954 836.186 705.073C835.783 705.161 835.396 705.265 835.053 705.339L833.8 705.737C833.398 705.855 832.995 705.988 832.637 706.107C831.951 706.328 831.101 706.683 830.221 707.096H830.206C829.446 707.451 828.655 707.849 827.925 708.263H827.895L827.865 708.292C826.911 708.824 826.031 709.356 825.405 709.814C823.019 711.557 822.825 711.704 821.408 713.034C819.634 714.717 818.575 716.106 818.053 716.77C816.577 718.705 815.667 720.389 815.369 720.95C814.31 722.929 813.833 724.229 813.385 725.485C813.102 726.267 812.923 726.829 812.759 727.508C812.535 728.32 812.356 729.162 812.192 730.034L812.133 730.344C811.954 731.215 811.79 732.412 811.76 733.298C811.73 733.962 811.67 734.849 811.67 735.513C811.67 736.178 811.67 737.049 811.73 737.714C811.775 738.453 811.805 738.763 811.879 739.413C811.969 740.225 812.088 741.008 812.237 741.776C812.282 742.042 812.341 742.278 812.401 742.529C812.461 742.824 812.535 743.105 812.595 743.356C812.625 743.489 812.684 743.681 812.744 743.888L812.774 743.976C812.834 744.198 812.908 744.449 812.998 744.73C813.013 744.789 813.027 744.848 813.057 744.907C813.311 745.734 813.654 746.738 814.101 747.802C814.205 748.038 814.325 748.348 814.504 748.718C814.549 748.821 814.593 748.924 814.638 749.028L814.891 749.559C814.951 749.663 815.026 749.811 815.07 749.929L815.13 750.062V750.091L815.249 750.283C815.294 750.387 815.369 750.505 815.428 750.608L815.607 750.933V750.963C816.308 752.188 817.024 753.311 817.784 754.315L817.859 754.419C817.919 754.507 817.993 754.596 818.068 754.699V754.729C818.157 754.817 818.217 754.906 818.277 754.98L818.709 755.527C818.903 755.778 819.186 756.088 819.38 756.324C819.574 756.546 819.812 756.811 820.036 757.048C820.155 757.181 820.26 757.299 820.364 757.417C820.662 757.727 821.08 758.141 821.393 758.451C821.706 758.761 822.169 759.16 822.497 759.455C823.227 760.061 824.226 760.858 825.002 761.42C825.613 761.863 826.434 762.409 827.09 762.778C827.254 762.867 827.433 762.97 827.612 763.059C828.133 763.34 828.67 763.635 829.118 763.871L829.669 764.122C830.102 764.329 830.549 764.536 830.997 764.728L831.22 764.831C831.742 765.068 832.398 765.304 833.01 765.511C833.263 765.599 833.532 765.688 833.785 765.762C834.486 765.984 835.381 766.249 836.067 766.397H836.141C836.768 766.56 837.394 766.678 838.035 766.796C838.169 766.825 838.319 766.855 838.438 766.87L839.169 766.958C839.362 766.988 839.556 767.003 839.75 767.032L840.854 767.165C841.271 767.209 842.061 767.283 843.314 767.268H843.508C844.164 767.268 844.925 767.239 845.834 767.18H845.894C846.789 767.121 848.354 766.973 850.323 766.53H850.368C850.815 766.412 851.292 766.294 851.784 766.161C851.993 766.102 852.202 766.043 852.425 765.984C852.724 765.895 853.022 765.806 853.276 765.732L853.529 765.644C853.976 765.496 854.424 765.334 854.886 765.156C855.527 764.92 856.154 764.669 856.675 764.403C857.57 763.99 858.495 763.532 859.434 762.985C860.001 762.66 860.568 762.321 861.06 761.981C861.611 761.626 862.148 761.242 862.7 760.829C862.819 760.74 862.939 760.652 863.058 760.548C863.789 759.987 864.504 759.367 865.22 758.702L865.295 758.628L865.339 758.584C865.891 758.067 866.443 757.506 866.995 756.915L866.965 756.811Z" fill="url(#paint0_radial_241_14)"/>
<g id="Group">
<g id="Group_2">
<path id="Vector_2" d="M872.871 747.772C872.961 747.58 873.05 747.388 873.14 747.182C873.05 747.374 872.961 747.566 872.871 747.772Z" fill="url(#paint1_linear_241_14)"/>
<path id="Vector_3" d="M817.486 716.962C817.591 716.815 817.695 716.652 817.8 716.519C817.695 716.667 817.591 716.815 817.486 716.962Z" fill="url(#paint2_linear_241_14)"/>
</g>
</g>
</g>
</g>
</g>
<defs>
<radialGradient id="paint0_radial_241_14" cx="0" cy="0" r="1" gradientUnits="userSpaceOnUse" gradientTransform="translate(841.078 740.44) rotate(44.9052) scale(36.3747 36.3752)">
<stop stop-color="#F79F40"/>
<stop offset="0.16" stop-color="#F7A442"/>
<stop offset="0.37" stop-color="#F8B449"/>
<stop offset="0.6" stop-color="#F9CE55"/>
<stop offset="0.77" stop-color="#FBE660"/>
<stop offset="0.91" stop-color="#FBF36F"/>
<stop offset="0.93" stop-color="#FBF672"/>
<stop offset="0.95" stop-color="#FBF676"/>
<stop offset="0.96" stop-color="#FBF782"/>
<stop offset="0.98" stop-color="#FBF897"/>
<stop offset="0.99" stop-color="#FCFAB4"/>
<stop offset="1" stop-color="#FDFBC2"/>
</radialGradient>
<linearGradient id="paint1_linear_241_14" x1="872.902" y1="747.514" x2="873.068" y2="747.684" gradientUnits="userSpaceOnUse">
<stop stop-color="#19B79C"/>
<stop offset="0.4" stop-color="#1DBB9D"/>
<stop offset="0.82" stop-color="#29C7A2"/>
<stop offset="1" stop-color="#31CFA6"/>
</linearGradient>
<linearGradient id="paint2_linear_241_14" x1="817.584" y1="716.834" x2="817.657" y2="716.908" gradientUnits="userSpaceOnUse">
<stop stop-color="#19B79C"/>
<stop offset="0.4" stop-color="#1DBB9D"/>
<stop offset="0.82" stop-color="#29C7A2"/>
<stop offset="1" stop-color="#31CFA6"/>
</linearGradient>
</defs>
</svg>
