<svg width="1440" height="1315" viewBox="0 0 1440 1315" fill="none" xmlns="http://www.w3.org/2000/svg">
<g id="mainSite__emoji--">
<g id="a">
<g id="dot06">
<g id="Group">
<path id="Vector" d="M1039.44 434.637L1039.5 434.548C1039.61 434.386 1040.23 433.426 1041.05 431.919C1041.13 431.786 1041.2 431.653 1041.26 431.52C1041.36 431.328 1041.47 431.136 1041.57 430.929C1044.08 425.996 1045.53 420.709 1045.93 415.347V415.303C1045.97 414.727 1046 414.136 1046.02 413.545C1046.11 410.739 1045.91 407.933 1045.42 405.171C1045.21 403.871 1044.87 402.365 1044.51 401.139C1044.27 400.312 1044.02 399.484 1043.72 398.657C1043.72 398.613 1043.69 398.569 1043.68 398.539L1043.63 398.436C1043.59 398.303 1043.53 398.155 1043.48 398.022C1043.29 397.491 1043.08 396.944 1042.83 396.353L1042.8 396.279C1042.68 395.999 1042.56 395.703 1042.41 395.408C1042.35 395.275 1042.29 395.142 1042.23 395.009C1042.17 394.891 1042.13 394.788 1042.07 394.669C1042.02 394.581 1041.98 394.492 1041.93 394.404C1041.13 392.72 1040.19 391.08 1039.14 389.485C1038.87 389.072 1038.67 388.762 1038.53 388.584L1038.34 388.304L1038.14 388.038L1038.11 387.993L1038.07 387.934C1037.98 387.801 1037.85 387.624 1037.74 387.491L1037.7 387.432L1037.65 387.373L1037.43 387.078C1037.34 386.96 1037.22 386.812 1037.13 386.694L1036.86 386.369C1036.86 386.369 1036.76 386.251 1036.71 386.192L1036.67 386.132L1036.61 386.073L1036.52 385.97L1036.22 385.616C1036.15 385.527 1036.06 385.409 1035.97 385.32C1035.89 385.232 1035.8 385.128 1035.73 385.04L1035.58 384.848C1035.49 384.744 1035.37 384.611 1035.28 384.508L1035.07 384.272C1034.98 384.168 1034.88 384.065 1034.79 383.961L1034.74 383.902C1034.67 383.828 1034.59 383.74 1034.52 383.666L1034.39 383.533L1034.22 383.371L1034.19 383.341L1034.13 383.282L1034.04 383.193C1033.97 383.105 1033.88 383.031 1033.8 382.942C1033.74 382.883 1033.7 382.839 1033.66 382.78C1033.57 382.691 1033.48 382.603 1033.39 382.514L1033.15 382.292C1033.15 382.292 1033.06 382.204 1033 382.159C1032.92 382.086 1032.85 382.026 1032.79 381.953L1032.58 381.761C1032.46 381.657 1032.34 381.554 1032.24 381.45L1031.91 381.17C1031.91 381.17 1031.84 381.111 1031.81 381.081H1031.78C1031.69 380.978 1031.58 380.889 1031.48 380.801C1031.33 380.668 1031.18 380.549 1031.03 380.417C1030.93 380.328 1030.82 380.239 1030.72 380.151C1030.6 380.047 1030.48 379.959 1030.36 379.87C1030.24 379.767 1030.12 379.678 1029.99 379.575C1029.91 379.516 1029.84 379.457 1029.76 379.397L1029.55 379.235C1029.55 379.235 1029.45 379.161 1029.39 379.117C1029.33 379.072 1029.27 379.028 1029.21 378.984C1028.54 378.482 1027.84 377.994 1027.14 377.536C1026.97 377.433 1026.83 377.33 1026.69 377.241C1026.53 377.138 1026.38 377.034 1026.21 376.946C1026.11 376.887 1026.02 376.827 1025.93 376.768C1025.69 376.621 1025.47 376.488 1025.23 376.355C1025.16 376.311 1025.07 376.266 1024.99 376.207C1024.65 376.015 1024.32 375.838 1024.01 375.661C1023.86 375.572 1023.69 375.498 1023.54 375.424C1023.54 375.424 1023.49 375.395 1023.46 375.38C1023.2 375.247 1022.96 375.129 1022.74 375.026C1022.56 374.937 1022.38 374.848 1022.19 374.76C1021.77 374.568 1021.44 374.405 1021.22 374.302C1020.09 373.8 1018.94 373.342 1017.76 372.943C1017.06 372.692 1016.43 372.5 1015.64 372.278C1012.33 371.333 1008.9 370.787 1005.41 370.668C1005.07 370.668 1004.71 370.654 1004.37 370.639C1004.32 370.639 1004.28 370.639 1004.23 370.639C1003.64 370.639 1003.03 370.639 1002.41 370.668C1002.37 370.668 1002.32 370.668 1002.27 370.668H1002.04C1001.88 370.683 1001.71 370.698 1001.53 370.698C1001.19 370.713 1000.86 370.742 1000.54 370.772C1000.36 370.772 1000.18 370.801 999.983 370.816C999.611 370.846 999.253 370.89 998.925 370.934H998.835C998.761 370.949 998.671 370.964 998.597 370.979C996.822 371.2 995.674 371.451 995.599 371.466C995.018 371.584 994.421 371.717 993.84 371.865C993.422 371.968 992.99 372.072 992.527 372.205L992.438 372.234L992.363 372.264C991.454 372.515 990.469 372.825 989.336 373.253H989.291L989.247 373.283C988.725 373.475 988.173 373.711 987.606 373.947C987.114 374.154 986.622 374.376 986.205 374.553L984.669 375.351C984.162 375.602 983.684 375.853 983.237 376.089C982.387 376.532 981.373 377.182 980.299 377.906H980.284C979.375 378.541 978.435 379.235 977.57 379.929L977.541 379.959L977.511 379.988C976.377 380.889 975.363 381.775 974.648 382.514C971.934 385.32 971.71 385.542 970.174 387.595C968.25 390.179 967.177 392.232 966.655 393.207C965.163 396.043 964.358 398.451 964.105 399.248C963.165 402.054 962.852 403.856 962.539 405.599C962.345 406.677 962.241 407.445 962.166 408.361C962.062 409.469 962.017 410.621 962.002 411.773V412.187C961.942 413.368 962.002 414.948 962.166 416.13C962.271 417.001 962.39 418.168 962.539 419.025C962.688 419.882 962.897 421.019 963.106 421.876C963.329 422.821 963.434 423.22 963.687 424.047C963.985 425.081 964.328 426.085 964.701 427.06C964.821 427.385 964.94 427.695 965.074 428.005C965.223 428.374 965.372 428.729 965.521 429.039C965.596 429.201 965.7 429.438 965.835 429.689L965.894 429.807C966.028 430.073 966.177 430.383 966.342 430.737C966.386 430.811 966.416 430.885 966.461 430.959C966.983 431.978 967.654 433.219 968.474 434.489C968.653 434.77 968.891 435.139 969.205 435.597C969.294 435.73 969.369 435.848 969.458 435.966L969.906 436.601C969.995 436.734 970.129 436.911 970.234 437.044L970.353 437.192L970.383 437.221L970.562 437.458C970.651 437.576 970.77 437.724 970.86 437.842L971.158 438.211L971.188 438.241C972.351 439.703 973.544 440.988 974.752 442.14L974.871 442.243C974.976 442.347 975.095 442.45 975.214 442.568L975.244 442.598C975.349 442.701 975.453 442.79 975.542 442.878L976.228 443.499C976.541 443.779 976.974 444.134 977.287 444.4C977.585 444.651 977.958 444.931 978.301 445.212H978.316C978.495 445.36 978.674 445.493 978.823 445.611C979.285 445.95 979.927 446.394 980.389 446.718C980.866 447.058 981.552 447.457 982.044 447.782C983.133 448.417 984.609 449.229 985.742 449.776C986.622 450.204 987.83 450.751 988.77 451.076C989.008 451.164 989.247 451.238 989.5 451.327C990.231 451.578 991.006 451.844 991.648 452.065L992.438 452.272C993.064 452.449 993.676 452.612 994.302 452.759L994.615 452.848C995.346 453.04 996.27 453.202 997.105 453.335C997.463 453.394 997.821 453.454 998.179 453.498C999.148 453.646 1000.36 453.793 1001.3 453.808H1001.4C1002.25 453.867 1003.1 453.882 1003.97 453.882C1004.14 453.882 1004.34 453.882 1004.5 453.882L1005.47 453.838C1005.72 453.838 1005.99 453.808 1006.25 453.793L1007.71 453.719C1008.27 453.69 1009.3 453.601 1010.94 453.321H1011.02L1011.18 453.276C1012.03 453.129 1013.02 452.922 1014.19 452.656C1014.22 452.656 1014.25 452.656 1014.27 452.641C1015.42 452.375 1017.43 451.829 1019.91 450.81L1019.97 450.78C1020.53 450.544 1021.13 450.293 1021.74 450.012C1021.99 449.894 1022.26 449.761 1022.53 449.628C1022.9 449.451 1023.26 449.274 1023.57 449.111C1023.68 449.052 1023.78 448.993 1023.89 448.934C1024.44 448.639 1024.99 448.328 1025.56 448.003C1026.33 447.56 1027.11 447.073 1027.72 446.63C1028.81 445.891 1029.9 445.079 1030.99 444.178C1031.66 443.632 1032.31 443.07 1032.88 442.509C1033.51 441.918 1034.13 441.298 1034.76 440.648C1034.91 440.5 1035.04 440.353 1035.18 440.205C1036 439.304 1036.79 438.359 1037.58 437.325L1037.67 437.221L1037.71 437.148C1038.32 436.335 1038.9 435.493 1039.49 434.607L1039.44 434.637Z" fill="url(#paint0_radial_241_14)"/>
</g>
</g>
</g>
</g>
<defs>
<radialGradient id="paint0_radial_241_14" cx="0" cy="0" r="1" gradientUnits="userSpaceOnUse" gradientTransform="translate(1005.2 416.867) rotate(35.2007) scale(46.0946 45.9485)">
<stop offset="0.7" stop-color="#DC3BEE"/>
<stop offset="0.74" stop-color="#DC3FEE"/>
<stop offset="0.78" stop-color="#DE4BEF"/>
<stop offset="0.83" stop-color="#E260F1"/>
<stop offset="0.87" stop-color="#E77DF3"/>
<stop offset="0.92" stop-color="#EEA3F7"/>
<stop offset="0.96" stop-color="#F6D0FB"/>
<stop offset="1" stop-color="white"/>
</radialGradient>
</defs>
</svg>
