<svg width="1440" height="1315" viewBox="0 0 1440 1315" fill="none" xmlns="http://www.w3.org/2000/svg">
<g id="mainSite__emoji--" clip-path="url(#clip0_241_14)">
<g id="a">
<g id="Group">
<g id="Group_2">
<g id="Group_3">
<path id="Vector" d="M1370.38 780.548C1358.5 713.798 1314.71 650.354 1256.72 604.438C1239.4 590.729 1220.88 578.404 1201.35 567.43C1155.37 541.532 1104.01 523.17 1051.11 510.645C1006.54 500.089 960.631 493.583 915.097 491.17C872.845 488.909 830.785 489.972 789.212 489.653C732.153 489.284 675.982 486.205 622.39 468.75C594.292 459.611 568.067 446.721 543.72 431.09C494.887 399.658 454.02 357.693 416.986 314.844C404.855 300.806 392.902 286.571 380.88 272.392C337.967 221.807 293.831 171.535 236.634 134.684C228.685 129.558 220.433 124.741 211.909 120.264C141.848 83.6244 52.377 70.6933 -15.6314 106.662L1.91205 39.1632C71.5095 -12.1916 178.352 -3.911 258.733 34.6984C339.114 73.3077 400.438 136.405 464.682 194.268C528.943 252.133 602.252 308.014 691.372 324.92C789.095 343.456 888.821 312.237 988.455 310.296C1087.47 308.362 1187.29 336.532 1267.53 389.024C1347.77 441.516 1407.93 518.018 1435.72 602.878L1370.36 780.547L1370.38 780.548Z" fill="#5238DF"/>
</g>
<g id="Group_4">
<g id="Group_5" style="mix-blend-mode:overlay" opacity="0.8">
<g id="Group_6">
<path id="Vector_2" d="M1370 780.574C1358.16 713.764 1314.42 650.281 1256.46 604.35C1239.16 590.637 1220.64 578.309 1201.13 567.335C1155.18 541.437 1103.84 523.085 1050.96 510.576C1006.41 500.034 960.511 493.547 914.989 491.157C872.748 488.917 830.697 490.005 789.135 489.709C732.088 489.371 675.933 486.32 622.364 468.877C594.277 459.744 568.067 446.856 543.735 431.223C494.931 399.786 454.099 357.802 417.099 314.93C404.978 300.885 393.037 286.642 381.026 272.455C338.153 221.843 294.057 171.545 236.894 134.689C228.951 129.562 220.704 124.745 212.184 120.268C142.161 83.6302 52.7185 70.7357 -15.295 106.779L2.28396 39.2018C71.8951 -12.2432 178.707 -4.01349 259.047 34.5902C339.387 73.1939 400.659 136.32 464.854 194.206C529.066 252.094 602.325 307.99 691.414 324.864C789.103 343.364 888.824 312.059 988.435 310.061C1087.43 308.07 1187.21 336.213 1267.4 388.713C1347.59 441.213 1407.69 517.759 1435.42 602.69L1369.98 780.573L1370 780.574Z" fill="white"/>
</g>
</g>
</g>
</g>
</g>
</g>
</g>
<defs>
<clipPath id="clip0_241_14">
<rect width="1440" height="1315" fill="white"/>
</clipPath>
</defs>
</svg>
