<svg width="1440" height="1315" viewBox="0 0 1440 1315" fill="none" xmlns="http://www.w3.org/2000/svg">
<path d="M1139.44 277.884C1134.73 272.183 1131.36 266.098 1129.54 260.042C1128.5 256.571 1127.96 253.115 1127.96 249.748C1127.96 248.906 1127.99 248.064 1128.07 247.237C1128.14 246.41 1128.23 245.582 1128.36 244.755C1128.77 242.304 1129.5 239.911 1130.54 237.636L1126.65 246.085C1121.04 258.27 1124.78 273.32 1135.55 286.332L1139.44 277.884V277.884Z" fill="url(#paint0_linear_241_14)"/>
<path d="M1240.43 358.897C1238.89 359.311 1224.86 363.047 1208.06 365.676C1207.07 365.824 1206.07 365.987 1205.07 366.12C1204.81 366.164 1204.54 366.193 1204.27 366.238C1203.36 366.371 1202.43 366.504 1201.51 366.622C1201.38 366.636 1201.26 366.651 1201.12 366.681C1200.09 366.814 1199.05 366.947 1197.99 367.065C1197.72 367.094 1197.44 367.124 1197.17 367.153C1196.26 367.257 1195.35 367.36 1194.44 367.449C1194.25 367.464 1194.05 367.493 1193.84 367.508C1192.77 367.611 1191.68 367.715 1190.58 367.803C1190.31 367.818 1190.04 367.848 1189.79 367.862C1188.88 367.936 1187.95 367.995 1187.03 368.054C1186.78 368.069 1186.52 368.084 1186.27 368.099C1185.15 368.158 1184.03 368.217 1182.9 368.261C1182.66 368.261 1182.42 368.276 1182.18 368.291C1181.23 368.32 1180.27 368.35 1179.32 368.365C1179.04 368.365 1178.75 368.365 1178.47 368.365C1177.31 368.365 1176.14 368.379 1174.98 368.365C1174.79 368.365 1174.59 368.365 1174.4 368.365C1173.4 368.35 1172.39 368.32 1171.37 368.291C1171.06 368.291 1170.76 368.276 1170.45 368.261C1169.25 368.217 1168.06 368.143 1166.85 368.069C1166.75 368.069 1166.64 368.054 1166.54 368.04C1165.44 367.966 1164.32 367.862 1163.2 367.759C1162.89 367.729 1162.56 367.7 1162.25 367.656C1161.07 367.537 1159.9 367.39 1158.73 367.242C1158.68 367.242 1158.62 367.242 1158.58 367.227C1157.35 367.065 1156.13 366.873 1154.91 366.666C1154.6 366.607 1154.27 366.563 1153.95 366.504C1152.87 366.312 1151.79 366.105 1150.7 365.883C1150.54 365.854 1150.36 365.824 1150.2 365.78C1148.97 365.529 1147.75 365.233 1146.51 364.938C1146.08 364.835 1145.65 364.716 1145.22 364.613C1144.74 364.495 1144.28 364.362 1143.8 364.244C1143.32 364.111 1142.84 363.978 1142.37 363.83C1141.89 363.697 1141.43 363.564 1140.95 363.417C1140.47 363.269 1139.98 363.121 1139.5 362.959C1139.03 362.811 1138.56 362.663 1138.09 362.501C1137.61 362.338 1137.12 362.176 1136.64 361.999C1136.16 361.836 1135.7 361.674 1135.22 361.497C1134.75 361.319 1134.25 361.127 1133.78 360.95C1133.32 360.773 1132.84 360.596 1132.38 360.404C1131.88 360.212 1131.41 360.005 1130.91 359.798C1130.45 359.606 1129.97 359.414 1129.51 359.207C1129.04 359 1128.54 358.779 1128.07 358.557C1127.6 358.351 1127.13 358.129 1126.66 357.922C1126.19 357.701 1125.69 357.464 1125.22 357.228C1124.76 356.992 1124.28 356.77 1123.82 356.534C1123 356.12 1122.18 355.692 1121.36 355.249C1120.31 354.673 1119.28 354.082 1118.27 353.477C1117.99 353.314 1117.72 353.137 1117.43 352.974C1116.63 352.487 1115.84 351.985 1115.06 351.468C1114.85 351.335 1114.64 351.202 1114.44 351.054C1113.5 350.419 1112.57 349.769 1111.68 349.105C1111.47 348.957 1111.26 348.794 1111.07 348.632C1110.35 348.1 1109.65 347.554 1108.96 346.993C1108.68 346.756 1108.38 346.535 1108.1 346.298C1107.87 346.106 1107.65 345.914 1107.43 345.722C1107.02 345.383 1106.62 345.028 1106.23 344.688C1106.03 344.496 1105.82 344.319 1105.61 344.127C1105.16 343.728 1104.74 343.315 1104.31 342.916C1104.18 342.783 1104.03 342.65 1103.88 342.517C1103.33 341.971 1102.77 341.424 1102.24 340.878C1102.12 340.745 1102 340.612 1101.88 340.494C1101.48 340.065 1101.07 339.637 1100.69 339.209C1100.51 339.017 1100.34 338.81 1100.16 338.618C1099.84 338.234 1099.51 337.865 1099.18 337.481C1099 337.274 1098.84 337.067 1098.66 336.86C1098.35 336.476 1098.03 336.078 1097.73 335.694C1097.59 335.502 1097.44 335.31 1097.29 335.118C1096.91 334.63 1096.56 334.128 1096.2 333.641C1096.14 333.552 1096.06 333.463 1096 333.36C1095.59 332.769 1095.2 332.178 1094.81 331.588C1094.71 331.41 1094.6 331.248 1094.48 331.071C1094.21 330.642 1093.95 330.214 1093.69 329.786C1093.56 329.564 1093.44 329.357 1093.32 329.136C1093.1 328.737 1092.87 328.338 1092.65 327.954C1092.53 327.733 1092.41 327.511 1092.29 327.304C1092.07 326.891 1091.86 326.462 1091.65 326.034C1091.56 325.842 1091.46 325.665 1091.37 325.473C1091.08 324.867 1090.8 324.262 1090.55 323.656C1090.53 323.627 1090.52 323.582 1090.5 323.553C1090.26 322.977 1090.04 322.416 1089.83 321.839C1089.76 321.647 1089.7 321.441 1089.62 321.249C1089.47 320.835 1089.34 320.422 1089.2 319.993C1089.13 319.772 1089.07 319.55 1089 319.329C1088.88 318.93 1088.76 318.531 1088.65 318.132C1088.59 317.911 1088.53 317.704 1088.47 317.482C1088.35 317.039 1088.26 316.581 1088.16 316.138C1088.13 315.976 1088.09 315.813 1088.06 315.651C1087.94 315.045 1087.83 314.44 1087.74 313.834C1087.73 313.701 1087.71 313.583 1087.7 313.45C1087.64 312.978 1087.58 312.49 1087.53 312.018C1087.52 311.811 1087.5 311.604 1087.49 311.397C1087.46 310.998 1087.43 310.6 1087.41 310.201C1087.41 309.979 1087.41 309.758 1087.4 309.536C1087.4 309.137 1087.4 308.739 1087.4 308.355C1087.4 308.148 1087.4 307.941 1087.4 307.749C1087.41 307.276 1087.44 306.789 1087.49 306.316C1087.49 306.213 1087.49 306.095 1087.52 305.991C1087.58 305.415 1087.65 304.825 1087.74 304.249C1087.77 304.086 1087.8 303.924 1087.83 303.776C1087.91 303.362 1087.98 302.949 1088.07 302.535C1088.12 302.328 1088.16 302.136 1088.22 301.93C1088.31 301.56 1088.41 301.191 1088.52 300.822C1088.58 300.615 1088.64 300.408 1088.7 300.216C1088.82 299.832 1088.95 299.448 1089.09 299.079C1089.14 298.902 1089.2 298.725 1089.28 298.562C1089.49 298.016 1089.71 297.469 1089.96 296.938L1086.07 305.386C1085.82 305.918 1085.6 306.464 1085.39 307.011C1085.33 307.188 1085.27 307.365 1085.19 307.542C1085.06 307.926 1084.92 308.296 1084.81 308.68C1084.75 308.886 1084.69 309.093 1084.63 309.3C1084.52 309.669 1084.42 310.038 1084.33 310.408C1084.28 310.614 1084.22 310.806 1084.18 311.013C1084.09 311.427 1084.01 311.84 1083.94 312.254C1083.91 312.416 1083.88 312.579 1083.85 312.726C1083.76 313.303 1083.69 313.879 1083.63 314.469C1083.63 314.573 1083.63 314.691 1083.6 314.794C1083.55 315.267 1083.52 315.754 1083.51 316.227C1083.51 316.434 1083.51 316.64 1083.51 316.832C1083.51 317.231 1083.51 317.615 1083.51 318.014C1083.51 318.236 1083.51 318.457 1083.52 318.679C1083.52 319.078 1083.57 319.476 1083.6 319.875C1083.61 320.082 1083.63 320.289 1083.64 320.495C1083.69 320.968 1083.75 321.441 1083.81 321.913C1083.82 322.046 1083.84 322.179 1083.85 322.297C1083.94 322.903 1084.04 323.508 1084.16 324.114C1084.19 324.276 1084.24 324.439 1084.27 324.601C1084.36 325.045 1084.46 325.488 1084.58 325.945C1084.64 326.167 1084.7 326.389 1084.76 326.595C1084.86 326.994 1084.98 327.393 1085.1 327.792C1085.18 328.013 1085.24 328.235 1085.31 328.471C1085.45 328.885 1085.58 329.298 1085.73 329.712C1085.8 329.919 1085.86 330.111 1085.94 330.317C1086.15 330.893 1086.37 331.455 1086.61 332.031C1086.62 332.06 1086.64 332.105 1086.65 332.134C1086.91 332.74 1087.19 333.345 1087.47 333.951C1087.56 334.143 1087.67 334.335 1087.76 334.527C1087.97 334.94 1088.18 335.369 1088.38 335.782C1088.5 336.004 1088.62 336.225 1088.74 336.447C1088.95 336.846 1089.17 337.23 1089.4 337.628C1089.52 337.85 1089.65 338.057 1089.79 338.278C1090.04 338.707 1090.31 339.135 1090.58 339.549C1090.68 339.726 1090.8 339.903 1090.9 340.065C1091.29 340.656 1091.68 341.247 1092.1 341.838C1092.17 341.926 1092.23 342.03 1092.31 342.118C1092.66 342.606 1093.02 343.093 1093.38 343.581C1093.53 343.773 1093.68 343.965 1093.84 344.171C1094.14 344.556 1094.45 344.94 1094.77 345.338C1094.95 345.545 1095.11 345.767 1095.29 345.973C1095.6 346.357 1095.93 346.727 1096.26 347.096C1096.44 347.303 1096.6 347.495 1096.78 347.687C1097.17 348.115 1097.57 348.543 1097.97 348.972C1098.09 349.105 1098.21 349.238 1098.35 349.37C1098.88 349.917 1099.42 350.463 1099.99 351.01C1100.14 351.158 1100.28 351.291 1100.43 351.424C1100.85 351.822 1101.28 352.221 1101.72 352.62C1101.92 352.812 1102.13 353.004 1102.36 353.181C1102.74 353.521 1103.15 353.875 1103.54 354.215C1103.76 354.407 1103.98 354.599 1104.22 354.791C1104.37 354.909 1104.5 355.042 1104.65 355.16C1104.79 355.278 1104.94 355.382 1105.07 355.485C1105.76 356.032 1106.46 356.578 1107.17 357.125C1107.38 357.287 1107.59 357.435 1107.8 357.597C1108.69 358.262 1109.62 358.912 1110.56 359.547C1110.77 359.68 1110.98 359.813 1111.19 359.96C1111.96 360.477 1112.75 360.98 1113.56 361.467C1113.84 361.629 1114.11 361.807 1114.39 361.969C1115.41 362.575 1116.42 363.166 1117.48 363.742C1118.16 364.111 1118.85 364.48 1119.54 364.835C1119.67 364.908 1119.8 364.967 1119.94 365.027C1120.4 365.263 1120.88 365.484 1121.34 365.721C1121.82 365.957 1122.29 366.193 1122.79 366.415C1123.25 366.636 1123.73 366.843 1124.19 367.065C1124.67 367.286 1125.16 367.508 1125.64 367.715C1126.1 367.921 1126.57 368.113 1127.04 368.305C1127.51 368.512 1128.01 368.704 1128.48 368.911C1128.95 369.103 1129.42 369.28 1129.89 369.458C1130.36 369.65 1130.85 369.827 1131.33 370.004C1131.79 370.181 1132.27 370.344 1132.73 370.506C1133.21 370.669 1133.7 370.846 1134.18 371.008C1134.64 371.171 1135.12 371.318 1135.58 371.466C1136.06 371.614 1136.55 371.776 1137.03 371.924C1137.49 372.072 1137.97 372.205 1138.43 372.338C1138.91 372.471 1139.4 372.618 1139.88 372.751C1140.34 372.884 1140.82 373.002 1141.28 373.12C1141.59 373.194 1141.89 373.283 1142.2 373.372C1142.34 373.401 1142.46 373.431 1142.59 373.46C1143.81 373.756 1145.05 374.051 1146.27 374.302C1146.45 374.332 1146.62 374.376 1146.8 374.405C1147.88 374.627 1148.96 374.834 1150.03 375.026C1150.35 375.085 1150.67 375.144 1150.99 375.188C1152.21 375.395 1153.43 375.587 1154.65 375.749C1154.7 375.749 1154.76 375.749 1154.8 375.764C1155.98 375.927 1157.16 376.06 1158.32 376.178C1158.64 376.207 1158.96 376.237 1159.28 376.281C1160.38 376.385 1161.5 376.488 1162.6 376.562C1162.71 376.562 1162.81 376.577 1162.93 376.591C1164.12 376.68 1165.32 376.739 1166.51 376.783C1166.82 376.783 1167.12 376.813 1167.43 376.813C1168.45 376.857 1169.46 376.872 1170.46 376.887C1170.66 376.887 1170.85 376.887 1171.04 376.887C1172.21 376.887 1173.37 376.887 1174.53 376.887C1174.82 376.887 1175.1 376.887 1175.38 376.887C1176.34 376.872 1177.29 376.842 1178.25 376.813C1178.48 376.813 1178.72 376.813 1178.96 376.783C1180.1 376.739 1181.21 376.68 1182.33 376.621C1182.59 376.606 1182.84 376.591 1183.09 376.577C1184.02 376.517 1184.94 376.458 1185.85 376.385C1186.12 376.37 1186.39 376.34 1186.66 376.325C1187.75 376.237 1188.83 376.133 1189.91 376.03C1190.12 376.015 1190.31 375.986 1190.52 375.971C1191.43 375.882 1192.34 375.779 1193.23 375.676C1193.5 375.646 1193.78 375.617 1194.05 375.587C1195.11 375.469 1196.16 375.336 1197.18 375.203C1197.32 375.188 1197.44 375.173 1197.57 375.144C1198.5 375.026 1199.42 374.893 1200.33 374.76C1200.6 374.716 1200.87 374.686 1201.14 374.642C1202.14 374.494 1203.13 374.346 1204.12 374.184C1220.93 371.555 1234.96 367.818 1236.49 367.404L1267.21 359.104L1271.11 350.655L1240.39 358.956L1240.43 358.897Z" fill="url(#paint1_linear_241_14)"/>
<path d="M1092.17 293.009C1100.81 280.055 1119.37 274.797 1139.46 277.884C1127.51 263.454 1124.22 246.528 1132.72 233.767C1145.25 214.979 1178.63 212.38 1207.28 227.962C1238.16 244.755 1250.48 271.607 1257.77 293.142C1262.74 307.838 1265.33 320.82 1265.62 322.253L1271.15 350.596L1240.43 358.897C1238.89 359.31 1224.86 363.047 1208.06 365.676C1183.64 369.487 1151.73 371.761 1121.37 355.249C1092.71 339.667 1079.65 311.796 1092.17 293.009Z" fill="url(#paint2_linear_241_14)"/>
<path style="mix-blend-mode:overlay" opacity="0.5" d="M1265.62 322.253C1265.33 320.82 1262.74 307.838 1257.77 293.142C1250.48 271.607 1238.16 244.755 1207.28 227.962C1178.62 212.38 1145.23 214.979 1132.72 233.767C1124.22 246.513 1127.51 263.454 1139.46 277.884C1119.37 274.783 1100.81 280.055 1092.17 293.009C1079.65 311.796 1092.72 339.667 1121.37 355.249C1151.73 371.747 1183.64 369.487 1208.06 365.676C1224.86 363.047 1238.9 359.31 1240.43 358.897L1271.15 350.596L1265.62 322.253V322.253ZM1240.33 358.528C1239.73 358.69 1225.41 362.575 1207.98 365.307C1196.07 367.168 1186.12 368.039 1176.67 368.039C1155.8 368.039 1137.77 363.756 1121.55 354.924C1104.67 345.737 1092.44 331.706 1088.86 317.364C1086.64 308.458 1087.89 300.113 1092.49 293.215C1099.18 283.172 1112.27 277.397 1128.41 277.397C1131.99 277.397 1135.69 277.692 1139.38 278.254L1140.38 278.401L1139.74 277.633C1127.51 262.849 1124.93 246.114 1133.03 233.973C1139.73 223.915 1152.84 218.155 1168.97 218.155C1181.54 218.155 1195.08 221.759 1207.1 228.287C1237.85 245.007 1250.14 271.784 1257.42 293.245C1262.34 307.808 1264.96 320.865 1265.25 322.312L1270.72 350.316L1240.34 358.513L1240.33 358.528Z" fill="url(#paint3_linear_241_14)"/>
<defs>
<linearGradient id="paint0_linear_241_14" x1="1115.11" y1="250.752" x2="1150.97" y2="273.631" gradientUnits="userSpaceOnUse">
<stop stop-color="#FB2A60"/>
<stop offset="0.18" stop-color="#DA2458"/>
<stop offset="0.42" stop-color="#B71D4F"/>
<stop offset="0.64" stop-color="#9E1849"/>
<stop offset="0.84" stop-color="#8F1545"/>
<stop offset="1" stop-color="#8A1544"/>
</linearGradient>
<linearGradient id="paint1_linear_241_14" x1="1268.44" y1="376.163" x2="1080.4" y2="324.484" gradientUnits="userSpaceOnUse">
<stop stop-color="#FB2A60"/>
<stop offset="0.08" stop-color="#DA2458"/>
<stop offset="0.17" stop-color="#B71D4F"/>
<stop offset="0.27" stop-color="#9E1849"/>
<stop offset="0.35" stop-color="#8F1545"/>
<stop offset="0.42" stop-color="#8A1544"/>
<stop offset="0.63" stop-color="#8C1544"/>
<stop offset="0.73" stop-color="#931646"/>
<stop offset="0.8" stop-color="#A01748"/>
<stop offset="0.87" stop-color="#B21A4C"/>
<stop offset="0.92" stop-color="#CA1D52"/>
<stop offset="0.97" stop-color="#E62158"/>
<stop offset="1" stop-color="#FB245D"/>
</linearGradient>
<linearGradient id="paint2_linear_241_14" x1="1067.95" y1="213.842" x2="1247.65" y2="361.325" gradientUnits="userSpaceOnUse">
<stop stop-color="#FC658D"/>
<stop offset="0.46" stop-color="#FB4474"/>
<stop offset="1" stop-color="#FB1A55"/>
</linearGradient>
<linearGradient id="paint3_linear_241_14" x1="1087.42" y1="293.097" x2="1271.15" y2="293.097" gradientUnits="userSpaceOnUse">
<stop stop-color="white"/>
<stop offset="0.02" stop-color="white" stop-opacity="0.97"/>
<stop offset="0.5" stop-color="white" stop-opacity="0.46"/>
<stop offset="0.82" stop-color="white" stop-opacity="0.13"/>
<stop offset="0.97" stop-color="white" stop-opacity="0"/>
</linearGradient>
</defs>
</svg>
