<svg width="1440" height="1315" viewBox="0 0 1440 1315" fill="none" xmlns="http://www.w3.org/2000/svg">
<path d="M903.395 472.137L897.967 479.965C897.774 480.231 897.505 480.453 897.132 480.556L902.56 472.728C902.918 472.61 903.202 472.403 903.395 472.137Z" fill="#853100"/>
<path d="M874.69 481.487L869.276 489.315L897.147 480.556L902.56 472.728L874.69 481.487Z" fill="url(#paint0_linear_241_14)"/>
<path d="M831.339 525.471L743.386 486.006C730.487 480.216 723.358 466.51 727.444 455.403L766.962 347.863C767.499 346.401 768.2 345.072 769.035 343.846L763.607 351.674C762.772 352.885 762.071 354.229 761.534 355.691L722.016 463.231C717.93 474.338 725.073 488.059 737.958 493.834L825.911 533.299C837.125 538.335 848.98 535.721 854.587 527.642L860.015 519.814C854.423 527.878 842.553 530.493 831.339 525.471V525.471Z" fill="url(#paint1_linear_241_14)"/>
<path d="M766.962 347.849C771.048 336.727 784.812 332.4 797.711 338.189L885.665 377.655C898.564 383.444 905.692 397.151 901.606 408.272L888.99 442.583L903.44 470.335C903.694 470.838 903.724 471.355 903.574 471.783C903.41 472.211 903.067 472.551 902.575 472.713L874.704 481.472L862.088 515.797C858.002 526.904 844.238 531.231 831.339 525.456L743.386 485.991C730.487 480.202 723.358 466.495 727.444 455.388L766.962 347.849V347.849Z" fill="url(#paint2_linear_241_14)"/>
<path style="mix-blend-mode:overlay" opacity="0.5" d="M903.44 470.351L888.99 442.598L901.606 408.288C905.692 397.166 898.564 383.459 885.665 377.67L797.712 338.205C784.812 332.415 771.048 336.742 766.962 347.864L727.445 455.403C723.359 466.51 730.502 480.232 743.386 486.007L831.339 525.472C844.238 531.261 858.002 526.934 862.088 515.812L874.704 481.487L902.575 472.728C903.067 472.566 903.425 472.226 903.575 471.798C903.739 471.37 903.694 470.853 903.44 470.351V470.351ZM903.038 471.606C902.933 471.887 902.71 472.093 902.396 472.182L874.257 481.029L861.552 515.62C858.867 522.931 851.739 527.466 842.941 527.466C839.183 527.466 835.246 526.594 831.578 524.955L743.624 485.475C731.023 479.818 724 466.407 727.981 455.581L767.499 348.041C770.183 340.73 777.326 336.181 786.125 336.181C789.942 336.181 793.76 337.023 797.488 338.692L885.441 378.172C898.057 383.829 905.066 397.254 901.084 408.081L888.394 442.627L902.963 470.602C903.142 470.941 903.172 471.296 903.067 471.591L903.038 471.606Z" fill="url(#paint3_linear_241_14)"/>
<path d="M773.867 437.723C769.065 450.795 776.879 466.628 791.329 473.127C806.629 479.995 821.571 475.032 832.859 469.951C840.644 466.451 847.056 462.566 847.757 462.138L861.774 453.571L857.464 436.601C857.256 435.744 855.272 427.961 852.036 419.394C847.324 406.84 839.928 391.523 824.344 384.537C809.909 378.053 794.296 383.385 789.495 396.456C786.244 405.304 788.794 415.451 795.281 423.087C785.617 423.411 777.162 428.729 773.867 437.738" fill="url(#paint4_linear_241_14)"/>
<defs>
<linearGradient id="paint0_linear_241_14" x1="869.276" y1="481.014" x2="902.56" y2="481.014" gradientUnits="userSpaceOnUse">
<stop stop-color="#FB2A60"/>
<stop offset="0.18" stop-color="#DA2458"/>
<stop offset="0.42" stop-color="#B71D4F"/>
<stop offset="0.64" stop-color="#9E1849"/>
<stop offset="0.84" stop-color="#8F1545"/>
<stop offset="1" stop-color="#8A1544"/>
</linearGradient>
<linearGradient id="paint1_linear_241_14" x1="731.158" y1="412.097" x2="861.779" y2="465.282" gradientUnits="userSpaceOnUse">
<stop offset="0.05" stop-color="#FB2A60"/>
<stop offset="0.06" stop-color="#F4285E"/>
<stop offset="0.08" stop-color="#E22559"/>
<stop offset="0.1" stop-color="#C41F52"/>
<stop offset="0.12" stop-color="#9C1848"/>
<stop offset="0.13" stop-color="#8A1544"/>
</linearGradient>
<linearGradient id="paint2_linear_241_14" x1="740.15" y1="368.955" x2="890.934" y2="498.912" gradientUnits="userSpaceOnUse">
<stop stop-color="#FC658D"/>
<stop offset="0.46" stop-color="#FB4474"/>
<stop offset="1" stop-color="#FB1A55"/>
</linearGradient>
<linearGradient id="paint3_linear_241_14" x1="728.563" y1="342.636" x2="883.791" y2="506.829" gradientUnits="userSpaceOnUse">
<stop stop-color="white"/>
<stop offset="0.02" stop-color="white" stop-opacity="0.97"/>
<stop offset="0.5" stop-color="white" stop-opacity="0.46"/>
<stop offset="0.82" stop-color="white" stop-opacity="0.13"/>
<stop offset="0.97" stop-color="white" stop-opacity="0"/>
</linearGradient>
<linearGradient id="paint4_linear_241_14" x1="777.654" y1="411.965" x2="890.534" y2="476.21" gradientUnits="userSpaceOnUse">
<stop stop-color="#FFE8EE"/>
<stop offset="0.31" stop-color="#FEC7D5"/>
<stop offset="0.98" stop-color="#FC7498"/>
<stop offset="1" stop-color="#FC7397"/>
</linearGradient>
</defs>
</svg>
