<svg width="1440" height="1315" viewBox="0 0 1440 1315" fill="none" xmlns="http://www.w3.org/2000/svg">
<g id="mainSite__emoji--">
<g id="a">
<g id="dot03">
<g id="Group">
<path id="Vector" d="M767.037 271.356C767.037 271.356 767.007 271.267 766.993 271.223C766.843 270.809 766.724 270.307 766.664 269.716C766.635 269.436 766.62 269.052 766.664 268.594C766.664 268.476 766.694 268.358 766.709 268.225V268.106L766.754 268.003C766.784 267.826 766.829 267.663 766.873 267.501C766.873 267.457 766.903 267.397 766.918 267.353L766.948 267.22C767.037 266.925 767.157 266.674 767.276 266.437C767.291 266.393 767.321 266.349 767.35 266.304L767.38 266.245L767.41 266.186V266.157L767.44 266.127L767.47 266.083C767.634 265.788 767.783 265.581 767.917 265.418L767.962 265.359C767.962 265.359 768.081 265.211 768.141 265.138C768.171 265.093 768.215 265.049 768.245 265.019C768.335 264.916 768.454 264.798 768.543 264.709C768.543 264.709 768.633 264.621 768.678 264.576C768.678 264.576 768.737 264.517 768.752 264.503C768.782 264.473 768.827 264.443 768.857 264.414C768.961 264.325 769.08 264.237 769.185 264.148C769.274 264.074 769.379 264.015 769.483 263.941C770.005 263.602 770.557 263.35 771.153 263.188C771.466 263.099 771.824 263.026 772.227 262.981H772.271C772.376 262.966 772.495 262.952 772.614 262.952C772.689 262.952 772.778 262.952 772.868 262.952H772.898C773.032 262.952 773.092 262.952 773.181 262.952H773.211C773.315 262.952 773.39 262.952 773.479 262.966C773.539 262.966 773.599 262.966 773.658 262.981C773.733 262.981 773.807 262.996 773.897 263.011C773.897 263.011 774.031 263.04 774.106 263.055C774.15 263.055 774.195 263.07 774.255 263.085H774.314C774.792 263.203 775.15 263.35 775.373 263.439L775.418 263.469C775.522 263.513 775.612 263.557 775.686 263.602L775.761 263.646C775.88 263.72 776.044 263.808 776.238 263.926C777.148 264.503 777.878 265.285 778.385 266.216L778.43 266.304C778.505 266.467 778.579 266.615 778.624 266.748V266.777C778.684 266.881 778.714 266.999 778.758 267.117V267.176L778.803 267.235C778.803 267.235 778.833 267.324 778.848 267.353C778.878 267.457 778.907 267.545 778.922 267.634C778.937 267.708 778.952 267.781 778.982 267.87V267.973C778.982 267.973 779.027 268.062 779.027 268.092C779.221 269.14 779.131 270.189 778.788 271.179L778.758 271.252V271.282C778.758 271.282 778.714 271.356 778.699 271.385C778.4 272.183 777.953 272.848 777.431 273.394C776.551 274.354 775.478 274.93 774.419 275.166H774.389C774.389 275.166 774.285 275.196 774.24 275.211H774.18L774.106 275.24H774.001C773.882 275.285 773.792 275.299 773.792 275.299C773.688 275.314 773.614 275.329 773.509 275.329H773.435C773.435 275.329 773.345 275.329 773.285 275.344H773.166C773.077 275.344 772.972 275.358 772.883 275.358H772.793C772.704 275.358 772.644 275.358 772.555 275.358H772.525C772.525 275.358 772.406 275.358 772.346 275.358H772.197C772.197 275.358 772.137 275.344 772.107 275.329C771.988 275.329 771.869 275.299 771.75 275.27C771.123 275.152 770.646 274.974 770.363 274.856L770.318 274.827C770.318 274.827 770.184 274.768 770.109 274.723L770.05 274.694C769.96 274.65 769.841 274.59 769.692 274.502C769.408 274.339 769.14 274.162 768.916 273.97C768.886 273.941 768.842 273.911 768.812 273.881C768.782 273.867 768.752 273.837 768.737 273.808C768.215 273.35 767.843 272.892 767.604 272.493C767.589 272.464 767.559 272.434 767.544 272.404C767.321 272.035 767.157 271.681 767.037 271.356V271.356Z" fill="url(#paint0_radial_241_14)"/>
</g>
</g>
</g>
</g>
<defs>
<radialGradient id="paint0_radial_241_14" cx="0" cy="0" r="1" gradientUnits="userSpaceOnUse" gradientTransform="translate(755.19 264.734) rotate(-152.267) scale(7.55007 7.50941)">
<stop offset="0.02" stop-color="#BCDEE7"/>
<stop offset="0.46" stop-color="#BDDEE7"/>
<stop offset="0.64" stop-color="#C5E2EA"/>
<stop offset="0.77" stop-color="#D1E8EE"/>
<stop offset="0.88" stop-color="#E2F1F4"/>
<stop offset="0.97" stop-color="#F9FCFC"/>
<stop offset="0.99" stop-color="white"/>
</radialGradient>
</defs>
</svg>
