<svg width="1440" height="1315" viewBox="0 0 1440 1315" fill="none" xmlns="http://www.w3.org/2000/svg">
<g id="mainSite__emoji--">
<g id="a">
<g id="mainSite__emoji--circle01">
<g id="Group">
<path id="Vector" d="M687.287 353.949C687.287 353.949 687.421 353.801 687.496 353.742C687.868 353.358 690.075 350.995 693.043 347.199C693.311 346.859 693.565 346.52 693.833 346.18C694.206 345.692 694.579 345.19 694.967 344.673C704.272 332.178 710.818 318.191 714.487 303.554C714.487 303.525 714.502 303.48 714.517 303.451C714.919 301.856 715.277 300.26 715.605 298.65C717.186 290.926 717.976 283.068 717.961 275.181C717.991 271.459 717.768 267.132 717.365 263.572C717.111 261.15 716.783 258.742 716.381 256.335C716.366 256.217 716.351 256.084 716.336 255.966L716.276 255.655C716.202 255.242 716.142 254.828 716.068 254.43C715.799 252.893 715.471 251.254 715.068 249.526C715.054 249.452 715.039 249.393 715.024 249.319C714.83 248.492 714.621 247.621 714.383 246.734C714.278 246.336 714.174 245.937 714.054 245.538C713.965 245.198 713.876 244.873 713.786 244.519C713.711 244.253 713.637 243.987 713.547 243.721C712.116 238.67 710.326 233.693 708.179 228.789C707.627 227.519 707.195 226.559 706.926 225.998L706.524 225.141L706.121 224.299C706.121 224.299 706.076 224.225 706.061 224.181L705.972 223.989C705.763 223.575 705.495 223.029 705.286 222.63L705.182 222.438C705.182 222.438 705.122 222.305 705.077 222.246L704.6 221.33C704.406 220.961 704.153 220.488 703.959 220.119L703.392 219.085C703.288 218.893 703.183 218.701 703.064 218.509C703.034 218.45 703.004 218.391 702.975 218.332L702.855 218.125C702.796 218.007 702.721 217.889 702.676 217.8L702.02 216.663C701.856 216.382 701.647 216.028 701.468 215.718C701.289 215.422 701.111 215.127 700.932 214.832L700.902 214.787C700.782 214.595 700.678 214.418 700.559 214.226C700.35 213.886 700.096 213.487 699.888 213.163L699.41 212.424C699.187 212.084 698.978 211.759 698.754 211.42C698.71 211.361 698.68 211.302 698.635 211.242C698.471 210.991 698.307 210.74 698.143 210.489L697.845 210.046L697.472 209.5C697.472 209.5 697.427 209.441 697.412 209.411L697.293 209.219C697.233 209.13 697.159 209.012 697.084 208.924C696.905 208.658 696.711 208.392 696.532 208.126C696.413 207.949 696.279 207.772 696.175 207.624C695.966 207.328 695.757 207.033 695.548 206.752L695.011 206.014C694.907 205.881 694.788 205.719 694.683 205.571C694.519 205.349 694.355 205.128 694.191 204.906L693.714 204.271C693.446 203.917 693.177 203.577 692.894 203.237L692.133 202.292C692.044 202.189 691.969 202.085 691.88 201.982L691.82 201.908C691.596 201.642 691.358 201.347 691.104 201.051C690.746 200.623 690.389 200.209 690.046 199.796C689.792 199.486 689.539 199.205 689.315 198.939C689.031 198.614 688.748 198.304 688.48 197.994C688.181 197.669 687.898 197.329 687.6 197.004C687.406 196.798 687.227 196.606 687.048 196.414L686.556 195.867C686.422 195.734 686.288 195.601 686.168 195.468C686.019 195.321 685.885 195.158 685.736 195.01C684.11 193.297 682.425 191.643 680.695 190.033C680.308 189.678 679.935 189.324 679.592 189.014C679.204 188.659 678.817 188.305 678.414 187.95C678.175 187.729 677.922 187.507 677.713 187.33C677.131 186.828 676.55 186.34 675.983 185.853C675.774 185.691 675.581 185.513 675.372 185.351C674.537 184.657 673.702 184.007 672.911 183.387C672.523 183.091 672.136 182.796 671.748 182.5L671.838 182.559L671.733 182.486C671.659 182.426 671.569 182.367 671.495 182.308C670.868 181.836 670.257 181.378 669.69 180.964C669.228 180.625 668.766 180.3 668.303 179.975C667.245 179.221 666.394 178.645 665.813 178.261C662.92 176.341 659.937 174.539 656.88 172.87C655.076 171.851 653.436 171.009 651.318 170.02C642.609 165.84 633.364 162.724 623.745 160.759H623.715C622.761 160.552 621.807 160.375 620.837 160.198C620.718 160.168 620.584 160.154 620.464 160.139C618.794 159.843 617.109 159.592 615.424 159.356C615.29 159.341 615.156 159.312 615.021 159.297L614.872 159.267C614.872 159.267 614.783 159.267 614.738 159.253C614.663 159.253 614.604 159.238 614.544 159.223C614.485 159.223 614.44 159.223 614.395 159.208C613.933 159.149 613.456 159.09 612.993 159.046C612.039 158.942 611.114 158.854 610.205 158.765C609.698 158.721 609.176 158.677 608.669 158.647C607.625 158.573 606.626 158.499 605.671 158.455H605.403C605.179 158.425 604.956 158.425 604.732 158.411C599.736 158.189 596.396 158.352 596.187 158.352C594.517 158.396 592.817 158.499 591.102 158.632C589.894 158.721 588.641 158.824 587.329 158.957C587.24 158.957 587.15 158.957 587.061 158.972L586.852 159.001C584.227 159.282 581.349 159.681 578.009 160.301H577.934C577.934 160.301 577.89 160.316 577.86 160.331C577.815 160.331 577.77 160.346 577.726 160.36C576.205 160.656 574.549 161.025 572.849 161.453C571.373 161.808 569.926 162.162 568.659 162.458L564.006 163.92C562.485 164.378 561.024 164.85 559.682 165.279C557.117 166.106 553.97 167.406 550.689 168.927H550.66L550.63 168.956C547.811 170.271 544.888 171.748 542.13 173.24L542.025 173.284C542.025 173.284 541.951 173.328 541.906 173.343C538.342 175.293 535.091 177.287 532.75 178.985C523.877 185.469 523.146 186.001 517.927 190.949C511.351 197.196 507.384 202.366 505.49 204.847C500.002 212.025 496.632 218.302 495.529 220.37C491.592 227.726 489.847 232.555 488.147 237.237C487.103 240.132 486.432 242.23 485.791 244.726C484.971 247.768 484.285 250.9 483.703 254.09C483.628 254.474 483.539 254.843 483.464 255.242C482.778 258.491 482.212 262.922 482.063 266.231C481.958 268.697 481.72 271.976 481.705 274.443C481.69 276.894 481.735 280.144 481.928 282.61C482.107 285.358 482.182 286.495 482.51 288.902C482.838 291.901 483.286 294.84 483.852 297.705V297.735C484.046 298.665 484.24 299.596 484.449 300.497C484.687 301.575 484.941 302.638 485.194 303.554C485.328 304.041 485.507 304.736 485.731 305.518C485.761 305.637 485.791 305.755 485.836 305.873C486.059 306.685 486.343 307.616 486.656 308.65C486.73 308.871 486.79 309.108 486.864 309.329C487.804 312.386 489.086 316.153 490.757 320.067C491.115 320.923 491.622 322.09 492.233 323.464C492.412 323.848 492.576 324.247 492.74 324.616L493.694 326.595C493.903 327.009 494.172 327.555 494.38 327.954L494.634 328.441C494.634 328.441 494.664 328.5 494.679 328.53L495.051 329.254C495.245 329.623 495.499 330.095 495.693 330.465L496.334 331.646L496.393 331.75C498.929 336.328 501.613 340.464 504.401 344.215L504.67 344.57C504.908 344.88 505.177 345.249 505.46 345.619C505.49 345.648 505.505 345.692 505.535 345.722C505.773 346.047 506.027 346.357 506.221 346.638L507.831 348.676C508.577 349.577 509.591 350.773 510.337 351.659C511.037 352.487 511.917 353.461 512.767 354.362H512.782V354.407C513.23 354.865 513.647 355.322 514.035 355.706C515.153 356.873 516.704 358.38 517.852 359.517C519.03 360.684 520.716 362.131 521.953 363.239C524.667 365.514 528.381 368.453 531.259 370.521C533.51 372.145 536.597 374.184 539.013 375.542C539.624 375.882 540.266 376.237 540.937 376.591C542.86 377.654 544.859 378.733 546.529 379.634L548.602 380.579C550.227 381.362 551.868 382.115 553.523 382.824L554.343 383.193C556.267 384.065 558.742 384.936 561.009 385.704C561.963 386.029 562.932 386.354 563.902 386.664C566.497 387.506 569.807 388.495 572.387 389.012C572.476 389.027 572.566 389.042 572.655 389.072C574.982 389.603 577.338 390.076 579.709 390.475C580.216 390.563 580.738 390.667 581.2 390.755L583.899 391.08C584.615 391.169 585.331 391.257 586.062 391.346L590.162 391.833C591.728 392.025 594.651 392.247 599.304 392.232C599.378 392.232 599.468 392.232 599.542 392.232H600.005C602.435 392.188 605.269 392.114 608.654 391.907C608.728 391.907 608.803 391.907 608.877 391.893C612.188 391.701 618.019 391.125 625.356 389.485C625.415 389.485 625.49 389.456 625.55 389.441C627.235 389.057 628.994 388.628 630.814 388.126C631.589 387.905 632.379 387.683 633.185 387.462C634.288 387.151 635.377 386.826 636.316 386.502C636.614 386.398 636.943 386.28 637.256 386.177C638.911 385.63 640.596 385.025 642.326 384.36C644.682 383.474 647.053 382.528 648.992 381.583H649.007C652.347 380.062 655.777 378.319 659.237 376.325C661.369 375.129 663.442 373.873 665.276 372.603C667.304 371.274 669.332 369.841 671.36 368.32C671.838 367.98 672.27 367.64 672.702 367.301C675.402 365.203 678.071 362.929 680.71 360.462C680.8 360.388 680.904 360.285 680.994 360.211L681.173 360.034C683.246 358.084 685.288 356.031 687.302 353.831L687.287 353.949Z" fill="url(#paint0_radial_241_14)"/>
<g id="Group_2">
<g id="Group_3">
<path id="Vector_2" d="M709.222 320.347C709.58 319.638 709.908 318.9 710.206 318.161C709.893 318.856 709.565 319.594 709.222 320.347Z" fill="url(#paint1_linear_241_14)"/>
<path id="Vector_3" d="M503.461 205.896C503.849 205.32 504.252 204.759 504.625 204.242C504.222 204.788 503.834 205.335 503.461 205.896Z" fill="url(#paint2_linear_241_14)"/>
</g>
<g id="Group_4">
<path id="Vector_4" d="M682.23 281.901C677.115 292.742 661.293 317.896 624.907 317.231C593.592 316.67 570.016 287.071 567.868 279.834C565.169 270.794 567.033 261.489 566.288 252.347C581.528 252.214 668.272 250.383 683.184 249.733C685.257 275.462 684.377 277.352 682.23 281.901" fill="white"/>
<path id="Vector_5" d="M602.986 212.188C603.12 214.507 602.032 215.777 601.092 216.427C598.662 218.125 595.053 219.824 592.458 221.257C589.476 222.911 582.78 226.795 571.372 234.254C566.884 237.075 562.559 233.22 563.692 228.907C564.289 226.662 564.557 225.629 589.282 211.582C581.468 208.584 575.831 206.428 564.841 202.529C560.516 200.461 563.096 195.912 566.123 194.73C566.466 194.597 566.943 194.479 567.301 194.405C568.077 194.302 569.896 194.051 599.348 205.305C601.241 206.177 602.136 207.225 602.539 209.042C602.688 210.076 602.837 211.125 602.986 212.173" fill="#412121"/>
<path id="Vector_6" d="M680.918 229.306C680.993 232.024 679.352 233.368 677.116 232.437C676.937 232.364 676.579 232.172 676.444 232.068C666.453 225.259 662.308 222.556 648.678 215.762C646.635 214.625 645.576 213.355 644.905 211.257C644.652 210.194 644.383 209.16 644.1 208.126C643.697 206.103 644.309 205.084 644.89 204.596C650.393 199.958 656.909 196.783 662.651 192.485C663.038 192.249 663.277 192.116 664.112 192.219C667.825 193.09 671.121 197.713 670.181 199.752C670.181 199.752 668.168 201.938 655.94 210.076C666.2 215.585 668.63 217.047 677.578 223.014C680.516 225.466 680.888 228.213 680.918 229.277" fill="#412121"/>
<path id="Vector_7" d="M711.236 293.88C706.285 312.372 694.37 321.382 688.077 311.412C683.946 304.884 684.021 297.75 684.155 284.811C684.334 267.457 684.11 257.044 682.336 241.285C716.008 248.286 716.634 273.749 711.236 293.88" fill="#6DB3E8"/>
<path id="Vector_8" d="M565.541 244.061C567.957 267.102 569.761 296.597 564.706 306.227C556.087 322.651 540.414 321.115 529.513 312.741C516.196 302.52 490.577 257.664 565.526 243.913V244.061" fill="#6DB3E8"/>
</g>
</g>
</g>
</g>
</g>
</g>
<defs>
<radialGradient id="paint0_radial_241_14" cx="0" cy="0" r="1" gradientUnits="userSpaceOnUse" gradientTransform="translate(591.102 293.174) rotate(44.9049) scale(135.126 135.128)">
<stop stop-color="#F79F40"/>
<stop offset="0.16" stop-color="#F7A442"/>
<stop offset="0.37" stop-color="#F8B449"/>
<stop offset="0.6" stop-color="#F9CE55"/>
<stop offset="0.77" stop-color="#FBE660"/>
<stop offset="0.91" stop-color="#FBF36F"/>
<stop offset="0.93" stop-color="#FBF672"/>
<stop offset="0.95" stop-color="#FBF676"/>
<stop offset="0.96" stop-color="#FBF782"/>
<stop offset="0.98" stop-color="#FBF897"/>
<stop offset="0.99" stop-color="#FCFAB4"/>
<stop offset="1" stop-color="#FDFBC2"/>
</radialGradient>
<linearGradient id="paint1_linear_241_14" x1="709.342" y1="319.094" x2="709.952" y2="319.721" gradientUnits="userSpaceOnUse">
<stop stop-color="#19B79C"/>
<stop offset="0.4" stop-color="#1DBB9D"/>
<stop offset="0.82" stop-color="#29C7A2"/>
<stop offset="1" stop-color="#31CFA6"/>
</linearGradient>
<linearGradient id="paint2_linear_241_14" x1="503.86" y1="205.112" x2="504.118" y2="205.378" gradientUnits="userSpaceOnUse">
<stop stop-color="#19B79C"/>
<stop offset="0.4" stop-color="#1DBB9D"/>
<stop offset="0.82" stop-color="#29C7A2"/>
<stop offset="1" stop-color="#31CFA6"/>
</linearGradient>
</defs>
</svg>
