<svg width="1440" height="1315" viewBox="0 0 1440 1315" fill="none" xmlns="http://www.w3.org/2000/svg">
<g id="mainSite__emoji--">
<g id="a">
<g id="mainSite__emoji--circle02">
<g id="Group">
<g id="Group_2">
<path id="Vector" d="M733.113 730.536C733.113 730.536 733.247 730.388 733.321 730.329C733.694 729.945 735.901 727.582 738.869 723.786C739.137 723.446 739.391 723.107 739.659 722.767C740.032 722.28 740.405 721.777 740.793 721.261C750.098 708.765 756.644 694.778 760.313 680.141C760.313 680.112 760.328 680.067 760.343 680.038C760.745 678.443 761.103 676.848 761.431 675.238C763.012 667.513 763.802 659.655 763.787 651.768C763.817 648.046 763.594 643.719 763.191 640.159C762.937 637.737 762.609 635.33 762.207 632.922C762.192 632.804 762.177 632.671 762.162 632.553L762.102 632.243C762.028 631.829 761.968 631.416 761.894 631.017C761.625 629.481 761.297 627.841 760.894 626.113C760.88 626.039 760.865 625.98 760.85 625.906C760.656 625.079 760.447 624.208 760.208 623.322C760.104 622.923 760 622.524 759.88 622.125C759.791 621.786 759.701 621.461 759.612 621.106C759.537 620.84 759.463 620.574 759.373 620.309C757.942 615.257 756.152 610.28 754.005 605.376C753.453 604.106 753.021 603.146 752.752 602.585L752.35 601.728L751.947 600.886C751.947 600.886 751.902 600.812 751.887 600.768L751.798 600.576C751.589 600.162 751.321 599.616 751.112 599.217L751.008 599.025C751.008 599.025 750.948 598.892 750.903 598.833L750.426 597.917C750.232 597.548 749.979 597.076 749.785 596.706L749.218 595.672C749.114 595.48 749.009 595.288 748.89 595.096C748.86 595.037 748.83 594.978 748.801 594.919L748.681 594.712C748.622 594.594 748.547 594.476 748.502 594.387L747.846 593.25C747.682 592.97 747.473 592.615 747.294 592.305C747.115 592.01 746.936 591.714 746.757 591.419L746.728 591.374C746.608 591.182 746.504 591.005 746.385 590.813C746.176 590.473 745.922 590.075 745.714 589.75L745.236 589.011C745.013 588.672 744.804 588.347 744.58 588.007L744.461 587.83C744.297 587.579 744.133 587.327 743.969 587.076L743.671 586.633L743.298 586.087C743.298 586.087 743.253 586.028 743.238 585.998L743.119 585.806C743.059 585.718 742.985 585.599 742.91 585.511C742.731 585.245 742.537 584.979 742.358 584.713C742.239 584.536 742.105 584.359 742 584.211C741.792 583.916 741.583 583.62 741.374 583.34L740.837 582.601C740.733 582.468 740.614 582.306 740.509 582.158C740.345 581.936 740.181 581.715 740.017 581.493C739.853 581.272 739.689 581.065 739.54 580.858C739.271 580.504 739.003 580.164 738.72 579.824L737.959 578.879C737.87 578.776 737.795 578.672 737.706 578.569L737.646 578.495C737.422 578.229 737.184 577.934 736.93 577.638C736.572 577.21 736.214 576.797 735.871 576.383C735.618 576.073 735.364 575.792 735.141 575.526C734.857 575.201 734.574 574.891 734.306 574.581C734.007 574.256 733.724 573.916 733.426 573.592C733.232 573.385 733.053 573.193 732.874 573.001L732.382 572.454C732.248 572.321 732.114 572.188 731.994 572.055C731.845 571.908 731.711 571.745 731.562 571.598C729.936 569.884 728.251 568.23 726.521 566.62C726.134 566.266 725.761 565.911 725.418 565.601C725.03 565.247 724.642 564.892 724.24 564.538C724.001 564.316 723.748 564.095 723.539 563.917C722.957 563.415 722.376 562.928 721.809 562.44C721.6 562.278 721.406 562.101 721.198 561.938C720.363 561.244 719.528 560.594 718.737 559.974C718.349 559.678 717.962 559.383 717.574 559.088L717.663 559.147C717.663 559.147 717.589 559.102 717.559 559.073C717.485 559.014 717.395 558.955 717.32 558.895C716.694 558.423 716.083 557.965 715.516 557.551C715.054 557.212 714.592 556.887 714.129 556.562C713.07 555.809 712.22 555.233 711.639 554.849C708.746 552.914 705.763 551.127 702.706 549.458C700.902 548.438 699.262 547.597 697.144 546.607C688.435 542.427 679.19 539.311 669.571 537.346H669.541C668.587 537.139 667.632 536.962 666.663 536.785C666.544 536.755 666.41 536.741 666.29 536.726C664.62 536.431 662.935 536.179 661.25 535.943C661.116 535.928 660.982 535.899 660.847 535.884L660.698 535.855C660.698 535.855 660.609 535.855 660.564 535.84C660.489 535.84 660.43 535.825 660.37 535.81C660.31 535.81 660.266 535.81 660.221 535.795C659.759 535.736 659.282 535.677 658.819 535.633C657.865 535.53 656.94 535.441 656.031 535.352C655.524 535.308 655.002 535.264 654.495 535.234C653.451 535.16 652.452 535.086 651.497 535.042H651.229C651.005 535.013 650.781 535.013 650.558 534.998C645.562 534.776 642.222 534.939 642.013 534.939C640.343 534.983 638.643 535.086 636.928 535.219C635.72 535.308 634.467 535.411 633.155 535.544C633.066 535.544 632.976 535.544 632.887 535.559L632.678 535.589C630.053 535.869 627.175 536.268 623.835 536.888H623.76C623.76 536.888 623.716 536.903 623.686 536.918C623.641 536.918 623.596 536.933 623.551 536.948C622.03 537.243 620.375 537.612 618.675 538.04C617.199 538.395 615.752 538.749 614.485 539.045L609.832 540.507C608.311 540.965 606.85 541.438 605.508 541.866C602.943 542.693 599.796 543.993 596.515 545.514H596.486L596.456 545.544C593.637 546.858 590.714 548.335 587.956 549.827L587.851 549.871C587.851 549.871 587.777 549.915 587.732 549.93C584.168 551.88 580.917 553.874 578.576 555.587C569.703 562.071 568.972 562.603 563.753 567.551C557.177 573.798 553.21 578.968 551.301 581.449C545.813 588.627 542.443 594.904 541.34 596.972C537.403 604.328 535.658 609.157 533.958 613.839C532.914 616.734 532.243 618.832 531.602 621.328C530.782 624.37 530.096 627.501 529.514 630.692C529.44 631.061 529.35 631.445 529.275 631.844C528.59 635.093 528.023 639.509 527.874 642.833C527.769 645.299 527.531 648.578 527.516 651.045C527.501 653.496 527.546 656.746 527.74 659.212C527.918 661.96 527.993 663.097 528.321 665.504C528.649 668.503 529.097 671.442 529.663 674.307V674.337C529.857 675.267 530.051 676.198 530.26 677.099C530.498 678.177 530.752 679.24 531.005 680.156C531.14 680.643 531.318 681.338 531.542 682.12C531.572 682.239 531.602 682.357 531.647 682.475C531.87 683.287 532.154 684.218 532.467 685.252C532.541 685.473 532.601 685.709 532.675 685.931C533.615 688.988 534.897 692.755 536.568 696.669C536.926 697.525 537.433 698.692 538.044 700.066C538.223 700.45 538.387 700.849 538.551 701.218L539.505 703.197C539.714 703.611 539.983 704.157 540.191 704.556L540.445 705.043C540.445 705.043 540.475 705.102 540.49 705.132L540.862 705.856C541.056 706.225 541.31 706.697 541.504 707.067L542.145 708.248L542.205 708.352C544.74 712.93 547.424 717.066 550.212 720.817L550.481 721.172C550.719 721.482 550.988 721.851 551.271 722.221C551.301 722.25 551.316 722.294 551.346 722.324C551.584 722.649 551.838 722.959 552.032 723.24L553.642 725.278C554.388 726.179 555.402 727.375 556.148 728.261C556.848 729.089 557.728 730.063 558.578 730.964H558.593V731.009C559.041 731.466 559.458 731.924 559.846 732.308C560.964 733.475 562.515 734.982 563.663 736.119C564.841 737.286 566.527 738.733 567.764 739.841C570.478 742.116 574.192 745.055 577.07 747.123C579.321 748.747 582.408 750.785 584.824 752.144C585.435 752.484 586.077 752.838 586.748 753.193C588.671 754.256 590.67 755.335 592.34 756.236L594.413 757.181C596.038 757.964 597.679 758.717 599.334 759.426L600.154 759.795C602.078 760.666 604.553 761.538 606.82 762.306C607.774 762.631 608.744 762.956 609.713 763.266C612.308 764.108 615.618 765.097 618.198 765.614C618.287 765.629 618.377 765.644 618.466 765.673C620.793 766.205 623.149 766.678 625.52 767.077C626.027 767.165 626.549 767.269 627.011 767.357L629.71 767.682C630.426 767.771 631.142 767.859 631.873 767.948L635.974 768.435C637.539 768.627 640.462 768.849 645.115 768.834C645.189 768.834 645.279 768.834 645.353 768.834H645.816C648.246 768.79 651.08 768.716 654.465 768.509C654.539 768.509 654.614 768.509 654.689 768.494C657.999 768.302 663.83 767.726 671.167 766.087C671.226 766.087 671.301 766.058 671.361 766.043C673.046 765.659 674.805 765.23 676.625 764.728C677.4 764.507 678.19 764.285 678.996 764.064C680.099 763.753 681.188 763.428 682.127 763.104C682.426 763 682.754 762.882 683.067 762.779C684.722 762.232 686.407 761.627 688.137 760.962C690.493 760.076 692.864 759.13 694.803 758.185H694.818C698.158 756.664 701.588 754.921 705.048 752.927C707.18 751.731 709.253 750.475 711.087 749.205C713.115 747.876 715.143 746.443 717.171 744.922C717.649 744.582 718.081 744.242 718.513 743.903C721.213 741.805 723.882 739.531 726.521 737.064C726.611 736.99 726.715 736.887 726.805 736.813L726.984 736.636C729.057 734.686 731.099 732.633 733.113 730.433V730.536Z" fill="url(#paint0_radial_241_14)"/>
<g id="Group_3">
<g id="Group_4">
<path id="Vector_2" d="M755.048 696.935C755.406 696.226 755.734 695.487 756.033 694.749C755.719 695.443 755.391 696.181 755.048 696.935Z" fill="url(#paint1_linear_241_14)"/>
<path id="Vector_3" d="M549.288 582.498C549.675 581.922 550.078 581.36 550.451 580.844C550.048 581.39 549.66 581.936 549.288 582.498Z" fill="url(#paint2_linear_241_14)"/>
</g>
<g id="Group_5">
<path id="Vector_4" d="M725.76 634.695C706.076 652.389 690.1 664.318 677.832 670.482C656.702 681.102 638.002 685.902 628.741 687.822C627.593 688.058 626.311 688.324 625.416 689.329C618.154 697.6 643.832 719.119 648.798 722.325L648.306 721.985C670.331 693.523 712.056 670.911 735.841 674.529C737.958 654.029 732.023 630.574 725.76 634.695" fill="#412121"/>
<path id="Vector_5" d="M691.551 686.212C672.612 696.773 659.281 707.806 648.305 721.97C691.058 750.86 730.457 720.198 735.84 674.544C724.298 672.609 709.4 676.538 691.551 686.198" fill="#FF3B62"/>
<path id="Vector_6" d="M594.695 622.495C589.998 624.637 590.743 631.992 594.799 633.75C594.949 633.809 595.157 633.883 595.306 633.927C603.792 636.29 609.399 637.856 622.641 640.381C611.069 656.244 605.263 664.24 605.223 664.368C603.613 669.434 608.012 674.027 612.202 673.318C614.17 672.978 615.17 671.723 615.542 671.25C635.704 643.911 638.582 639.392 638.88 638.727C640.341 635.419 638.433 630.751 633.869 629.924C618.57 627.502 610.129 625.922 597.439 622.377C596.246 622.037 595.292 622.274 594.695 622.525" fill="#412121"/>
<path id="Vector_7" d="M684.319 573.917C683.738 574.404 683.559 574.832 683.529 575.689C683.32 584.167 683.186 590.282 678.31 605.834C678.086 606.558 678.056 607.178 678.071 607.577C678.19 610.753 680.86 614.297 684.961 614.489C695.891 614.608 706.21 614.726 718.125 615.641C718.617 615.686 718.96 615.612 719.199 615.553C722.36 614.726 722.002 609.128 718.588 605.731C716.917 604.062 715.486 603.885 714.889 603.811C708.641 603.456 702.751 603.131 691.626 602.998C695.16 586.249 694.668 580.873 694.296 579.337C693.401 575.704 687.182 572.189 684.498 573.813C684.439 573.843 684.364 573.902 684.319 573.931" fill="#412121"/>
</g>
</g>
</g>
</g>
</g>
</g>
</g>
<defs>
<radialGradient id="paint0_radial_241_14" cx="0" cy="0" r="1" gradientUnits="userSpaceOnUse" gradientTransform="translate(636.916 669.778) rotate(44.9049) scale(135.126 135.128)">
<stop stop-color="#F79F40"/>
<stop offset="0.16" stop-color="#F7A442"/>
<stop offset="0.37" stop-color="#F8B449"/>
<stop offset="0.6" stop-color="#F9CE55"/>
<stop offset="0.77" stop-color="#FBE660"/>
<stop offset="0.91" stop-color="#FBF36F"/>
<stop offset="0.93" stop-color="#FBF672"/>
<stop offset="0.95" stop-color="#FBF676"/>
<stop offset="0.96" stop-color="#FBF782"/>
<stop offset="0.98" stop-color="#FBF897"/>
<stop offset="0.99" stop-color="#FCFAB4"/>
<stop offset="1" stop-color="#FDFBC2"/>
</radialGradient>
<linearGradient id="paint1_linear_241_14" x1="755.197" y1="695.656" x2="755.818" y2="696.294" gradientUnits="userSpaceOnUse">
<stop stop-color="#19B79C"/>
<stop offset="0.4" stop-color="#1DBB9D"/>
<stop offset="0.82" stop-color="#29C7A2"/>
<stop offset="1" stop-color="#31CFA6"/>
</linearGradient>
<linearGradient id="paint2_linear_241_14" x1="549.705" y1="581.684" x2="549.974" y2="581.961" gradientUnits="userSpaceOnUse">
<stop stop-color="#19B79C"/>
<stop offset="0.4" stop-color="#1DBB9D"/>
<stop offset="0.82" stop-color="#29C7A2"/>
<stop offset="1" stop-color="#31CFA6"/>
</linearGradient>
</defs>
</svg>
