<svg width="1440" height="1315" viewBox="0 0 1440 1315" fill="none" xmlns="http://www.w3.org/2000/svg">
<g id="mainSite__emoji--">
<g id="a">
<g id="dot04">
<path id="Vector" d="M1038.37 221.508L1038.43 221.449C1038.53 221.345 1039.13 220.71 1039.92 219.691C1039.99 219.602 1040.05 219.514 1040.13 219.425C1040.23 219.292 1040.32 219.159 1040.43 219.026C1042.93 215.659 1044.69 211.907 1045.68 207.964V207.934C1045.79 207.506 1045.88 207.078 1045.97 206.634C1046.39 204.552 1046.61 202.44 1046.61 200.313C1046.61 199.309 1046.55 198.142 1046.45 197.196C1046.39 196.547 1046.29 195.897 1046.18 195.247V195.143L1046.15 195.055C1046.14 194.951 1046.12 194.833 1046.09 194.73C1046.02 194.316 1045.93 193.873 1045.82 193.415V193.356C1045.76 193.135 1045.7 192.898 1045.65 192.662C1045.62 192.559 1045.59 192.441 1045.56 192.337C1045.53 192.249 1045.51 192.16 1045.48 192.057C1045.47 191.983 1045.44 191.909 1045.42 191.835C1045.03 190.476 1044.56 189.132 1043.98 187.818C1043.83 187.478 1043.71 187.212 1043.65 187.064L1043.54 186.828L1043.44 186.606V186.577L1043.39 186.533C1043.33 186.429 1043.26 186.282 1043.21 186.163L1043.18 186.119L1043.15 186.075L1043.02 185.824C1042.98 185.72 1042.9 185.602 1042.84 185.499L1042.69 185.218L1042.6 185.056L1042.57 185.011L1042.54 184.952L1042.5 184.864L1042.32 184.553C1042.28 184.48 1042.22 184.376 1042.17 184.302C1042.13 184.229 1042.08 184.14 1042.02 184.066L1041.93 183.904C1041.87 183.815 1041.81 183.697 1041.75 183.623L1041.62 183.416C1041.56 183.328 1041.5 183.239 1041.44 183.15L1041.41 183.106C1041.41 183.106 1041.32 182.973 1041.28 182.899L1041.2 182.781L1041.1 182.633V182.604L1041.05 182.56L1040.99 182.486C1040.99 182.486 1040.89 182.338 1040.84 182.279L1040.75 182.146C1040.69 182.072 1040.63 181.984 1040.59 181.91L1040.44 181.703C1040.44 181.703 1040.38 181.629 1040.35 181.585C1040.31 181.526 1040.26 181.467 1040.22 181.407L1040.08 181.23C1040.01 181.142 1039.93 181.038 1039.86 180.95L1039.65 180.699L1039.59 180.61C1039.53 180.521 1039.47 180.447 1039.4 180.359C1039.31 180.241 1039.2 180.137 1039.11 180.019L1038.92 179.783C1038.85 179.694 1038.77 179.62 1038.7 179.532C1038.62 179.443 1038.53 179.354 1038.46 179.266C1038.41 179.207 1038.35 179.162 1038.31 179.103L1038.17 178.956C1038.17 178.956 1038.1 178.882 1038.07 178.852L1037.95 178.734C1037.52 178.276 1037.06 177.833 1036.59 177.39C1036.49 177.287 1036.38 177.198 1036.3 177.109C1036.19 177.021 1036.09 176.917 1035.98 176.829C1035.92 176.77 1035.85 176.711 1035.79 176.666C1035.62 176.533 1035.48 176.401 1035.33 176.268C1035.27 176.223 1035.22 176.179 1035.16 176.135C1034.94 175.943 1034.71 175.765 1034.51 175.603C1034.4 175.529 1034.3 175.44 1034.19 175.367L1034.13 175.322C1033.97 175.189 1033.81 175.071 1033.64 174.968C1033.52 174.879 1033.39 174.791 1033.27 174.702C1032.98 174.495 1032.76 174.347 1032.6 174.244C1031.82 173.727 1031.02 173.24 1030.2 172.797C1029.7 172.516 1029.27 172.294 1028.71 172.029C1026.36 170.906 1023.87 170.064 1021.28 169.533C1021.03 169.473 1020.76 169.429 1020.5 169.385H1020.4C1019.95 169.281 1019.49 169.222 1019.04 169.163H1018.89L1018.86 169.134H1018.77C1018.65 169.104 1018.52 169.089 1018.4 169.075C1018.15 169.045 1017.89 169.016 1017.66 169.001C1017.52 169.001 1017.39 168.971 1017.24 168.971C1016.95 168.956 1016.69 168.927 1016.43 168.927H1016.36C1016.36 168.927 1016.24 168.927 1016.18 168.927C1014.84 168.868 1013.94 168.912 1013.88 168.912C1013.43 168.912 1012.97 168.956 1012.51 168.986C1012.18 169.016 1011.85 169.03 1011.5 169.075H1011.36C1010.66 169.163 1009.89 169.267 1008.98 169.444H1008.9C1008.5 169.533 1008.05 169.636 1007.59 169.754C1007.19 169.843 1006.8 169.946 1006.46 170.02L1005.2 170.419C1004.8 170.537 1004.4 170.67 1004.04 170.788C1003.35 171.01 1002.5 171.364 1001.62 171.778H1001.61C1000.85 172.132 1000.06 172.531 999.328 172.944H999.298L999.268 172.974C998.314 173.506 997.434 174.037 996.808 174.495C994.422 176.238 994.228 176.386 992.811 177.715C991.037 179.399 989.978 180.787 989.456 181.452C987.98 183.387 987.07 185.07 986.772 185.632C985.713 187.611 985.236 188.911 984.789 190.166C984.505 190.949 984.326 191.51 984.162 192.189C983.939 193.002 983.76 193.844 983.596 194.715L983.536 195.025C983.357 195.897 983.193 197.093 983.163 197.979C983.133 198.644 983.074 199.53 983.074 200.195C983.074 200.859 983.074 201.731 983.133 202.395C983.178 203.134 983.208 203.444 983.282 204.094C983.372 204.906 983.491 205.689 983.64 206.457C983.685 206.723 983.745 206.959 983.804 207.21C983.864 207.506 983.939 207.786 983.998 208.038C984.028 208.17 984.088 208.362 984.147 208.569L984.177 208.658C984.237 208.879 984.311 209.131 984.401 209.411C984.416 209.47 984.431 209.529 984.461 209.588C984.714 210.415 985.057 211.42 985.504 212.483C985.609 212.72 985.728 213.03 985.907 213.399C985.952 213.502 985.997 213.606 986.041 213.709L986.295 214.241C986.354 214.344 986.429 214.492 986.474 214.61L986.533 214.743V214.773L986.653 214.965C986.697 215.068 986.772 215.186 986.832 215.29L987.01 215.614V215.644C987.711 216.87 988.427 217.992 989.188 218.997L989.262 219.1C989.322 219.189 989.396 219.277 989.471 219.381V219.41C989.561 219.499 989.62 219.588 989.68 219.661L990.112 220.208C990.306 220.459 990.589 220.769 990.783 221.005C990.977 221.227 991.216 221.493 991.439 221.729C991.559 221.862 991.663 221.98 991.767 222.098C992.066 222.409 992.483 222.822 992.796 223.132C993.11 223.443 993.572 223.841 993.9 224.137C994.631 224.742 995.63 225.54 996.405 226.101C997.017 226.544 997.837 227.091 998.493 227.46C998.657 227.549 998.836 227.652 999.015 227.741C999.537 228.021 1000.07 228.317 1000.52 228.553L1001.07 228.804C1001.51 229.011 1001.95 229.218 1002.4 229.41L1002.62 229.513C1003.15 229.749 1003.8 229.986 1004.41 230.192C1004.67 230.281 1004.93 230.37 1005.19 230.443C1005.89 230.665 1006.78 230.931 1007.47 231.079H1007.54C1008.17 231.241 1008.8 231.359 1009.44 231.477C1009.57 231.507 1009.72 231.536 1009.84 231.551L1010.57 231.64C1010.77 231.669 1010.96 231.684 1011.15 231.714L1012.26 231.847C1012.67 231.891 1013.46 231.965 1014.72 231.95H1014.91C1015.57 231.95 1016.33 231.92 1017.24 231.861H1017.3C1018.19 231.802 1019.76 231.655 1021.73 231.211H1021.77C1022.22 231.093 1022.7 230.975 1023.19 230.842C1023.4 230.783 1023.61 230.724 1023.83 230.665C1024.13 230.576 1024.43 230.488 1024.68 230.399L1024.93 230.31C1025.38 230.163 1025.83 230 1026.29 229.823C1026.93 229.587 1027.56 229.336 1028.08 229.07C1028.97 228.656 1029.9 228.184 1030.84 227.652C1031.4 227.327 1031.97 226.987 1032.46 226.648C1033.01 226.293 1033.55 225.909 1034.1 225.496C1034.22 225.407 1034.34 225.318 1034.46 225.215C1035.19 224.654 1035.91 224.033 1036.62 223.369L1036.7 223.295L1036.74 223.251C1037.29 222.734 1037.85 222.172 1038.4 221.582L1038.37 221.508Z" fill="url(#paint0_radial_241_14)"/>
<g id="Group">
<g id="Group_2">
<path id="Vector_2" d="M1044.27 212.468C1044.36 212.276 1044.45 212.084 1044.54 211.877C1044.45 212.069 1044.36 212.261 1044.27 212.468Z" fill="url(#paint1_linear_241_14)"/>
<path id="Vector_3" d="M988.904 181.673C989.008 181.526 989.113 181.363 989.217 181.23C989.113 181.378 989.008 181.526 988.904 181.673Z" fill="url(#paint2_linear_241_14)"/>
</g>
</g>
</g>
</g>
</g>
<defs>
<radialGradient id="paint0_radial_241_14" cx="0" cy="0" r="1" gradientUnits="userSpaceOnUse" gradientTransform="translate(1012.51 205.148) rotate(44.9052) scale(36.3747 36.3752)">
<stop stop-color="#F79F40"/>
<stop offset="0.16" stop-color="#F7A442"/>
<stop offset="0.37" stop-color="#F8B449"/>
<stop offset="0.6" stop-color="#F9CE55"/>
<stop offset="0.77" stop-color="#FBE660"/>
<stop offset="0.91" stop-color="#FBF36F"/>
<stop offset="0.93" stop-color="#FBF672"/>
<stop offset="0.95" stop-color="#FBF676"/>
<stop offset="0.96" stop-color="#FBF782"/>
<stop offset="0.98" stop-color="#FBF897"/>
<stop offset="0.99" stop-color="#FCFAB4"/>
<stop offset="1" stop-color="#FDFBC2"/>
</radialGradient>
<linearGradient id="paint1_linear_241_14" x1="1044.25" y1="212.215" x2="1044.42" y2="212.385" gradientUnits="userSpaceOnUse">
<stop stop-color="#19B79C"/>
<stop offset="0.4" stop-color="#1DBB9D"/>
<stop offset="0.82" stop-color="#29C7A2"/>
<stop offset="1" stop-color="#31CFA6"/>
</linearGradient>
<linearGradient id="paint2_linear_241_14" x1="988.943" y1="181.545" x2="989.015" y2="181.62" gradientUnits="userSpaceOnUse">
<stop stop-color="#19B79C"/>
<stop offset="0.4" stop-color="#1DBB9D"/>
<stop offset="0.82" stop-color="#29C7A2"/>
<stop offset="1" stop-color="#31CFA6"/>
</linearGradient>
</defs>
</svg>
