<svg width="1440" height="1315" viewBox="0 0 1440 1315" fill="none" xmlns="http://www.w3.org/2000/svg">
<g id="mainSite__emoji--">
<g id="a">
<g id="dot01">
<g id="Group">
<path id="Vector" d="M433.432 153.729L433.492 153.64C433.596 153.478 434.223 152.518 435.043 151.011C435.118 150.878 435.192 150.745 435.252 150.613C435.356 150.421 435.46 150.229 435.565 150.022C438.07 145.089 439.517 139.801 439.919 134.44V134.395C439.964 133.819 439.994 133.228 440.009 132.638C440.098 129.831 439.904 127.025 439.412 124.263C439.203 122.963 438.86 121.457 438.503 120.231C438.264 119.404 438.01 118.577 437.712 117.75L437.667 117.631L437.623 117.528C437.578 117.395 437.518 117.247 437.474 117.115C437.28 116.583 437.071 116.036 436.817 115.446L436.788 115.372C436.668 115.091 436.549 114.796 436.4 114.5C436.34 114.367 436.281 114.234 436.221 114.101C436.161 113.983 436.117 113.88 436.057 113.762C436.012 113.673 435.967 113.585 435.923 113.496C435.117 111.812 434.178 110.173 433.134 108.578C432.866 108.164 432.657 107.854 432.523 107.677L432.329 107.396L432.135 107.13L432.105 107.086L432.06 107.027C431.971 106.894 431.837 106.717 431.732 106.584L431.688 106.525L431.643 106.465L431.419 106.17C431.33 106.052 431.21 105.904 431.121 105.786L430.853 105.461C430.853 105.461 430.748 105.343 430.703 105.284L430.659 105.225L430.599 105.166L430.51 105.062L430.211 104.708C430.137 104.619 430.047 104.501 429.958 104.412C429.883 104.324 429.794 104.22 429.719 104.132C429.719 104.132 429.615 103.999 429.57 103.94C429.481 103.836 429.361 103.703 429.272 103.6L429.063 103.364C428.974 103.26 428.869 103.157 428.78 103.054L428.735 102.995C428.66 102.921 428.586 102.832 428.511 102.758L428.377 102.625L428.213 102.463L428.183 102.433L428.124 102.374L428.034 102.286C427.96 102.197 427.87 102.123 427.796 102.034L427.646 101.872C427.557 101.783 427.468 101.695 427.378 101.606L427.139 101.385C427.139 101.385 427.05 101.296 426.99 101.252C426.916 101.178 426.841 101.119 426.782 101.045L426.573 100.853C426.453 100.75 426.334 100.646 426.23 100.543L425.902 100.262C425.902 100.262 425.827 100.203 425.797 100.173H425.768C425.678 100.07 425.574 99.9815 425.469 99.8929C425.32 99.7599 425.171 99.6418 425.022 99.5088C424.918 99.4202 424.813 99.3316 424.709 99.243C424.589 99.1396 424.47 99.051 424.351 98.9624C424.232 98.859 424.112 98.7703 423.978 98.667C423.904 98.6079 423.829 98.5488 423.754 98.4897L423.546 98.3273C423.546 98.3273 423.441 98.2534 423.382 98.2091C423.322 98.1648 423.262 98.1205 423.203 98.0762C422.532 97.574 421.831 97.0866 421.13 96.6287C420.966 96.5253 420.817 96.4219 420.682 96.3333C420.518 96.2299 420.369 96.1265 420.205 96.0379C420.101 95.9788 420.011 95.9198 419.922 95.8607C419.683 95.713 419.46 95.5801 419.221 95.4471C419.147 95.4028 419.057 95.3585 418.982 95.2994C418.64 95.1074 418.311 94.9302 417.998 94.7529C417.849 94.6643 417.685 94.5905 417.536 94.5166C417.536 94.5166 417.476 94.4871 417.447 94.4723C417.193 94.3394 416.954 94.2212 416.731 94.1178C416.552 94.0292 416.373 93.9406 416.179 93.852C415.761 93.66 415.433 93.4975 415.21 93.3941C414.076 92.8919 412.928 92.4341 411.75 92.0353C411.049 91.7842 410.423 91.5922 409.633 91.3707C406.322 90.4254 402.892 89.8789 399.403 89.7607C399.06 89.7607 398.702 89.746 398.359 89.7312C398.314 89.7312 398.269 89.7312 398.225 89.7312C397.628 89.7312 397.017 89.7312 396.405 89.7607C396.361 89.7607 396.316 89.7607 396.256 89.7607H396.033C395.869 89.7755 395.705 89.7903 395.526 89.7903C395.183 89.8051 394.855 89.8346 394.526 89.8641C394.348 89.8789 394.169 89.8937 393.975 89.9084C393.602 89.938 393.244 89.9823 392.916 90.0266H392.826C392.752 90.0414 392.662 90.0561 392.588 90.0709C390.813 90.2924 389.665 90.5435 389.591 90.5583C389.009 90.6765 388.412 90.8094 387.831 90.9571C387.413 91.0605 386.981 91.1639 386.519 91.2968L386.429 91.3263L386.355 91.3559C385.445 91.607 384.461 91.9171 383.327 92.3455H383.283L383.238 92.375C382.716 92.567 382.164 92.8033 381.598 93.0396C381.105 93.2464 380.613 93.468 380.196 93.6452L378.66 94.4428C378.153 94.6939 377.676 94.945 377.228 95.1813C376.378 95.6244 375.364 96.2742 374.291 96.998H374.276C373.366 97.6331 372.427 98.3273 371.562 99.0214L371.532 99.051L371.502 99.0805C370.369 99.9815 369.355 100.868 368.639 101.606C365.925 104.412 365.701 104.634 364.165 106.687C362.242 109.272 361.168 111.325 360.646 112.3C359.155 115.135 358.349 117.543 358.096 118.34C357.156 121.147 356.843 122.949 356.53 124.691C356.336 125.77 356.232 126.538 356.157 127.453C356.053 128.561 356.008 129.713 355.993 130.865V131.279C355.934 132.46 355.993 134.041 356.157 135.222C356.262 136.094 356.381 137.261 356.53 138.117C356.679 138.974 356.888 140.111 357.097 140.968C357.321 141.913 357.425 142.312 357.678 143.139C357.977 144.173 358.32 145.177 358.692 146.152C358.812 146.477 358.931 146.787 359.065 147.097C359.214 147.467 359.363 147.821 359.513 148.131C359.587 148.294 359.692 148.53 359.826 148.781L359.885 148.899C360.02 149.165 360.169 149.475 360.333 149.83C360.378 149.904 360.407 149.977 360.452 150.051C360.974 151.07 361.645 152.311 362.465 153.581C362.644 153.862 362.883 154.231 363.196 154.689C363.285 154.822 363.36 154.94 363.449 155.058L363.897 155.693C363.986 155.826 364.12 156.004 364.225 156.136L364.344 156.284L364.374 156.314L364.553 156.55C364.642 156.668 364.762 156.816 364.851 156.934L365.149 157.303L365.179 157.333C366.342 158.795 367.535 160.08 368.743 161.232L368.863 161.335C368.967 161.439 369.086 161.542 369.206 161.66L369.235 161.69C369.34 161.793 369.444 161.882 369.534 161.971L370.22 162.591C370.533 162.872 370.965 163.226 371.278 163.492C371.577 163.743 371.949 164.024 372.292 164.304H372.307C372.486 164.452 372.665 164.585 372.814 164.703C373.277 165.043 373.918 165.486 374.38 165.811C374.857 166.15 375.543 166.549 376.035 166.874C377.124 167.509 378.6 168.322 379.734 168.868C380.613 169.296 381.821 169.843 382.761 170.168C382.999 170.256 383.238 170.33 383.491 170.419C384.222 170.67 384.998 170.936 385.639 171.157L386.429 171.364C387.055 171.541 387.667 171.704 388.293 171.852L388.606 171.94C389.337 172.132 390.262 172.295 391.097 172.428C391.455 172.487 391.812 172.546 392.17 172.59C393.14 172.738 394.348 172.885 395.287 172.9H395.391C396.241 172.959 397.091 172.974 397.956 172.974C398.135 172.974 398.329 172.974 398.493 172.974L399.462 172.93C399.716 172.93 399.984 172.9 400.238 172.885L401.699 172.812C402.266 172.782 403.295 172.693 404.935 172.413H405.01L405.174 172.369C406.024 172.221 407.008 172.014 408.186 171.748C408.216 171.748 408.246 171.748 408.261 171.733C409.409 171.468 411.422 170.921 413.897 169.902L413.957 169.872C414.524 169.636 415.12 169.385 415.732 169.104C415.985 168.986 416.254 168.853 416.522 168.72C416.895 168.543 417.253 168.366 417.566 168.203C417.67 168.144 417.775 168.085 417.879 168.026C418.431 167.731 418.982 167.421 419.549 167.096C420.325 166.638 421.1 166.165 421.711 165.722C422.8 164.984 423.889 164.171 424.977 163.27C425.648 162.724 426.304 162.163 426.871 161.601C427.497 161.011 428.124 160.39 428.75 159.74C428.899 159.593 429.033 159.445 429.168 159.297C429.988 158.396 430.778 157.451 431.568 156.417L431.658 156.314L431.703 156.24C432.314 155.428 432.896 154.586 433.477 153.699L433.432 153.729Z" fill="url(#paint0_radial_241_14)"/>
</g>
</g>
</g>
</g>
<defs>
<radialGradient id="paint0_radial_241_14" cx="0" cy="0" r="1" gradientUnits="userSpaceOnUse" gradientTransform="translate(399.226 135.942) rotate(35.2007) scale(46.0947 45.9485)">
<stop offset="0.7" stop-color="#DC3BEE"/>
<stop offset="0.74" stop-color="#DC3FEE"/>
<stop offset="0.78" stop-color="#DE4BEF"/>
<stop offset="0.83" stop-color="#E260F1"/>
<stop offset="0.87" stop-color="#E77DF3"/>
<stop offset="0.92" stop-color="#EEA3F7"/>
<stop offset="0.96" stop-color="#F6D0FB"/>
<stop offset="1" stop-color="white"/>
</radialGradient>
</defs>
</svg>
