<svg width="1440" height="1315" viewBox="0 0 1440 1315" fill="none" xmlns="http://www.w3.org/2000/svg">
<g id="mainSite__emoji--">
<g id="a">
<g id="dot05">
<g id="Group">
<g id="Group_2">
<path id="Vector" d="M453.176 447.102C453.087 446.866 452.998 446.645 452.923 446.408C452.177 444.326 451.536 441.8 451.283 438.876C451.119 437.458 451.044 435.538 451.283 433.219C451.327 432.658 451.402 432.023 451.506 431.402C451.536 431.254 451.551 431.092 451.581 430.944C451.581 430.885 451.596 430.826 451.611 430.767C451.641 430.59 451.67 430.427 451.7 430.265C451.864 429.393 452.058 428.566 452.282 427.784C452.356 427.532 452.431 427.267 452.505 427.016L452.535 426.927C452.595 426.75 452.655 426.572 452.699 426.395C453.176 424.933 453.728 423.633 454.31 422.466C454.414 422.245 454.533 422.023 454.653 421.802C454.698 421.698 454.757 421.61 454.802 421.521C454.847 421.433 454.891 421.344 454.951 421.255C454.981 421.211 454.996 421.181 455.011 421.137C455.041 421.093 455.055 421.048 455.085 421.004C455.13 420.93 455.175 420.842 455.219 420.768C456.055 419.32 456.8 418.257 457.441 417.415C457.456 417.386 457.471 417.371 457.501 417.341L457.471 417.371C457.531 417.282 457.605 417.194 457.665 417.12C457.933 416.765 458.247 416.381 458.59 415.997C458.769 415.776 458.948 415.569 459.112 415.392C459.559 414.904 460.155 414.254 460.633 413.811C460.856 413.575 461.095 413.353 461.319 413.147V413.117C461.483 412.999 461.617 412.866 461.736 412.763C461.915 412.6 462.094 412.467 462.258 412.319C462.78 411.862 463.347 411.419 463.943 410.99H463.958C464.435 410.636 464.912 410.296 465.434 409.971C468.029 408.287 470.833 407.017 473.845 406.16C475.381 405.703 477.23 405.319 479.273 405.112L479.497 405.082H479.526C480.078 405.023 480.615 404.979 481.226 404.964C481.629 404.935 482.091 404.935 482.479 404.935C482.479 404.935 482.494 404.935 482.509 404.935C482.554 404.935 482.598 404.935 482.628 404.935C483.269 404.935 483.568 404.935 484.045 404.964H484.209C484.746 404.994 485.118 405.023 485.596 405.067C485.894 405.097 486.207 405.127 486.505 405.171H486.565C486.953 405.23 487.355 405.289 487.743 405.348H487.788C488.131 405.407 488.474 405.481 488.817 405.54C489.055 405.584 489.294 405.644 489.532 405.688C489.622 405.703 489.711 405.732 489.801 405.747C492.187 406.293 494.006 407.002 495.139 407.505C495.259 407.564 495.348 407.593 495.393 407.623C495.915 407.859 496.392 408.081 496.765 408.273C496.884 408.332 497.018 408.406 497.153 408.465H497.182L497.212 408.494C497.839 408.819 498.629 409.247 499.598 409.868C504.191 412.733 507.845 416.662 510.35 421.388C510.424 421.521 510.499 421.654 510.574 421.802L510.603 421.861C510.991 422.585 511.349 423.353 511.617 424.002L511.662 424.135C511.871 424.652 512.095 425.243 512.303 425.834C512.333 425.923 512.378 426.026 512.408 426.115L512.497 426.425C512.572 426.631 512.631 426.838 512.691 427.045C512.855 427.532 512.989 428.02 513.094 428.463C513.198 428.862 513.288 429.246 513.362 429.615L513.392 429.748C513.422 429.881 513.452 430.014 513.467 430.132C513.511 430.353 513.556 430.546 513.586 430.752V430.841C514.555 436.025 514.138 441.283 512.378 446.261C512.333 446.394 512.288 446.512 512.244 446.645C512.229 446.704 512.199 446.763 512.184 446.807C512.11 446.984 512.05 447.162 511.975 447.339C510.454 451.312 508.203 454.679 505.593 457.441C501.149 462.242 495.796 465.166 490.442 466.348H490.427L490.278 466.392C490.025 466.451 489.771 466.51 489.503 466.569C489.398 466.599 489.294 466.613 489.204 466.628C489.055 466.658 488.921 466.687 488.802 466.717C488.638 466.746 488.474 466.776 488.339 466.806H488.325C487.698 466.924 487.296 466.983 487.266 466.983C486.744 467.071 486.401 467.116 485.819 467.16H485.715C485.715 467.16 485.625 467.175 485.596 467.175H485.476C485.253 467.204 485.014 467.219 484.761 467.249H484.656L484.239 467.278H484.194C483.761 467.308 483.225 467.322 482.762 467.322H482.747C482.747 467.322 482.658 467.322 482.613 467.322H482.315C481.838 467.322 481.569 467.322 481.137 467.293C481.092 467.293 481.047 467.293 481.018 467.293H480.988C480.689 467.278 480.391 467.263 480.078 467.234C479.959 467.234 479.84 467.204 479.72 467.204C479.586 467.204 479.437 467.175 479.303 467.16C479.154 467.16 478.99 467.13 478.825 467.101C478.214 467.027 477.632 466.938 477.066 466.835H477.021C473.86 466.259 471.459 465.358 470.087 464.752C469.968 464.693 469.878 464.664 469.833 464.634C469.476 464.472 469.133 464.309 468.775 464.132C468.67 464.088 468.566 464.029 468.461 463.984C468.044 463.792 467.388 463.438 466.642 463.01C465.226 462.197 463.913 461.282 462.72 460.307C462.541 460.159 462.347 460.011 462.183 459.864C462.049 459.76 461.915 459.642 461.781 459.509C459.141 457.235 457.322 454.901 456.099 452.937C455.995 452.774 455.905 452.626 455.816 452.464L455.771 452.39C454.653 450.603 453.833 448.86 453.206 447.235L453.176 447.147V447.102Z" fill="url(#paint0_radial_241_14)"/>
</g>
</g>
</g>
</g>
</g>
<defs>
<radialGradient id="paint0_radial_241_14" cx="0" cy="0" r="1" gradientUnits="userSpaceOnUse" gradientTransform="translate(466.18 436.27) rotate(-152.267) scale(37.9145 37.7101)">
<stop offset="0.04" stop-color="#BDDFE7"/>
<stop offset="0.32" stop-color="#C0E0E8"/>
<stop offset="0.54" stop-color="#C9E5EB"/>
<stop offset="0.73" stop-color="#DAEDF1"/>
<stop offset="0.91" stop-color="#F0F8F9"/>
<stop offset="0.99" stop-color="white"/>
</radialGradient>
</defs>
</svg>
