<svg width="1440" height="1315" viewBox="0 0 1440 1315" fill="none" xmlns="http://www.w3.org/2000/svg">
<path d="M405.368 331.086C405.74 330.997 406.113 330.894 406.471 330.805C406.963 330.672 407.441 330.524 407.903 330.377C408.261 330.259 408.604 330.14 408.962 330.022C409.424 329.86 409.871 329.683 410.319 329.491C410.647 329.358 410.99 329.21 411.303 329.062C411.735 328.855 412.168 328.649 412.585 328.412C412.884 328.25 413.197 328.102 413.495 327.925C413.927 327.674 414.33 327.408 414.748 327.142C415.016 326.965 415.284 326.802 415.553 326.61C415.985 326.3 416.403 325.961 416.82 325.621C417.029 325.458 417.238 325.296 417.447 325.119C418.043 324.602 418.625 324.04 419.177 323.464L426.006 316.198C425.455 316.788 424.873 317.335 424.277 317.852C424.083 318.029 423.859 318.177 423.65 318.354C423.233 318.694 422.815 319.033 422.383 319.344C422.129 319.521 421.846 319.698 421.577 319.875C421.175 320.141 420.757 320.407 420.325 320.658C420.027 320.835 419.728 320.983 419.415 321.146C418.998 321.367 418.565 321.589 418.133 321.795C417.805 321.943 417.477 322.091 417.148 322.224C416.701 322.401 416.254 322.593 415.791 322.755C415.448 322.888 415.091 323.007 414.733 323.11C414.255 323.258 413.778 323.405 413.301 323.538C412.928 323.642 412.57 323.73 412.198 323.834C411.691 323.952 411.183 324.055 410.662 324.159C410.289 324.232 409.901 324.306 409.528 324.38C409.036 324.469 408.529 324.528 408.037 324.587C407.56 324.646 407.083 324.72 406.605 324.764C406.098 324.808 405.576 324.853 405.069 324.882C404.577 324.912 404.085 324.956 403.578 324.971C403.056 324.986 402.519 324.986 401.968 325.001C401.446 325.001 400.939 325.001 400.402 325.001C399.85 325.001 399.298 324.956 398.732 324.941C398.195 324.912 397.658 324.897 397.106 324.853C396.54 324.808 395.958 324.749 395.376 324.705C394.825 324.646 394.273 324.602 393.706 324.543C393.11 324.469 392.513 324.395 391.917 324.306C391.35 324.232 390.783 324.159 390.202 324.055C389.59 323.952 388.964 323.848 388.353 323.73C387.771 323.627 387.175 323.524 386.593 323.405C385.967 323.272 385.325 323.14 384.684 322.992C384.088 322.859 383.476 322.726 382.865 322.593C382.283 322.46 381.687 322.298 381.09 322.15C380.375 321.973 379.644 321.781 378.913 321.574C378.317 321.411 377.705 321.219 377.094 321.042C376.363 320.835 375.632 320.614 374.887 320.378C374.26 320.186 373.634 319.979 373.008 319.772C372.262 319.536 371.517 319.285 370.771 319.033C370.13 318.812 369.489 318.576 368.847 318.354C368.087 318.088 367.341 317.808 366.566 317.512C365.91 317.261 365.253 317.01 364.597 316.759C363.837 316.464 363.061 316.153 362.286 315.843C361.615 315.577 360.959 315.297 360.288 315.016C359.512 314.691 358.722 314.351 357.946 314.012C357.275 313.716 356.589 313.421 355.918 313.111C355.128 312.756 354.338 312.387 353.532 312.018C352.846 311.693 352.16 311.383 351.474 311.043C350.669 310.659 349.864 310.26 349.059 309.861C348.358 309.522 347.672 309.167 346.971 308.813C346.166 308.399 345.345 307.971 344.525 307.557C343.824 307.188 343.123 306.819 342.423 306.45C341.602 306.006 340.767 305.549 339.932 305.091C339.231 304.707 338.53 304.323 337.815 303.924C336.965 303.451 336.115 302.964 335.265 302.462C334.564 302.063 333.878 301.664 333.177 301.251C332.312 300.734 331.432 300.217 330.567 299.685C329.881 299.271 329.195 298.858 328.509 298.444C327.615 297.898 326.705 297.322 325.81 296.761C325.139 296.347 324.483 295.933 323.812 295.505C322.872 294.9 321.933 294.279 320.993 293.659C320.352 293.245 319.726 292.832 319.085 292.403C318.041 291.709 316.997 290.986 315.953 290.277C315.416 289.907 314.879 289.553 314.357 289.184C312.777 288.091 311.196 286.968 309.615 285.816C307.975 284.634 306.364 283.438 304.754 282.242C304.217 281.828 303.68 281.415 303.143 281.016C302.1 280.218 301.041 279.421 300.012 278.623C299.385 278.136 298.774 277.634 298.148 277.146C297.223 276.408 296.299 275.684 295.389 274.945C294.748 274.414 294.106 273.897 293.465 273.365C292.6 272.656 291.735 271.947 290.885 271.223C290.229 270.677 289.588 270.116 288.947 269.569C288.127 268.875 287.306 268.166 286.516 267.472C285.875 266.911 285.234 266.335 284.592 265.759C283.817 265.064 283.041 264.37 282.266 263.676C281.625 263.1 281.013 262.524 280.387 261.933C279.641 261.239 278.896 260.545 278.165 259.851C277.539 259.26 276.942 258.669 276.331 258.078C275.615 257.384 274.899 256.705 274.213 256.01C273.617 255.42 273.02 254.814 272.424 254.223C271.738 253.529 271.067 252.85 270.396 252.156C269.814 251.55 269.248 250.959 268.666 250.354C268.01 249.674 267.369 248.98 266.727 248.286C266.176 247.68 265.624 247.09 265.072 246.484C264.446 245.79 263.834 245.11 263.223 244.416C262.686 243.811 262.164 243.22 261.642 242.614C261.046 241.92 260.449 241.241 259.868 240.546C259.361 239.956 258.869 239.35 258.376 238.759C257.81 238.065 257.243 237.371 256.691 236.677C256.214 236.086 255.737 235.495 255.275 234.904C254.738 234.21 254.216 233.516 253.679 232.837C253.232 232.246 252.784 231.655 252.352 231.079C251.845 230.385 251.338 229.691 250.846 228.996C250.428 228.42 250.011 227.844 249.608 227.254C249.101 226.515 248.594 225.777 248.102 225.038C247.759 224.536 247.416 224.034 247.103 223.532C246.581 222.734 246.089 221.951 245.611 221.168C245.328 220.725 245.045 220.282 244.776 219.839C244.18 218.85 243.613 217.875 243.047 216.885C242.912 216.649 242.763 216.413 242.629 216.176C241.943 214.965 241.302 213.754 240.69 212.558C240.511 212.218 240.362 211.878 240.183 211.524C239.766 210.667 239.333 209.825 238.946 208.983C238.737 208.54 238.558 208.097 238.349 207.639C238.021 206.915 237.708 206.177 237.41 205.453C237.216 204.966 237.037 204.493 236.843 204.021C236.575 203.341 236.321 202.662 236.082 201.997C235.903 201.51 235.739 201.022 235.59 200.535C235.337 199.796 235.098 199.058 234.875 198.319C234.815 198.127 234.755 197.935 234.71 197.743C234.427 196.739 234.159 195.749 233.935 194.76C233.89 194.583 233.86 194.405 233.816 194.213C233.592 193.194 233.383 192.19 233.234 191.2C233.234 191.156 233.234 191.112 233.219 191.053C233.07 190.078 232.951 189.133 232.861 188.187C232.861 188.04 232.832 187.877 232.817 187.729C232.742 186.799 232.697 185.868 232.682 184.953C232.682 184.775 232.682 184.598 232.682 184.421C232.682 183.505 232.712 182.604 232.772 181.718C232.772 181.6 232.802 181.497 232.802 181.378C232.876 180.522 232.981 179.665 233.115 178.823C233.13 178.735 233.145 178.646 233.16 178.543C233.309 177.686 233.503 176.844 233.711 176.002C233.756 175.84 233.801 175.677 233.846 175.53C234.069 174.717 234.338 173.92 234.636 173.137C234.681 173.004 234.74 172.871 234.8 172.738C235.128 171.926 235.471 171.128 235.874 170.345C236.977 168.204 238.319 166.313 239.87 164.659L233.04 171.926C231.489 173.58 230.147 175.47 229.044 177.612C228.641 178.395 228.298 179.192 227.97 180.005C227.91 180.138 227.866 180.271 227.806 180.404C227.508 181.186 227.254 181.984 227.016 182.796C226.971 182.959 226.926 183.106 226.881 183.269C226.658 184.096 226.479 184.938 226.33 185.809C226.315 185.898 226.3 185.987 226.285 186.09C226.151 186.932 226.046 187.774 225.972 188.645C225.972 188.763 225.942 188.867 225.942 188.985C225.882 189.871 225.853 190.772 225.853 191.688C225.853 191.865 225.853 192.042 225.853 192.219C225.853 193.135 225.912 194.051 225.987 194.996C225.987 195.144 226.017 195.306 226.031 195.454C226.121 196.399 226.24 197.359 226.389 198.319C226.389 198.364 226.389 198.408 226.404 198.467C226.568 199.457 226.762 200.461 226.986 201.48C227.031 201.657 227.06 201.835 227.105 202.027C227.329 203.016 227.597 204.006 227.881 205.01C227.94 205.202 228 205.394 228.045 205.586C228.134 205.911 228.224 206.221 228.328 206.546C228.462 206.96 228.611 207.373 228.76 207.802C228.924 208.289 229.089 208.776 229.267 209.279C229.506 209.943 229.774 210.623 230.028 211.302C230.222 211.775 230.401 212.262 230.595 212.75C230.893 213.473 231.221 214.197 231.534 214.921C231.728 215.364 231.922 215.822 232.131 216.265C232.518 217.107 232.951 217.963 233.368 218.82C233.532 219.16 233.696 219.499 233.875 219.839C234.487 221.035 235.143 222.247 235.814 223.458C235.948 223.694 236.097 223.945 236.232 224.181C236.783 225.156 237.35 226.131 237.946 227.121C238.215 227.564 238.498 228.007 238.782 228.45C239.274 229.248 239.766 230.03 240.288 230.828C240.616 231.33 240.959 231.832 241.287 232.334C241.66 232.896 242.018 233.457 242.405 234.018C242.525 234.195 242.659 234.373 242.778 234.55C243.181 235.126 243.598 235.702 244.001 236.278C244.493 236.972 245 237.666 245.507 238.361C245.94 238.951 246.387 239.542 246.834 240.118C247.356 240.812 247.878 241.492 248.43 242.186C248.892 242.777 249.369 243.367 249.847 243.958C250.398 244.652 250.965 245.347 251.532 246.026C252.024 246.617 252.516 247.222 253.023 247.813C253.604 248.507 254.201 249.202 254.797 249.881C255.319 250.472 255.841 251.077 256.363 251.668C256.975 252.362 257.586 253.042 258.212 253.736C258.764 254.342 259.301 254.932 259.868 255.538C260.509 256.232 261.15 256.911 261.806 257.606C262.373 258.196 262.94 258.802 263.521 259.393C264.192 260.087 264.878 260.781 265.564 261.461C266.146 262.051 266.742 262.642 267.339 263.233C268.04 263.927 268.755 264.621 269.471 265.316C270.083 265.906 270.679 266.482 271.305 267.073C272.036 267.767 272.782 268.462 273.542 269.156C274.169 269.732 274.78 270.308 275.421 270.884C276.182 271.578 276.972 272.272 277.748 272.966C278.389 273.528 279.015 274.104 279.671 274.665C280.477 275.374 281.297 276.068 282.117 276.777C282.758 277.323 283.399 277.885 284.041 278.431C284.891 279.155 285.756 279.864 286.635 280.573C287.277 281.104 287.903 281.621 288.544 282.153C289.454 282.892 290.393 283.63 291.318 284.369C291.944 284.856 292.556 285.358 293.167 285.846C294.196 286.658 295.255 287.441 296.299 288.238C296.835 288.652 297.372 289.065 297.909 289.464C299.505 290.661 301.13 291.857 302.771 293.039C304.351 294.176 305.932 295.298 307.513 296.406C308.05 296.775 308.571 297.13 309.108 297.484C310.152 298.208 311.211 298.932 312.255 299.626C312.881 300.039 313.507 300.453 314.134 300.867C315.088 301.487 316.028 302.122 316.982 302.728C317.653 303.156 318.309 303.569 318.965 303.983C319.875 304.559 320.77 305.12 321.679 305.682C322.365 306.11 323.051 306.509 323.737 306.922C324.602 307.454 325.482 307.971 326.347 308.488C327.048 308.901 327.749 309.3 328.435 309.699C329.285 310.186 330.135 310.674 330.985 311.161C331.686 311.56 332.387 311.944 333.087 312.328C333.922 312.786 334.758 313.244 335.593 313.687C336.294 314.056 336.994 314.425 337.695 314.795C338.516 315.223 339.336 315.651 340.156 316.065C340.857 316.419 341.543 316.759 342.244 317.113C343.049 317.512 343.854 317.911 344.659 318.295C345.345 318.62 346.046 318.945 346.732 319.27C347.523 319.639 348.313 320.008 349.103 320.363C349.789 320.673 350.475 320.968 351.146 321.264C351.922 321.603 352.712 321.943 353.488 322.268C354.159 322.549 354.83 322.829 355.501 323.11C356.276 323.42 357.037 323.73 357.797 324.026C358.453 324.292 359.124 324.543 359.781 324.794C360.541 325.074 361.302 325.355 362.047 325.621C362.688 325.857 363.345 326.079 363.986 326.3C364.731 326.566 365.477 326.802 366.223 327.039C366.849 327.246 367.475 327.452 368.102 327.644C368.847 327.881 369.578 328.087 370.309 328.309C370.92 328.486 371.532 328.663 372.128 328.841C372.859 329.047 373.574 329.225 374.305 329.417C374.753 329.535 375.215 329.668 375.662 329.771C375.796 329.801 375.931 329.83 376.08 329.86C376.691 330.007 377.288 330.14 377.899 330.259C378.54 330.406 379.167 330.539 379.808 330.672C380.404 330.79 380.986 330.894 381.582 330.997C382.194 331.115 382.82 331.219 383.432 331.322C384.013 331.411 384.58 331.484 385.146 331.573C385.743 331.662 386.354 331.75 386.936 331.809C387.503 331.868 388.054 331.928 388.606 331.972C389.188 332.031 389.769 332.09 390.336 332.12C390.873 332.164 391.41 332.179 391.947 332.208C392.513 332.238 393.065 332.267 393.617 332.267C394.139 332.267 394.646 332.267 395.168 332.267C395.704 332.267 396.256 332.267 396.778 332.238C397.285 332.223 397.777 332.179 398.269 332.149C398.791 332.12 399.313 332.075 399.82 332.031C400.297 331.987 400.775 331.913 401.252 331.854C401.595 331.809 401.968 331.78 402.311 331.721C402.46 331.691 402.609 331.662 402.758 331.632C403.146 331.573 403.519 331.484 403.891 331.411C404.413 331.307 404.92 331.204 405.427 331.086H405.368Z" fill="url(#paint0_linear_241_14)"/>
<path d="M356.232 195.07C409.842 233.782 444.125 283.039 429.988 310.526C415.866 338.013 363.211 324.498 309.601 285.786C255.991 247.075 221.722 197.817 235.844 170.345C249.966 142.859 302.607 156.373 356.217 195.085L356.232 195.07Z" fill="url(#paint1_linear_241_14)"/>
<path style="mix-blend-mode:overlay" opacity="0.9" d="M356.232 195.07C302.622 156.358 249.981 142.858 235.859 170.33C221.737 197.817 255.991 247.06 309.616 285.771C363.226 324.483 415.881 337.998 430.003 310.511C444.125 283.024 409.857 233.767 356.247 195.055L356.232 195.07ZM429.601 310.319C424.739 319.757 415.285 324.557 401.506 324.557C378.078 324.557 343.825 309.92 309.884 285.417C253.814 244.933 222.855 196.621 236.262 170.522C241.049 161.202 250.771 156.284 264.371 156.284C287.799 156.284 322.053 170.921 355.978 195.424C412.049 235.908 443.007 284.235 429.601 310.319V310.319Z" fill="url(#paint2_linear_241_14)"/>
<g style="mix-blend-mode:multiply" opacity="0.2">
<path d="M386.265 263.749C394.63 269.79 398.866 279.657 395.719 285.771C392.573 291.886 383.238 291.945 374.872 285.904C366.506 279.863 362.271 269.997 365.417 263.882C368.564 257.768 377.899 257.709 386.265 263.749ZM317.758 229.483C314.612 235.598 318.847 245.464 327.212 251.505C335.578 257.546 344.913 257.487 348.06 251.372C351.206 245.258 346.971 235.391 338.605 229.35C330.24 223.31 320.905 223.369 317.758 229.483ZM270.114 195.07C266.967 201.184 271.202 211.051 279.568 217.092C287.934 223.132 297.269 223.073 300.415 216.959C303.562 210.844 299.327 200.978 290.961 194.937C282.595 188.896 273.26 188.955 270.114 195.07Z" fill="#5238DF"/>
</g>
<defs>
<linearGradient id="paint0_linear_241_14" x1="211.03" y1="190.048" x2="427.064" y2="332.617" gradientUnits="userSpaceOnUse">
<stop stop-color="#BCDFE7"/>
<stop offset="0.11" stop-color="#9CCAE5"/>
<stop offset="0.23" stop-color="#83B9E4"/>
<stop offset="0.33" stop-color="#74AFE4"/>
<stop offset="0.41" stop-color="#6FACE4"/>
<stop offset="0.65" stop-color="#71ADE4"/>
<stop offset="0.76" stop-color="#78B2E4"/>
<stop offset="0.84" stop-color="#85BAE4"/>
<stop offset="0.91" stop-color="#97C6E5"/>
<stop offset="0.97" stop-color="#AED6E6"/>
<stop offset="1" stop-color="#BCDFE7"/>
</linearGradient>
<linearGradient id="paint1_linear_241_14" x1="228.82" y1="168.558" x2="418.2" y2="301.819" gradientUnits="userSpaceOnUse">
<stop stop-color="white"/>
<stop offset="0.09" stop-color="#F0F8F9"/>
<stop offset="0.27" stop-color="#DAEDF1"/>
<stop offset="0.46" stop-color="#C9E5EB"/>
<stop offset="0.68" stop-color="#C0E0E8"/>
<stop offset="0.96" stop-color="#BDDFE7"/>
</linearGradient>
<linearGradient id="paint2_linear_241_14" x1="261.568" y1="148.678" x2="397.657" y2="327.032" gradientUnits="userSpaceOnUse">
<stop stop-color="white"/>
<stop offset="0.02" stop-color="white" stop-opacity="0.97"/>
<stop offset="0.5" stop-color="white" stop-opacity="0.46"/>
<stop offset="0.82" stop-color="white" stop-opacity="0.13"/>
<stop offset="0.97" stop-color="white" stop-opacity="0"/>
</linearGradient>
</defs>
</svg>
