<svg width="1440" height="1315" viewBox="0 0 1440 1315" fill="none" xmlns="http://www.w3.org/2000/svg">
<g id="mainSite__emoji--">
<g id="a">
<g id="dot08">
<path id="Vector" d="M414.091 770.326L414.136 770.252C414.225 770.119 414.747 769.321 415.418 768.066C415.478 767.963 415.538 767.844 415.597 767.726C415.687 767.564 415.761 767.401 415.851 767.239C417.924 763.148 419.131 758.746 419.46 754.315V754.286C419.504 753.798 419.519 753.311 419.534 752.838C419.609 750.505 419.445 748.186 419.042 745.896C418.863 744.818 418.58 743.563 418.281 742.544C418.088 741.849 417.864 741.17 417.625 740.491L417.596 740.387L417.566 740.299C417.521 740.181 417.491 740.062 417.446 739.944C417.282 739.516 417.118 739.058 416.91 738.571L416.88 738.512C416.775 738.275 416.671 738.039 416.567 737.788C416.522 737.67 416.462 737.566 416.417 737.448C416.373 737.359 416.328 737.256 416.283 737.167C416.253 737.094 416.209 737.02 416.179 736.946C415.508 735.543 414.732 734.184 413.867 732.869C413.644 732.53 413.465 732.264 413.36 732.116L413.196 731.895L413.032 731.673L413.003 731.644L412.973 731.599C412.898 731.496 412.779 731.348 412.704 731.23L412.66 731.186L412.615 731.141L412.436 730.89C412.361 730.787 412.257 730.669 412.182 730.565L411.959 730.285C411.959 730.285 411.869 730.181 411.839 730.137L411.81 730.093L411.765 730.034L411.69 729.945L411.437 729.65C411.377 729.576 411.303 729.487 411.228 729.399C411.168 729.325 411.094 729.251 411.019 729.162C411.019 729.162 410.93 729.059 410.885 729C410.81 728.911 410.706 728.808 410.632 728.719L410.453 728.527C410.378 728.438 410.289 728.35 410.214 728.261L410.169 728.217C410.169 728.217 410.05 728.084 409.99 728.025L409.886 727.907L409.752 727.774V727.744L409.677 727.7L409.603 727.626C409.603 727.626 409.468 727.493 409.394 727.419L409.26 727.286C409.185 727.213 409.11 727.139 409.036 727.065L408.842 726.873C408.842 726.873 408.767 726.799 408.723 726.755L408.544 726.592L408.365 726.43C408.275 726.341 408.171 726.253 408.082 726.164L407.813 725.928C407.813 725.928 407.753 725.869 407.724 725.854H407.709C407.634 725.765 407.545 725.691 407.455 725.617C407.336 725.514 407.202 725.411 407.082 725.307C406.993 725.233 406.903 725.16 406.829 725.086C406.725 725.012 406.635 724.923 406.531 724.849C406.426 724.761 406.322 724.687 406.218 724.598C406.158 724.554 406.083 724.495 406.024 724.451L405.86 724.318C405.86 724.318 405.77 724.259 405.725 724.214C405.681 724.17 405.621 724.14 405.576 724.111C405.01 723.697 404.443 723.299 403.861 722.915C403.727 722.826 403.608 722.752 403.489 722.678C403.354 722.59 403.22 722.516 403.086 722.427C403.011 722.383 402.922 722.324 402.847 722.279C402.653 722.161 402.46 722.043 402.266 721.94C402.191 721.895 402.132 721.866 402.057 721.822C401.774 721.659 401.505 721.511 401.237 721.378C401.118 721.305 400.983 721.246 400.849 721.172L400.775 721.127C400.566 721.024 400.372 720.921 400.178 720.832C400.029 720.758 399.88 720.684 399.731 720.61C399.388 720.448 399.104 720.315 398.925 720.241C397.986 719.828 397.032 719.444 396.062 719.119C395.481 718.912 394.959 718.749 394.303 718.557C391.559 717.775 388.711 717.317 385.818 717.228C385.534 717.228 385.236 717.213 384.953 717.213C384.923 717.213 384.878 717.213 384.833 717.213C384.326 717.213 383.834 717.213 383.327 717.243C383.283 717.243 383.253 717.243 383.208 717.243H383.014C382.88 717.243 382.731 717.258 382.597 717.272C382.313 717.287 382.045 717.302 381.776 717.332C381.627 717.332 381.478 717.361 381.329 717.376C381.016 717.405 380.733 717.435 380.449 717.464H380.375C380.375 717.464 380.24 717.494 380.181 717.494C378.719 717.671 377.75 717.893 377.69 717.893C377.213 717.996 376.721 718.1 376.229 718.233C375.886 718.321 375.528 718.41 375.14 718.513H375.066L375.006 718.557C374.261 718.764 373.44 719.03 372.501 719.37H372.456L372.412 719.399C371.979 719.562 371.517 719.754 371.04 719.961C370.637 720.138 370.219 720.315 369.876 720.463L368.594 721.113C368.176 721.319 367.774 721.526 367.401 721.718C366.7 722.087 365.85 722.619 364.97 723.225C364.21 723.756 363.434 724.332 362.719 724.909H362.689L362.659 724.953C361.719 725.691 360.869 726.43 360.288 727.05C358.036 729.369 357.842 729.561 356.575 731.26C354.979 733.401 354.084 735.1 353.652 735.927C352.414 738.29 351.758 740.284 351.534 740.934C350.759 743.267 350.491 744.759 350.237 746.207C350.073 747.108 349.984 747.743 349.924 748.496C349.834 749.426 349.79 750.372 349.79 751.317V751.657C349.745 752.632 349.79 753.946 349.924 754.921C350.013 755.645 350.118 756.605 350.237 757.328C350.356 758.037 350.535 758.983 350.714 759.691C350.908 760.474 350.983 760.814 351.206 761.493C351.46 762.35 351.728 763.177 352.041 763.99C352.146 764.255 352.25 764.521 352.355 764.772C352.474 765.068 352.608 765.378 352.727 765.629C352.787 765.762 352.877 765.954 352.981 766.175L353.026 766.279C353.13 766.5 353.264 766.766 353.398 767.047C353.428 767.106 353.458 767.165 353.488 767.239C353.92 768.081 354.472 769.115 355.158 770.178C355.307 770.414 355.516 770.725 355.755 771.094C355.829 771.197 355.889 771.301 355.963 771.404L356.336 771.936C356.411 772.039 356.53 772.187 356.605 772.305L356.694 772.438V772.467L356.858 772.659C356.933 772.763 357.037 772.881 357.112 772.984L357.365 773.295V773.324C358.349 774.535 359.348 775.599 360.348 776.559L360.437 776.647C360.527 776.721 360.616 776.825 360.72 776.913L360.75 776.943C360.84 777.017 360.929 777.105 361.004 777.179L361.57 777.696C361.824 777.917 362.182 778.213 362.45 778.434C362.689 778.641 363.002 778.878 363.3 779.099C363.449 779.217 363.598 779.335 363.718 779.424C364.105 779.705 364.627 780.074 365.015 780.34C365.418 780.62 365.984 780.96 366.402 781.226C367.312 781.758 368.534 782.422 369.474 782.88C370.205 783.235 371.219 783.678 371.979 783.958C372.173 784.032 372.382 784.106 372.59 784.165C373.202 784.387 373.843 784.593 374.365 784.771L375.021 784.948C375.528 785.096 376.05 785.229 376.572 785.361L376.826 785.435C377.422 785.598 378.197 785.731 378.883 785.834C379.182 785.878 379.48 785.923 379.778 785.967C380.583 786.085 381.583 786.203 382.373 786.233H382.447C383.148 786.277 383.864 786.292 384.565 786.292C384.714 786.292 384.878 786.292 385.012 786.292L385.818 786.248C386.026 786.248 386.25 786.233 386.459 786.218L387.682 786.159C388.144 786.13 389.009 786.056 390.366 785.819H390.44L390.575 785.79C391.275 785.657 392.096 785.494 393.08 785.273H393.154C394.109 785.037 395.779 784.579 397.822 783.737H397.882C398.359 783.515 398.836 783.308 399.343 783.072C399.552 782.969 399.775 782.865 399.999 782.762C400.312 782.614 400.611 782.467 400.864 782.334C400.954 782.289 401.043 782.245 401.118 782.186C401.565 781.95 402.027 781.684 402.504 781.403C403.146 781.034 403.787 780.635 404.309 780.266C405.203 779.66 406.113 778.981 407.023 778.228C407.589 777.77 408.126 777.312 408.589 776.854C409.11 776.367 409.632 775.85 410.139 775.303C410.259 775.185 410.363 775.067 410.482 774.934C411.153 774.195 411.825 773.398 412.466 772.556L412.54 772.467L412.585 772.408C413.092 771.744 413.584 771.035 414.061 770.296L414.091 770.326Z" fill="url(#paint0_radial_241_14)"/>
</g>
</g>
</g>
<defs>
<radialGradient id="paint0_radial_241_14" cx="0" cy="0" r="1" gradientUnits="userSpaceOnUse" gradientTransform="translate(385.731 755.499) rotate(35.2007) scale(38.2462 38.1249)">
<stop offset="0.7" stop-color="#DC3BEE"/>
<stop offset="0.74" stop-color="#DC3FEE"/>
<stop offset="0.78" stop-color="#DE4BEF"/>
<stop offset="0.83" stop-color="#E260F1"/>
<stop offset="0.87" stop-color="#E77DF3"/>
<stop offset="0.92" stop-color="#EEA3F7"/>
<stop offset="0.96" stop-color="#F6D0FB"/>
<stop offset="1" stop-color="white"/>
</radialGradient>
</defs>
</svg>
