<svg width="1440" height="1315" viewBox="0 0 1440 1315" fill="none" xmlns="http://www.w3.org/2000/svg">
<g id="mainSite__emoji--">
<g id="a">
<g id="dot02">
<g id="Group">
<path id="Vector" d="M545.231 112.772C545.201 112.698 545.171 112.624 545.156 112.551C544.918 111.871 544.709 111.059 544.62 110.099C544.575 109.641 544.545 109.021 544.62 108.267C544.635 108.09 544.664 107.883 544.694 107.676C544.694 107.632 544.709 107.573 544.724 107.529V107.47C544.724 107.47 544.754 107.366 544.769 107.307C544.828 107.027 544.888 106.761 544.963 106.495C544.992 106.406 545.007 106.332 545.037 106.244V106.214C545.037 106.214 545.082 106.096 545.097 106.037C545.246 105.564 545.425 105.136 545.619 104.767C545.649 104.693 545.693 104.619 545.723 104.545L545.768 104.457C545.768 104.457 545.798 104.398 545.813 104.368V104.324L545.857 104.279L545.902 104.206C546.17 103.733 546.409 103.393 546.618 103.113V103.083L546.678 103.009C546.767 102.891 546.871 102.773 546.976 102.64C547.035 102.566 547.095 102.507 547.14 102.448C547.289 102.285 547.483 102.079 547.632 101.931C547.706 101.857 547.781 101.783 547.856 101.709C547.856 101.709 547.945 101.621 547.99 101.591C548.049 101.547 548.109 101.488 548.154 101.444C548.318 101.296 548.512 101.148 548.706 101.015C548.855 100.897 549.019 100.794 549.183 100.675C550.018 100.129 550.942 99.7154 551.912 99.4348C552.419 99.2871 553.015 99.1542 553.671 99.0951H553.761C553.94 99.0655 554.119 99.0508 554.313 99.0508C554.447 99.0508 554.596 99.0508 554.715 99.0508H554.76C554.969 99.0508 555.058 99.0508 555.222 99.0508H555.282C555.461 99.0508 555.58 99.0655 555.729 99.0803C555.834 99.0803 555.923 99.0951 556.027 99.1099H556.042C556.177 99.1246 556.296 99.1394 556.43 99.1689C556.535 99.1837 556.654 99.2133 556.758 99.228C556.833 99.2428 556.907 99.2576 556.997 99.2723C557.027 99.2723 557.056 99.2723 557.086 99.2871C557.862 99.4643 558.458 99.7007 558.816 99.8631L558.906 99.8927C559.07 99.9665 559.234 100.04 559.353 100.099L559.472 100.159H559.487C559.696 100.277 559.949 100.41 560.263 100.616C561.754 101.547 562.947 102.832 563.752 104.353C563.782 104.398 563.797 104.442 563.827 104.486C563.946 104.737 564.065 104.988 564.155 105.195V105.239C564.244 105.402 564.319 105.594 564.378 105.786L564.408 105.875L564.438 105.978C564.438 105.978 564.483 106.111 564.498 106.185C564.542 106.347 564.587 106.495 564.632 106.643C564.662 106.776 564.691 106.894 564.721 107.012V107.056C564.721 107.056 564.751 107.145 564.751 107.189C564.751 107.263 564.781 107.322 564.796 107.396V107.425C565.109 109.109 564.975 110.822 564.393 112.432C564.393 112.477 564.363 112.521 564.348 112.551V112.61C564.348 112.61 564.289 112.728 564.259 112.787C563.767 114.072 563.036 115.18 562.186 116.066C560.74 117.631 559.01 118.577 557.265 118.961H557.206C557.131 118.99 557.041 119.02 556.952 119.035H556.848C556.848 119.035 556.758 119.079 556.713 119.079C556.713 119.079 556.609 119.094 556.564 119.108C556.356 119.153 556.236 119.168 556.221 119.168C556.042 119.197 555.938 119.212 555.759 119.227H555.64C555.64 119.227 555.491 119.256 555.401 119.256H555.207C555.073 119.271 554.894 119.286 554.745 119.286C554.745 119.286 554.715 119.286 554.7 119.286H554.611C554.462 119.286 554.372 119.286 554.223 119.286H554.178C554.089 119.286 553.984 119.286 553.88 119.271C553.835 119.271 553.806 119.271 553.761 119.271C553.716 119.271 553.671 119.271 553.627 119.271C553.582 119.271 553.522 119.271 553.477 119.256C553.284 119.227 553.09 119.197 552.911 119.168C551.882 118.976 551.106 118.68 550.659 118.488L550.57 118.459C550.45 118.4 550.346 118.355 550.227 118.296L550.122 118.252C549.988 118.193 549.764 118.075 549.526 117.927C549.063 117.661 548.631 117.366 548.258 117.055C548.199 117.011 548.139 116.952 548.079 116.908C548.035 116.878 547.99 116.834 547.945 116.79C547.08 116.051 546.499 115.298 546.096 114.663C546.066 114.604 546.036 114.559 546.006 114.515V114.485C545.634 113.909 545.365 113.333 545.156 112.802V112.772H545.231Z" fill="url(#paint0_radial_241_14)"/>
</g>
</g>
</g>
</g>
<defs>
<radialGradient id="paint0_radial_241_14" cx="0" cy="0" r="1" gradientUnits="userSpaceOnUse" gradientTransform="translate(555.342 109.936) scale(11.6464 11.5354)">
<stop offset="0.54" stop-color="#CE5FB1"/>
<stop offset="0.61" stop-color="#CF63B3"/>
<stop offset="0.68" stop-color="#D36FB9"/>
<stop offset="0.76" stop-color="#D984C3"/>
<stop offset="0.83" stop-color="#E2A1D1"/>
<stop offset="0.91" stop-color="#EDC7E3"/>
<stop offset="0.98" stop-color="#FBF4FA"/>
<stop offset="1" stop-color="white"/>
</radialGradient>
</defs>
</svg>
