<svg width="20" height="22" viewBox="0 0 20 22" fill="none" xmlns="http://www.w3.org/2000/svg">
<path d="M3.05534 20.6188L15.3678 6.64166L16.1257 16.058C16.1615 16.4987 16.35 16.9052 16.6498 17.1881C16.9497 17.471 17.3362 17.6071 17.7244 17.5665C18.1127 17.5258 18.4708 17.3118 18.72 16.9714C18.9692 16.6311 19.0891 16.1923 19.0533 15.7515L18.0151 2.78793C18.0005 2.69204 17.9797 2.5975 17.9528 2.50508C17.9009 2.44616 17.8698 2.4108 17.8905 2.26938C17.8186 2.08084 17.7165 1.90903 17.5895 1.76262C17.4605 1.61843 17.3092 1.50256 17.1431 1.42085C17.0912 1.36193 17.06 1.32657 16.9354 1.35014C16.854 1.31966 16.7708 1.29603 16.6863 1.27943L5.26661 0.100923C5.05181 0.0786961 4.83533 0.110468 4.63258 0.193981C4.42982 0.277494 4.24576 0.410695 4.09349 0.584112C3.85045 0.858936 3.69986 1.22169 3.66785 1.60942C3.64988 1.82769 3.67002 2.04784 3.72712 2.25726C3.78421 2.46668 3.87713 2.66125 4.00057 2.82984C4.12401 2.99843 4.27553 3.13772 4.44646 3.23973C4.61739 3.34174 4.80437 3.40447 4.99669 3.42432L13.2915 4.28463L0.979033 18.2618C0.703698 18.5743 0.549015 18.9983 0.549015 19.4403C0.549015 19.8823 0.703697 20.3062 0.979033 20.6188C1.25437 20.9314 1.6278 21.107 2.01718 21.107C2.40657 21.107 2.78 20.9314 3.05534 20.6188Z" fill="#231F20"/>
</svg>
