<svg xmlns="http://www.w3.org/2000/svg" width="1440" height="1315" fill="none"><path fill="url(#a)" d="m687.3 354 .2-.3c.4-.3 2.6-2.7 5.5-6.5l.8-1 1.2-1.5a116 116 0 0 0 21.4-88.4v-.3l-.1-.3-.2-1.3-1-4.9v-.2l-.7-2.6-.3-1.2-.3-1-.3-.8A116.1 116.1 0 0 0 707 226l-.4-.9-.4-.8v-.1l-.1-.2-.7-1.4-.1-.2-.1-.2-.5-.9-.6-1.2-.6-1-.3-.6-.1-.2-.1-.2-.2-.3-.7-1.1-.5-1-.6-.9-.3-.6-.7-1-.5-.8-.6-1-.2-.2-.5-.7-.3-.5-.3-.5-.2-.3-.2-.3-.6-.8c0-.2-.2-.3-.3-.5a44 44 0 0 0-.7-.8l-.5-.8-.3-.4-.5-.7-.5-.6-.8-1-.8-1-.2-.3-.8-1-1-1.2-.8-.9-.8-1-.9-.9-.6-.6-.4-.5-.4-.4-.5-.5-5-5-1.1-1a83.5 83.5 0 0 0-1.9-1.7L676 186l-.6-.5-2.5-2-1.2-.9h.1l-.3-.2a157.8 157.8 0 0 0-5.7-4 121.2 121.2 0 0 0-42-17.5l-3-.6h-.3c-1.7-.4-3.4-.6-5-.8l-.5-.1h-.6l-1.4-.3-2.8-.2-1.5-.2-3-.1h-1c-5-.3-8.3-.1-8.5-.1a100 100 0 0 0-8.9.6h-.4c-2.7.3-5.6.7-8.9 1.3H577.6l-4.9 1.2-4.1 1-4.7 1.4-4.3 1.4c-2.6.8-5.7 2.1-9 3.6l-8.6 4.3-.2.1c-3.6 2-6.8 4-9.1 5.7-9 6.5-9.7 7-14.9 12a112 112 0 0 0-22.4 29.4c-4 7.3-5.7 12.2-7.4 16.8-1 3-1.7 5-2.3 7.5-.8 3-1.5 6.2-2.1 9.4l-.2 1.1c-.7 3.3-1.3 7.7-1.4 11-.1 2.5-.4 5.8-.4 8.2a107.3 107.3 0 0 0 2.2 23.3l.5 2.8.8 3 .5 2 .1.4.9 2.8a109.6 109.6 0 0 0 5.6 14.8l.4 1.1 1 2 .7 1.4.2.4v.1l.5.8.6 1.2.6 1.1v.1a111 111 0 0 0 8.1 12.5l.3.4.8 1v.1l.7 1 1.6 2c.8.9 1.8 2 2.5 3l2.5 2.7 1.2 1.3 3.9 3.8c1.1 1.2 2.8 2.6 4 3.7 2.8 2.3 6.5 5.3 9.4 7.3a91 91 0 0 0 15.2 9.1l2.1 1 5 2.2.7.4a77.5 77.5 0 0 0 9.6 3.5c2.6.8 6 1.8 8.5 2.3h.3c2.3.6 4.6 1 7 1.5l1.5.3 2.7.3 2.2.2 4 .5c1.6.2 4.6.4 9.2.4h.7c2.4 0 5.3 0 8.7-.3h.2c3.3-.2 9.1-.8 16.5-2.4h.1a120 120 0 0 0 10.8-3l1-.3a112.7 112.7 0 0 0 11.7-4.6 120.6 120.6 0 0 0 22.4-13.3l1.3-1c2.7-2.1 5.4-4.4 8-6.8l.3-.3.2-.2 6.1-6.2v.1Z"/><path fill="url(#b)" d="m709.2 320.3 1-2.1-1 2.1Z"/><path fill="url(#c)" d="M503.5 205.9Z"/><path fill="#fff" d="M682.2 281.9a60 60 0 0 1-57.3 35.3c-31.3-.5-54.9-30.1-57-37.4-2.7-9-.9-18.3-1.6-27.5 15.2 0 102-2 116.9-2.6 2 25.8 1.2 27.7-1 32.2"/><path fill="#412121" d="M603 212.2c.1 2.3-1 3.6-2 4.2-2.3 1.7-6 3.4-8.5 4.9-3 1.6-9.7 5.5-21.1 13-4.5 2.8-8.8-1-7.7-5.4.6-2.2.9-3.3 25.6-17.3a869 869 0 0 0-24.5-9c-4.3-2.1-1.7-6.7 1.3-7.9l1.2-.3c.8-.1 2.6-.3 32 11 2 .8 2.8 1.8 3.2 3.6l.5 3.2M681 229.3c0 2.7-1.6 4-3.9 3.1a185.6 185.6 0 0 0-28.4-16.7 7.2 7.2 0 0 1-3.8-4.4 96 96 0 0 0-.8-3.2c-.4-2 .2-3 .8-3.5 5.5-4.6 12-7.8 17.8-12.1.3-.3.6-.4 1.4-.3 3.7.9 7 5.5 6 7.6 0 0-2 2.1-14.2 10.3 10.3 5.5 12.7 7 21.7 13 3 2.4 3.3 5.1 3.3 6.2"/><path fill="#6DB3E8" d="M711.2 293.9c-5 18.5-16.8 27.5-23.1 17.5-4.2-6.5-4-13.6-4-26.6.2-17.3 0-27.8-1.8-43.5 33.7 7 34.3 32.4 29 52.6M565.5 244c2.5 23.1 4.3 52.6-.8 62.2-8.6 16.5-24.3 15-35.2 6.5-13.3-10.2-39-55 36-68.8v.2"/><defs><linearGradient id="b" x1="709.3" x2="710" y1="319.1" y2="319.7" gradientUnits="userSpaceOnUse"><stop stop-color="#19B79C"/><stop offset=".4" stop-color="#1DBB9D"/><stop offset=".8" stop-color="#29C7A2"/><stop offset="1" stop-color="#31CFA6"/></linearGradient><linearGradient id="c" x1="503.9" x2="504.1" y1="205.1" y2="205.4" gradientUnits="userSpaceOnUse"><stop stop-color="#19B79C"/><stop offset=".4" stop-color="#1DBB9D"/><stop offset=".8" stop-color="#29C7A2"/><stop offset="1" stop-color="#31CFA6"/></linearGradient><radialGradient id="a" cx="0" cy="0" r="1" gradientTransform="matrix(95.707 95.3898 -95.3912 95.7084 591.1 293.2)" gradientUnits="userSpaceOnUse"><stop stop-color="#F79F40"/><stop offset=".2" stop-color="#F7A442"/><stop offset=".4" stop-color="#F8B449"/><stop offset=".6" stop-color="#F9CE55"/><stop offset=".8" stop-color="#FBE660"/><stop offset=".9" stop-color="#FBF36F"/><stop offset=".9" stop-color="#FBF672"/><stop offset=".9" stop-color="#FBF676"/><stop offset="1" stop-color="#FBF782"/><stop offset="1" stop-color="#FBF897"/><stop offset="1" stop-color="#FCFAB4"/><stop offset="1" stop-color="#FDFBC2"/></radialGradient></defs></svg>