<svg xmlns="http://www.w3.org/2000/svg" width="1440" height="1315" fill="none"><path fill="url(#a)" d="M1139.44 277.884c-4.71-5.701-8.08-11.786-9.9-17.842-1.04-3.471-1.58-6.927-1.58-10.294 0-.842.03-1.684.11-2.511.07-.827.16-1.655.29-2.482.41-2.451 1.14-4.844 2.18-7.119l-3.89 8.449c-5.61 12.185-1.87 27.235 8.9 40.247l3.89-8.448Z"/><path fill="url(#b)" d="M1240.43 358.897c-1.54.414-15.57 4.15-32.37 6.779-.99.148-1.99.311-2.99.444-.26.044-.53.073-.8.118-.91.133-1.84.266-2.76.384-.13.014-.25.029-.39.059-1.03.133-2.07.266-3.13.384-.27.029-.55.059-.82.088-.91.104-1.82.207-2.73.296-.19.015-.39.044-.6.059-1.07.103-2.16.207-3.26.295-.27.015-.54.045-.79.059-.91.074-1.84.133-2.76.192-.25.015-.51.03-.76.045-1.12.059-2.24.118-3.37.162-.24 0-.48.015-.72.03-.95.029-1.91.059-2.86.074h-.85c-1.16 0-2.33.014-3.49 0h-.58c-1-.015-2.01-.045-3.03-.074-.31 0-.61-.015-.92-.03-1.2-.044-2.39-.118-3.6-.192-.1 0-.21-.015-.31-.029-1.1-.074-2.22-.178-3.34-.281-.31-.03-.64-.059-.95-.103-1.18-.119-2.35-.266-3.52-.414-.05 0-.11 0-.15-.015-1.23-.162-2.45-.354-3.67-.561-.31-.059-.64-.103-.96-.162-1.08-.192-2.16-.399-3.25-.621-.16-.029-.34-.059-.5-.103-1.23-.251-2.45-.547-3.69-.842-.43-.103-.86-.222-1.29-.325-.48-.118-.94-.251-1.42-.369-.48-.133-.96-.266-1.43-.414-.48-.133-.94-.266-1.42-.413-.48-.148-.97-.296-1.45-.458-.47-.148-.94-.296-1.41-.458-.48-.163-.97-.325-1.45-.502-.48-.163-.94-.325-1.42-.502-.47-.178-.97-.37-1.44-.547-.46-.177-.94-.354-1.4-.546-.5-.192-.97-.399-1.47-.606-.46-.192-.94-.384-1.4-.591-.47-.207-.97-.428-1.44-.65-.47-.206-.94-.428-1.41-.635-.47-.221-.97-.458-1.44-.694-.46-.236-.94-.458-1.4-.694-.82-.414-1.64-.842-2.46-1.285-1.05-.576-2.08-1.167-3.09-1.772-.28-.163-.55-.34-.84-.503-.8-.487-1.59-.989-2.37-1.506-.21-.133-.42-.266-.62-.414-.94-.635-1.87-1.285-2.76-1.949-.21-.148-.42-.311-.61-.473-.72-.532-1.42-1.078-2.11-1.639-.28-.237-.58-.458-.86-.695-.23-.192-.45-.384-.67-.576-.41-.339-.81-.694-1.2-1.034-.2-.192-.41-.369-.62-.561-.45-.399-.87-.812-1.3-1.211-.13-.133-.28-.266-.43-.399-.55-.546-1.11-1.093-1.64-1.639-.12-.133-.24-.266-.36-.384-.4-.429-.81-.857-1.19-1.285-.18-.192-.35-.399-.53-.591-.32-.384-.65-.753-.98-1.137-.18-.207-.34-.414-.52-.621-.31-.384-.63-.782-.93-1.166-.14-.192-.29-.384-.44-.576-.38-.488-.73-.99-1.09-1.477-.06-.089-.14-.178-.2-.281-.41-.591-.8-1.182-1.19-1.772-.1-.178-.21-.34-.33-.517-.27-.429-.53-.857-.79-1.285-.13-.222-.25-.429-.37-.65-.22-.399-.45-.798-.67-1.182-.12-.221-.24-.443-.36-.65-.22-.413-.43-.842-.64-1.27-.09-.192-.19-.369-.28-.561-.29-.606-.57-1.211-.82-1.817-.02-.029-.03-.074-.05-.103-.24-.576-.46-1.137-.67-1.714-.07-.192-.13-.398-.21-.59-.15-.414-.28-.827-.42-1.256-.07-.221-.13-.443-.2-.664-.12-.399-.24-.798-.35-1.197-.06-.221-.12-.428-.18-.65-.12-.443-.21-.901-.31-1.344-.03-.162-.07-.325-.1-.487-.12-.606-.23-1.211-.32-1.817-.01-.133-.03-.251-.04-.384-.06-.472-.12-.96-.17-1.432-.01-.207-.03-.414-.04-.621-.03-.399-.06-.797-.08-1.196 0-.222 0-.443-.01-.665v-1.787c.01-.473.04-.96.09-1.433 0-.103 0-.221.03-.325.06-.576.13-1.166.22-1.742.03-.163.06-.325.09-.473.08-.414.15-.827.24-1.241.05-.207.09-.399.15-.605.09-.37.19-.739.3-1.108.06-.207.12-.414.18-.606.12-.384.25-.768.39-1.137.05-.177.11-.354.19-.517.21-.546.43-1.093.68-1.624l-3.89 8.448c-.25.532-.47 1.078-.68 1.625-.06.177-.12.354-.2.531-.13.384-.27.754-.38 1.138-.06.206-.12.413-.18.62-.11.369-.21.738-.3 1.108-.05.206-.11.398-.15.605-.09.414-.17.827-.24 1.241-.03.162-.06.325-.09.472-.09.577-.16 1.153-.22 1.743 0 .104 0 .222-.03.325-.05.473-.08.96-.09 1.433v1.787c0 .222 0 .443.01.665 0 .399.05.797.08 1.196.01.207.03.414.04.62.05.473.11.946.17 1.418.01.133.03.266.04.384.09.606.19 1.211.31 1.817.03.162.08.325.11.487.09.444.19.887.31 1.344.06.222.12.444.18.65.1.399.22.798.34 1.197.08.221.14.443.21.679.14.414.27.827.42 1.241.07.207.13.399.21.605.21.576.43 1.138.67 1.714.01.029.03.074.04.103.26.606.54 1.211.82 1.817.09.192.2.384.29.576.21.413.42.842.62 1.255.12.222.24.443.36.665.21.399.43.783.66 1.181.12.222.25.429.39.65.25.429.52.857.79 1.271.1.177.22.354.32.516.39.591.78 1.182 1.2 1.773.07.088.13.192.21.28.35.488.71.975 1.07 1.463.15.192.3.384.46.59.3.385.61.769.93 1.167.18.207.34.429.52.635.31.384.64.754.97 1.123.18.207.34.399.52.591.39.428.79.856 1.19 1.285.12.133.24.266.38.398.53.547 1.07 1.093 1.64 1.64.15.148.29.281.44.414.42.398.85.797 1.29 1.196.2.192.41.384.64.561.38.34.79.694 1.18 1.034.22.192.44.384.68.576.15.118.28.251.43.369.14.118.29.222.42.325.69.547 1.39 1.093 2.1 1.64.21.162.42.31.63.472.89.665 1.82 1.315 2.76 1.95.21.133.42.266.63.413.77.517 1.56 1.02 2.37 1.507.28.162.55.34.83.502 1.02.606 2.03 1.197 3.09 1.773.68.369 1.37.738 2.06 1.093.13.073.26.132.4.192.46.236.94.457 1.4.694.48.236.95.472 1.45.694.46.221.94.428 1.4.65.48.221.97.443 1.45.65.46.206.93.398 1.4.59.47.207.97.399 1.44.606.47.192.94.369 1.41.547.47.192.96.369 1.44.546.46.177.94.34 1.4.502.48.163.97.34 1.45.502.46.163.94.31 1.4.458.48.148.97.31 1.45.458.46.148.94.281 1.4.414.48.133.97.28 1.45.413.46.133.94.251 1.4.369.31.074.61.163.92.252.14.029.26.059.39.088 1.22.296 2.46.591 3.68.842.18.03.35.074.53.103 1.08.222 2.16.429 3.23.621.32.059.64.118.96.162 1.22.207 2.44.399 3.66.561.05 0 .11 0 .15.015 1.18.163 2.36.296 3.52.414.32.029.64.059.96.103 1.1.104 2.22.207 3.32.281.11 0 .21.015.33.029 1.19.089 2.39.148 3.58.192.31 0 .61.03.92.03 1.02.044 2.03.059 3.03.074h4.92c.96-.015 1.91-.045 2.87-.074.23 0 .47 0 .71-.03 1.14-.044 2.25-.103 3.37-.162.26-.015.51-.03.76-.044.93-.06 1.85-.119 2.76-.192.27-.015.54-.045.81-.06 1.09-.088 2.17-.192 3.25-.295.21-.015.4-.044.61-.059.91-.089 1.82-.192 2.71-.295.27-.03.55-.059.82-.089 1.06-.118 2.11-.251 3.13-.384.14-.015.26-.03.39-.059.93-.118 1.85-.251 2.76-.384.27-.044.54-.074.81-.118 1-.148 1.99-.296 2.98-.458 16.81-2.629 30.84-6.366 32.37-6.78l30.72-8.3 3.9-8.449-30.72 8.301.04-.059Z"/><path fill="url(#c)" d="M1092.17 293.009c8.64-12.954 27.2-18.212 47.29-15.125-11.95-14.43-15.24-31.356-6.74-44.117 12.53-18.788 45.91-21.387 74.56-5.805 30.88 16.793 43.2 43.645 50.49 65.18 4.97 14.696 7.56 27.678 7.85 29.111l5.53 28.343-30.72 8.301c-1.54.413-15.57 4.15-32.37 6.779-24.42 3.811-56.33 6.085-86.69-10.427-28.66-15.582-41.72-43.453-29.2-62.24Z"/><path fill="url(#d)" d="M1265.62 322.253c-.29-1.433-2.88-14.415-7.85-29.111-7.29-21.535-19.61-48.387-50.49-65.18-28.66-15.582-62.05-12.983-74.56 5.805-8.5 12.746-5.21 29.687 6.74 44.117-20.09-3.101-38.65 2.171-47.29 15.125-12.52 18.787.55 46.658 29.2 62.24 30.36 16.498 62.27 14.238 86.69 10.427 16.8-2.629 30.84-6.366 32.37-6.779l30.72-8.301-5.53-28.343Zm-25.29 36.275c-.6.162-14.92 4.047-32.35 6.779-11.91 1.861-21.86 2.732-31.31 2.732-20.87 0-38.9-4.283-55.12-13.115-16.88-9.187-29.11-23.218-32.69-37.56-2.22-8.906-.97-17.251 3.63-24.149 6.69-10.043 19.78-15.818 35.92-15.818 3.58 0 7.28.295 10.97.857l1 .147-.64-.768c-12.23-14.784-14.81-31.519-6.71-43.66 6.7-10.058 19.81-15.818 35.94-15.818 12.57 0 26.11 3.604 38.13 10.132 30.75 16.72 43.04 43.497 50.32 64.958 4.92 14.563 7.54 27.62 7.83 29.067l5.47 28.004-30.38 8.197-.01.015Z" opacity=".5" style="mix-blend-mode:overlay"/><defs><linearGradient id="a" x1="1115.11" x2="1150.97" y1="250.752" y2="273.631" gradientUnits="userSpaceOnUse"><stop stop-color="#FB2A60"/><stop offset=".18" stop-color="#DA2458"/><stop offset=".42" stop-color="#B71D4F"/><stop offset=".64" stop-color="#9E1849"/><stop offset=".84" stop-color="#8F1545"/><stop offset="1" stop-color="#8A1544"/></linearGradient><linearGradient id="b" x1="1268.44" x2="1080.4" y1="376.163" y2="324.484" gradientUnits="userSpaceOnUse"><stop stop-color="#FB2A60"/><stop offset=".08" stop-color="#DA2458"/><stop offset=".17" stop-color="#B71D4F"/><stop offset=".27" stop-color="#9E1849"/><stop offset=".35" stop-color="#8F1545"/><stop offset=".42" stop-color="#8A1544"/><stop offset=".63" stop-color="#8C1544"/><stop offset=".73" stop-color="#931646"/><stop offset=".8" stop-color="#A01748"/><stop offset=".87" stop-color="#B21A4C"/><stop offset=".92" stop-color="#CA1D52"/><stop offset=".97" stop-color="#E62158"/><stop offset="1" stop-color="#FB245D"/></linearGradient><linearGradient id="c" x1="1067.95" x2="1247.65" y1="213.842" y2="361.325" gradientUnits="userSpaceOnUse"><stop stop-color="#FC658D"/><stop offset=".46" stop-color="#FB4474"/><stop offset="1" stop-color="#FB1A55"/></linearGradient><linearGradient id="d" x1="1087.42" x2="1271.15" y1="293.097" y2="293.097" gradientUnits="userSpaceOnUse"><stop stop-color="#fff"/><stop offset=".02" stop-color="#fff" stop-opacity=".97"/><stop offset=".5" stop-color="#fff" stop-opacity=".46"/><stop offset=".82" stop-color="#fff" stop-opacity=".13"/><stop offset=".97" stop-color="#fff" stop-opacity="0"/></linearGradient></defs></svg>