<svg xmlns="http://www.w3.org/2000/svg" width="1440" height="1315" fill="none"><path fill="url(#a)" d="m414.091 770.326.045-.074c.089-.133.611-.931 1.282-2.186.06-.103.12-.222.179-.34.09-.162.164-.325.254-.487 2.073-4.091 3.28-8.493 3.609-12.924v-.029c.044-.488.059-.975.074-1.448.075-2.333-.089-4.652-.492-6.942-.179-1.078-.462-2.333-.761-3.352-.193-.695-.417-1.374-.656-2.053l-.029-.104-.03-.088c-.045-.118-.075-.237-.12-.355-.164-.428-.328-.886-.536-1.373l-.03-.059c-.105-.237-.209-.473-.313-.724-.045-.118-.105-.222-.15-.34-.044-.089-.089-.192-.134-.281-.03-.073-.074-.147-.104-.221-.671-1.403-1.447-2.762-2.312-4.077-.223-.339-.402-.605-.507-.753l-.164-.221-.164-.222-.029-.029-.03-.045c-.075-.103-.194-.251-.269-.369l-.044-.044-.045-.045-.179-.251c-.075-.103-.179-.221-.254-.325l-.223-.28s-.09-.104-.12-.148l-.029-.044-.045-.059-.075-.089-.253-.295c-.06-.074-.134-.163-.209-.251-.06-.074-.134-.148-.209-.237 0 0-.089-.103-.134-.162-.075-.089-.179-.192-.253-.281l-.179-.192c-.075-.089-.164-.177-.239-.266l-.045-.044s-.119-.133-.179-.192l-.104-.118-.134-.133v-.03l-.075-.044-.074-.074s-.135-.133-.209-.207l-.134-.133c-.075-.073-.15-.147-.224-.221l-.194-.192s-.075-.074-.119-.118l-.179-.163-.179-.162c-.09-.089-.194-.177-.283-.266l-.269-.236s-.06-.059-.089-.074h-.015c-.075-.089-.164-.163-.254-.237-.119-.103-.253-.206-.373-.31-.089-.074-.179-.147-.253-.221-.104-.074-.194-.163-.298-.237-.105-.088-.209-.162-.313-.251-.06-.044-.135-.103-.194-.147l-.164-.133s-.09-.059-.135-.104c-.044-.044-.104-.074-.149-.103-.566-.414-1.133-.812-1.715-1.196-.134-.089-.253-.163-.372-.237-.135-.088-.269-.162-.403-.251-.075-.044-.164-.103-.239-.148-.194-.118-.387-.236-.581-.339-.075-.045-.134-.074-.209-.118-.283-.163-.552-.311-.82-.444-.119-.073-.254-.132-.388-.206l-.074-.045c-.209-.103-.403-.206-.597-.295l-.447-.222c-.343-.162-.627-.295-.806-.369-.939-.413-1.893-.797-2.863-1.122-.581-.207-1.103-.37-1.759-.562-2.744-.782-5.592-1.24-8.485-1.329-.284 0-.582-.015-.865-.015h-.12c-.507 0-.999 0-1.506.03h-.313c-.134 0-.283.015-.417.029-.284.015-.552.03-.821.06-.149 0-.298.029-.447.044-.313.029-.596.059-.88.088h-.074s-.135.03-.194.03c-1.462.177-2.431.399-2.491.399-.477.103-.969.207-1.461.34-.343.088-.701.177-1.089.28h-.074l-.06.044c-.745.207-1.566.473-2.505.813h-.045l-.044.029c-.433.163-.895.355-1.372.562-.403.177-.821.354-1.164.502l-1.282.65c-.418.206-.82.413-1.193.605-.701.369-1.551.901-2.431 1.507-.76.531-1.536 1.107-2.251 1.684h-.03l-.03.044c-.94.738-1.79 1.477-2.371 2.097-2.252 2.319-2.446 2.511-3.713 4.21-1.596 2.141-2.491 3.84-2.923 4.667-1.238 2.363-1.894 4.357-2.118 5.007-.775 2.333-1.043 3.825-1.297 5.273-.164.901-.253 1.536-.313 2.289-.09.93-.134 1.876-.134 2.821v.34c-.045.975 0 2.289.134 3.264.089.724.194 1.684.313 2.407.119.709.298 1.655.477 2.363.194.783.269 1.123.492 1.802.254.857.522 1.684.835 2.497.105.265.209.531.314.782.119.296.253.606.372.857.06.133.15.325.254.546l.045.104c.104.221.238.487.372.768.03.059.06.118.09.192.432.842.984 1.876 1.67 2.939.149.236.358.547.597.916.074.103.134.207.208.31l.373.532c.075.103.194.251.269.369l.089.133v.029l.164.192c.075.104.179.222.254.325l.253.311v.029c.984 1.211 1.983 2.275 2.983 3.235l.089.088c.09.074.179.178.283.266l.03.03c.09.074.179.162.254.236l.566.517c.254.221.612.517.88.738.239.207.552.444.85.665.149.118.298.236.418.325.387.281.909.65 1.297.916.403.28.969.62 1.387.886.91.532 2.132 1.196 3.072 1.654.731.355 1.745.798 2.505 1.078.194.074.403.148.611.207.612.222 1.253.428 1.775.606l.656.177c.507.148 1.029.281 1.551.413l.254.074c.596.163 1.371.296 2.057.399.299.044.597.089.895.133.805.118 1.805.236 2.595.266h.074c.701.044 1.417.059 2.118.059h.447l.806-.044c.208 0 .432-.015.641-.03l1.223-.059c.462-.029 1.327-.103 2.684-.34h.074l.135-.029c.7-.133 1.521-.296 2.505-.517h.074c.955-.236 2.625-.694 4.668-1.536h.06c.477-.222.954-.429 1.461-.665.209-.103.432-.207.656-.31.313-.148.612-.295.865-.428.09-.045.179-.089.254-.148.447-.236.909-.502 1.386-.783.642-.369 1.283-.768 1.805-1.137.894-.606 1.804-1.285 2.714-2.038.566-.458 1.103-.916 1.566-1.374.521-.487 1.043-1.004 1.55-1.551.12-.118.224-.236.343-.369.671-.739 1.343-1.536 1.984-2.378l.074-.089.045-.059c.507-.664.999-1.373 1.476-2.112l.03.03Z"/><defs><radialGradient id="a" cx="0" cy="0" r="1" gradientTransform="rotate(35.2 -997.92657 985.7257) scale(38.2462 38.1249)" gradientUnits="userSpaceOnUse"><stop offset=".7" stop-color="#DC3BEE"/><stop offset=".74" stop-color="#DC3FEE"/><stop offset=".78" stop-color="#DE4BEF"/><stop offset=".83" stop-color="#E260F1"/><stop offset=".87" stop-color="#E77DF3"/><stop offset=".92" stop-color="#EEA3F7"/><stop offset=".96" stop-color="#F6D0FB"/><stop offset="1" stop-color="#fff"/></radialGradient></defs></svg>