<svg xmlns="http://www.w3.org/2000/svg" width="1440" height="1315" fill="none"><path fill="url(#a)" d="m453.2 447.1-.3-.7a30 30 0 0 1-1.4-15v-.5l.1-.1a33 33 0 0 1 .7-3l.2-.8.2-.6a28.7 28.7 0 0 1 2-4.6l.1-.3s0-.2.2-.2V421l.2-.2a31 31 0 0 1 2.3-3.5l.2-.2a17.9 17.9 0 0 1 1.4-1.7 30 30 0 0 1 2.2-2.3l.4-.3.6-.5 1.6-1.3 1.5-1a30.9 30.9 0 0 1 13.9-4.9h.2l1.7-.1h4.4l.9.2 1.2.1 1.1.2.7.2h.3c2.4.6 4.2 1.3 5.3 1.8l.3.1 1.4.7.4.2c.6.3 1.4.7 2.4 1.4 4.6 2.8 8.2 6.8 10.8 11.5l.2.4 1 2.2v.1l.7 1.7.1.3.1.3.2.6a16.2 16.2 0 0 1 .7 2.6v.5l.2.7c1 5.2.5 10.5-1.2 15.5l-.2.3v.2l-.2.5c-1.5 4-3.8 7.4-6.4 10.1a29.4 29.4 0 0 1-15.2 9h-.1l-.8.2h-.3a8.7 8.7 0 0 0-.9.2 17.5 17.5 0 0 1-2.5.4h-1.6l-1.4.1H480l-.3-.1h-.4l-.5-.1c-.6 0-1.2-.2-1.7-.3-3.2-.5-5.6-1.4-7-2l-.3-.2-1-.5-.3-.1a26.3 26.3 0 0 1-5.8-3.7l-.5-.4-.4-.4a28.8 28.8 0 0 1-6-7v-.1a30 30 0 0 1-2.6-5.2v-.1Z"/><defs><radialGradient id="a" cx="0" cy="0" r="1" gradientTransform="matrix(-33.5591 -17.6436 17.5485 -33.3782 466.2 436.3)" gradientUnits="userSpaceOnUse"><stop offset="0" stop-color="#BDDFE7"/><stop offset=".3" stop-color="#C0E0E8"/><stop offset=".5" stop-color="#C9E5EB"/><stop offset=".7" stop-color="#DAEDF1"/><stop offset=".9" stop-color="#F0F8F9"/><stop offset="1" stop-color="#fff"/></radialGradient></defs></svg>