<svg width="1440" height="1315" viewBox="0 0 1440 1315" fill="none" xmlns="http://www.w3.org/2000/svg">
<g id="mainSite__emoji--" clip-path="url(#clip0_241_14)">
<g id="a">
<g id="Group">
<g id="Group_2">
<g id="Group_3">
<path id="Vector" d="M1174.54 1312.19C1191.17 1241.36 1137.88 1168.84 1068.48 1130.07C999.077 1091.3 916.233 1078.34 836.233 1063.49C744.756 1046.51 653.362 1025.84 568.688 990.268C484.015 954.695 405.825 903.209 353.352 834.154C304.843 770.31 280.482 694.95 255.866 621.238C231.251 547.525 204.719 472.421 152.837 410.676C100.972 348.918 18.1766 302.115 -67.6446 308.546L-50.1063 241.096C29.7698 224.838 114.782 260.342 172.706 313.704C179.793 320.259 186.547 327.062 192.97 334.082C238.918 384.248 269.007 444.808 297.699 504.75C305.743 521.562 313.747 538.46 322.06 555.228C347.454 606.555 376.295 656.99 416.959 699.551C437.098 720.589 459.888 739.322 484.813 755.466C532.366 786.28 586.276 807.439 642.318 823.128C683.435 834.688 725.748 843.469 768.684 851.887C814.757 860.893 861.57 869.572 907.954 878.938C962.965 890.053 1018.38 902.483 1069.19 923.159C1090.86 931.967 1111.67 942.268 1131.29 954.561C1196.89 995.704 1247 1065.18 1239.87 1134.63L1174.54 1312.17L1174.54 1312.19Z" fill="url(#paint0_linear_241_14)"/>
</g>
<g id="Group_4">
<g id="Group_5" style="mix-blend-mode:overlay" opacity="0.8">
<g id="Group_6">
<path id="Vector_2" d="M1174 1312.22C1190.67 1241.33 1137.44 1168.79 1068.09 1130.03C998.733 1091.27 915.929 1078.35 835.967 1063.54C744.535 1046.6 653.188 1025.97 568.567 990.418C483.947 954.869 405.817 903.392 353.404 834.321C304.951 770.461 280.644 695.065 256.081 621.317C231.518 547.57 205.04 472.431 153.214 410.674C101.405 348.903 18.6685 302.115 -67.1238 308.598L-49.5526 241.094C30.3027 224.781 115.261 260.261 173.132 313.626C180.213 320.182 186.96 326.985 193.377 334.007C239.277 384.181 269.32 444.764 297.966 504.73C305.996 521.548 313.988 538.453 322.288 555.228C347.642 606.575 376.443 657.026 417.067 699.593C437.185 720.634 459.956 739.367 484.861 755.508C532.379 786.316 586.255 807.459 642.267 823.127C683.362 834.672 725.653 843.436 768.568 851.835C814.619 860.822 861.408 869.48 907.769 878.827C962.753 889.918 1018.14 902.326 1068.92 922.988C1090.57 931.79 1111.37 942.086 1130.98 954.377C1196.53 995.51 1246.57 1065.01 1239.41 1134.51L1174 1312.2L1174 1312.22Z" fill="white"/>
</g>
</g>
</g>
</g>
</g>
</g>
</g>
<defs>
<linearGradient id="paint0_linear_241_14" x1="-232.616" y1="357.561" x2="1148.5" y2="1209.84" gradientUnits="userSpaceOnUse">
<stop offset="0.12" stop-color="#FC678E"/>
<stop offset="0.15" stop-color="#FB6089"/>
<stop offset="0.19" stop-color="#FB507D"/>
<stop offset="0.23" stop-color="#FB3469"/>
<stop offset="0.31" stop-color="#FA3066"/>
<stop offset="0.38" stop-color="#FA245D"/>
<stop offset="0.45" stop-color="#FA104E"/>
<stop offset="0.5" stop-color="#FA0042"/>
<stop offset="0.77" stop-color="#FB3368"/>
<stop offset="0.83" stop-color="#FA2D63"/>
<stop offset="0.91" stop-color="#FA1C57"/>
<stop offset="0.99" stop-color="#FA0143"/>
<stop offset="1" stop-color="#FA0042"/>
</linearGradient>
<clipPath id="clip0_241_14">
<rect width="1440" height="1315" fill="white"/>
</clipPath>
</defs>
</svg>
