<svg xmlns="http://www.w3.org/2000/svg" width="1440" height="1315" fill="none"><path fill="url(#a)" d="M545.2 112.8v-.2a10.2 10.2 0 0 1-.5-5V107.2l.3-.8v-.3l.1-.2.5-1.2.1-.3.1-.1v-.1h.1l.7-1.2.4-.5.1-.2a16.4 16.4 0 0 1 .8-.7v-.1l.3-.2.5-.4.5-.3a10.1 10.1 0 0 1 4.5-1.6H556.5l.4.1h.2l1.8.7h.1l.5.2.9.5c1.5 1 2.6 2.2 3.5 3.8l.4.8.2.6v.2l.1.2a15.5 15.5 0 0 0 .2.8v.2l.1.2c.3 1.7.2 3.4-.4 5v.2l-.1.2a9.8 9.8 0 0 1-2.1 3.3 9.5 9.5 0 0 1-5 2.9h-.4l-.2.1a5.2 5.2 0 0 1-.8.1H552.9c-1-.2-1.8-.5-2.2-.7h-.1l-.4-.2-.7-.4a9 9 0 0 1-1.2-.8l-.2-.2-.2-.1a9.4 9.4 0 0 1-1.9-2.3c-.4-.6-.6-1.2-.8-1.7Z"/><defs><radialGradient id="a" cx="0" cy="0" r="1" gradientTransform="matrix(11.6464 0 0 11.5354 555.3 110)" gradientUnits="userSpaceOnUse"><stop offset=".5" stop-color="#CE5FB1"/><stop offset=".6" stop-color="#CF63B3"/><stop offset=".7" stop-color="#D36FB9"/><stop offset=".8" stop-color="#D984C3"/><stop offset=".8" stop-color="#E2A1D1"/><stop offset=".9" stop-color="#EDC7E3"/><stop offset="1" stop-color="#FBF4FA"/><stop offset="1" stop-color="#fff"/></radialGradient></defs></svg>