<svg xmlns="http://www.w3.org/2000/svg" width="1440" height="1315" fill="none"><path fill="url(#a)" d="m866.965 756.811.06-.059c.104-.103.7-.738 1.491-1.757.074-.089.134-.178.209-.266.104-.133.193-.266.298-.399 2.505-3.367 4.265-7.119 5.249-11.062v-.03c.119-.428.209-.857.298-1.3.418-2.082.641-4.194.641-6.321 0-1.005-.059-2.171-.164-3.117-.059-.65-.164-1.299-.268-1.949v-.104l-.03-.088c-.015-.104-.03-.222-.06-.325-.074-.414-.164-.857-.268-1.315v-.059c-.06-.221-.119-.458-.179-.694-.03-.103-.06-.222-.089-.325-.03-.089-.045-.177-.075-.281-.015-.074-.045-.147-.06-.221-.387-1.359-.865-2.703-1.446-4.018-.149-.339-.269-.605-.328-.753l-.105-.236-.104-.222v-.029l-.045-.045c-.059-.103-.134-.251-.179-.369l-.029-.044-.03-.044-.134-.252c-.045-.103-.12-.221-.179-.324l-.15-.281s-.059-.103-.089-.163l-.03-.044-.03-.059-.044-.089-.179-.31c-.045-.074-.105-.177-.149-.251-.045-.074-.09-.162-.15-.236 0 0-.059-.118-.089-.163-.06-.088-.119-.206-.179-.28l-.134-.207c-.06-.089-.12-.177-.179-.266l-.03-.044s-.09-.133-.134-.207l-.075-.118-.104-.148v-.029l-.045-.045-.06-.073s-.104-.148-.149-.207l-.089-.133c-.06-.074-.119-.163-.164-.237l-.149-.206s-.06-.074-.09-.118c-.045-.06-.089-.119-.134-.178l-.134-.177c-.075-.089-.149-.192-.224-.281l-.209-.251-.059-.088c-.06-.089-.12-.163-.194-.251-.09-.119-.194-.222-.284-.34l-.193-.236c-.075-.089-.149-.163-.224-.251-.075-.089-.164-.178-.239-.266-.044-.059-.104-.104-.149-.163l-.134-.148s-.074-.073-.104-.103l-.12-.118c-.432-.458-.894-.901-1.357-1.344-.104-.104-.208-.192-.298-.281-.104-.088-.209-.192-.313-.28-.06-.059-.134-.119-.194-.163-.164-.133-.313-.266-.462-.399-.06-.044-.105-.088-.164-.133-.224-.192-.448-.369-.656-.531-.105-.074-.209-.163-.314-.237l-.059-.044c-.164-.133-.328-.251-.492-.354-.12-.089-.254-.178-.373-.266-.283-.207-.507-.355-.671-.458-.776-.517-1.581-1.004-2.401-1.448-.492-.28-.925-.502-1.491-.768-2.341-1.122-4.832-1.964-7.426-2.496-.254-.059-.522-.103-.776-.147h-.104c-.448-.104-.91-.163-1.357-.222h-.149l-.03-.029h-.09c-.119-.03-.253-.045-.373-.06-.253-.029-.507-.059-.745-.073-.134 0-.269-.03-.418-.03-.283-.015-.551-.044-.805-.044h-.253c-1.343-.059-2.237-.015-2.297 0-.447 0-.91.044-1.372.074-.328.029-.656.044-1.014.088h-.134c-.701.089-1.476.192-2.386.369h-.075c-.402.089-.85.192-1.312.311-.403.088-.79.192-1.133.266l-1.253.398c-.402.118-.805.251-1.163.37-.686.221-1.536.576-2.416.989h-.015c-.76.355-1.551.753-2.281 1.167h-.03l-.03.029c-.954.532-1.834 1.064-2.46 1.522-2.386 1.743-2.58 1.89-3.997 3.22-1.774 1.683-2.833 3.072-3.355 3.736-1.476 1.935-2.386 3.619-2.684 4.18-1.059 1.979-1.536 3.279-1.984 4.535-.283.782-.462 1.344-.626 2.023-.224.812-.403 1.654-.567 2.526l-.059.31c-.179.871-.343 2.068-.373 2.954-.03.664-.09 1.551-.09 2.215 0 .665 0 1.536.06 2.201.045.739.075 1.049.149 1.699.09.812.209 1.595.358 2.363.045.266.104.502.164.753.06.295.134.576.194.827.03.133.089.325.149.532l.03.088c.06.222.134.473.224.754.015.059.029.118.059.177.254.827.597 1.831 1.044 2.895.104.236.224.546.403.916.045.103.089.206.134.31l.253.531c.06.104.135.252.179.37l.06.133v.029l.119.192c.045.104.12.222.179.325l.179.325v.03c.701 1.225 1.417 2.348 2.177 3.352l.075.104c.06.088.134.177.209.28v.03c.089.088.149.177.209.251l.432.547c.194.251.477.561.671.797.194.222.432.487.656.724.119.133.224.251.328.369.298.31.716.724 1.029 1.034.313.31.776.709 1.104 1.004.73.606 1.729 1.403 2.505 1.965.611.443 1.432.989 2.088 1.358.164.089.343.192.522.281.521.281 1.058.576 1.506.812l.551.251c.433.207.88.414 1.328.606l.223.103c.522.237 1.178.473 1.79.68.253.088.522.177.775.251.701.222 1.596.487 2.282.635h.074c.627.163 1.253.281 1.894.399.134.029.284.059.403.074l.731.088c.193.03.387.045.581.074l1.104.133c.417.044 1.207.118 2.46.103h.194c.656 0 1.417-.029 2.326-.088h.06c.895-.059 2.46-.207 4.429-.65h.045c.447-.118.924-.236 1.416-.369.209-.059.418-.118.641-.177.299-.089.597-.178.851-.252l.253-.088c.447-.148.895-.31 1.357-.488.641-.236 1.268-.487 1.789-.753.895-.413 1.82-.871 2.759-1.418.567-.325 1.134-.664 1.626-1.004.551-.355 1.088-.739 1.64-1.152.119-.089.239-.177.358-.281.731-.561 1.446-1.181 2.162-1.846l.075-.074.044-.044c.552-.517 1.104-1.078 1.656-1.669l-.03-.104Z"/><path fill="url(#b)" d="M872.871 747.772c.09-.192.179-.384.269-.59-.09.192-.179.384-.269.59Z"/><path fill="url(#c)" d="M817.486 716.962c.105-.147.209-.31.314-.443-.105.148-.209.296-.314.443Z"/><defs><linearGradient id="b" x1="872.902" x2="873.068" y1="747.514" y2="747.684" gradientUnits="userSpaceOnUse"><stop stop-color="#19B79C"/><stop offset=".4" stop-color="#1DBB9D"/><stop offset=".82" stop-color="#29C7A2"/><stop offset="1" stop-color="#31CFA6"/></linearGradient><linearGradient id="c" x1="817.584" x2="817.657" y1="716.834" y2="716.908" gradientUnits="userSpaceOnUse"><stop stop-color="#19B79C"/><stop offset=".4" stop-color="#1DBB9D"/><stop offset=".82" stop-color="#29C7A2"/><stop offset="1" stop-color="#31CFA6"/></linearGradient><radialGradient id="a" cx="0" cy="0" r="1" gradientTransform="matrix(25.76332 25.6782 -25.67856 25.76367 841.078 740.44)" gradientUnits="userSpaceOnUse"><stop stop-color="#F79F40"/><stop offset=".16" stop-color="#F7A442"/><stop offset=".37" stop-color="#F8B449"/><stop offset=".6" stop-color="#F9CE55"/><stop offset=".77" stop-color="#FBE660"/><stop offset=".91" stop-color="#FBF36F"/><stop offset=".93" stop-color="#FBF672"/><stop offset=".95" stop-color="#FBF676"/><stop offset=".96" stop-color="#FBF782"/><stop offset=".98" stop-color="#FBF897"/><stop offset=".99" stop-color="#FCFAB4"/><stop offset="1" stop-color="#FDFBC2"/></radialGradient></defs></svg>