<svg width="1440" height="1315" viewBox="0 0 1440 1315" fill="none" xmlns="http://www.w3.org/2000/svg">
<g id="mainSite__emoji--" clip-path="url(#clip0_241_14)">
<g id="a">
<g id="Group">
<g id="Group_2">
<g id="Group_3">
<path id="Vector" d="M1239.82 1134.97C1246.94 1065.51 1196.83 996.015 1131.23 954.864C1111.61 942.554 1090.79 932.265 1069.12 923.456C1018.3 902.775 962.864 890.341 907.864 879.226C861.474 869.858 814.657 861.177 768.578 852.169C725.637 843.75 683.321 834.967 642.199 823.404C586.134 807.711 532.235 786.549 484.677 755.729C459.749 739.582 436.958 720.83 416.816 699.802C376.147 657.233 347.303 606.788 321.907 555.451C313.609 538.68 305.587 521.777 297.543 504.962C268.848 445.008 238.755 384.436 192.802 334.259C186.379 327.238 179.641 320.435 172.536 313.877C114.606 260.504 29.5849 224.993 -50.2999 241.255L-32.7597 173.791C41.1637 147.684 128.418 171.896 192.407 216.9C200.212 222.415 207.715 228.225 214.9 234.297C266.47 277.801 303.571 333.209 339.379 388.466C349.412 403.959 359.389 419.524 369.611 434.925C400.823 482.007 435.683 528.194 480.412 565.2C502.645 583.532 527.159 599.343 553.661 611.99C604.232 636.116 659.268 648.243 715.817 656.274C757.16 662.222 799.336 666.081 841.937 671.421C887.739 677.131 934.091 684.715 979.574 694.682C1033.53 706.507 1086.9 721.892 1135.31 745.175C1155.9 755.064 1175.57 766.367 1194.03 779.38C1255.82 822.902 1302.77 889.353 1305.16 957.444L1239.82 1135.02L1239.82 1134.97Z" fill="#EB20DE"/>
</g>
<g id="Group_4">
<g id="Group_5" style="mix-blend-mode:overlay" opacity="0.8">
<g id="Group_6">
<path id="Vector_2" d="M1239.33 1135C1246.49 1065.48 1196.44 995.961 1130.88 954.816C1111.27 942.507 1090.47 932.222 1068.81 923.418C1018.02 902.749 962.61 890.337 907.634 879.244C861.265 869.894 814.468 861.233 768.411 852.243C725.489 843.841 683.191 835.075 642.089 823.527C586.052 807.853 532.183 786.705 484.659 755.887C459.749 739.742 436.976 720.989 416.853 699.956C376.223 657.377 347.418 606.91 322.06 555.548C313.775 538.769 305.765 521.858 297.734 505.035C269.083 445.051 239.036 384.45 193.127 334.261C186.71 327.238 179.978 320.433 172.88 313.875C115 260.494 30.0275 225.002 -49.8406 241.321L-32.2667 173.796C41.6478 147.629 128.86 171.81 192.801 216.813C200.6 222.328 208.097 228.138 215.276 234.211C266.803 277.719 303.86 333.148 339.624 388.427C349.644 403.927 359.61 419.498 369.819 434.905C400.993 482.005 435.815 528.207 480.507 565.217C502.722 583.55 527.219 599.359 553.704 612.002C604.244 636.118 659.256 648.224 715.781 656.23C757.107 662.159 799.267 665.998 841.851 671.319C887.634 677.007 933.967 684.571 979.429 694.521C1033.36 706.325 1086.71 721.691 1135.08 744.965C1155.66 754.85 1175.32 766.151 1193.76 779.164C1255.51 822.684 1302.4 889.159 1304.75 957.301L1239.33 1135.05L1239.33 1135Z" fill="white"/>
</g>
</g>
</g>
</g>
</g>
</g>
</g>
<defs>
<clipPath id="clip0_241_14">
<rect width="1440" height="1315" fill="white"/>
</clipPath>
</defs>
</svg>
