<svg xmlns="http://www.w3.org/2000/svg" width="1440" height="1315" fill="none"><path fill="#853100" d="m903.395 472.137-5.428 7.828c-.193.266-.462.488-.835.591l5.428-7.828c.358-.118.642-.325.835-.591Z"/><path fill="url(#a)" d="m874.69 481.487-5.414 7.828 27.871-8.759 5.413-7.828-27.87 8.759Z"/><path fill="url(#b)" d="m831.339 525.471-87.953-39.465c-12.899-5.79-20.028-19.496-15.942-30.603l39.518-107.54c.537-1.462 1.238-2.791 2.073-4.017l-5.428 7.828c-.835 1.211-1.536 2.555-2.073 4.017l-39.518 107.54c-4.086 11.107 3.057 24.828 15.942 30.603l87.953 39.465c11.214 5.036 23.069 2.422 28.676-5.657l5.428-7.828c-5.592 8.064-17.462 10.679-28.676 5.657Z"/><path fill="url(#c)" d="M766.962 347.849c4.086-11.122 17.85-15.449 30.749-9.66l87.954 39.466c12.899 5.789 20.027 19.496 15.941 30.617l-12.616 34.311 14.45 27.752c.254.503.284 1.02.134 1.448-.164.428-.507.768-.999.93l-27.871 8.759-12.616 34.325c-4.086 11.107-17.85 15.434-30.749 9.659l-87.953-39.465c-12.899-5.789-20.028-19.496-15.942-30.603l39.518-107.539Z"/><path fill="url(#d)" d="m903.44 470.351-14.45-27.753 12.616-34.31c4.086-11.122-3.042-24.829-15.941-30.618l-87.953-39.465c-12.9-5.79-26.664-1.463-30.75 9.659l-39.517 107.539c-4.086 11.107 3.057 24.829 15.941 30.604l87.953 39.465c12.899 5.789 26.663 1.462 30.749-9.66l12.616-34.325 27.871-8.759c.492-.162.85-.502 1-.93.164-.428.119-.945-.135-1.447Zm-.402 1.255c-.105.281-.328.487-.642.576l-28.139 8.847-12.705 34.591c-2.685 7.311-9.813 11.846-18.611 11.846-3.758 0-7.695-.872-11.363-2.511l-87.954-39.48c-12.601-5.657-19.624-19.068-15.643-29.894l39.518-107.54c2.684-7.311 9.827-11.86 18.626-11.86 3.817 0 7.635.842 11.363 2.511l87.953 39.48c12.616 5.657 19.625 19.082 15.643 29.909l-12.69 34.546 14.569 27.975c.179.339.209.694.104.989l-.029.015Z" opacity=".5" style="mix-blend-mode:overlay"/><path fill="url(#e)" d="M773.867 437.723c-4.802 13.072 3.012 28.905 17.462 35.404 15.3 6.868 30.242 1.905 41.53-3.176 7.785-3.5 14.197-7.385 14.898-7.813l14.017-8.567-4.31-16.97c-.208-.857-2.192-8.64-5.428-17.207-4.712-12.554-12.108-27.871-27.692-34.857-14.435-6.484-30.048-1.152-34.849 11.919-3.251 8.848-.701 18.995 5.786 26.631-9.664.324-18.119 5.642-21.414 14.651"/><defs><linearGradient id="a" x1="869.276" x2="902.56" y1="481.014" y2="481.014" gradientUnits="userSpaceOnUse"><stop stop-color="#FB2A60"/><stop offset=".18" stop-color="#DA2458"/><stop offset=".42" stop-color="#B71D4F"/><stop offset=".64" stop-color="#9E1849"/><stop offset=".84" stop-color="#8F1545"/><stop offset="1" stop-color="#8A1544"/></linearGradient><linearGradient id="b" x1="731.158" x2="861.779" y1="412.097" y2="465.282" gradientUnits="userSpaceOnUse"><stop offset=".05" stop-color="#FB2A60"/><stop offset=".06" stop-color="#F4285E"/><stop offset=".08" stop-color="#E22559"/><stop offset=".1" stop-color="#C41F52"/><stop offset=".12" stop-color="#9C1848"/><stop offset=".13" stop-color="#8A1544"/></linearGradient><linearGradient id="c" x1="740.15" x2="890.934" y1="368.955" y2="498.912" gradientUnits="userSpaceOnUse"><stop stop-color="#FC658D"/><stop offset=".46" stop-color="#FB4474"/><stop offset="1" stop-color="#FB1A55"/></linearGradient><linearGradient id="d" x1="728.563" x2="883.791" y1="342.636" y2="506.829" gradientUnits="userSpaceOnUse"><stop stop-color="#fff"/><stop offset=".02" stop-color="#fff" stop-opacity=".97"/><stop offset=".5" stop-color="#fff" stop-opacity=".46"/><stop offset=".82" stop-color="#fff" stop-opacity=".13"/><stop offset=".97" stop-color="#fff" stop-opacity="0"/></linearGradient><linearGradient id="e" x1="777.654" x2="890.534" y1="411.965" y2="476.21" gradientUnits="userSpaceOnUse"><stop stop-color="#FFE8EE"/><stop offset=".31" stop-color="#FEC7D5"/><stop offset=".98" stop-color="#FC7498"/><stop offset="1" stop-color="#FC7397"/></linearGradient></defs></svg>