<svg xmlns="http://www.w3.org/2000/svg" width="1440" height="1315" fill="none"><path fill="url(#a)" d="M767 271.4v-.2a6.3 6.3 0 0 1-.3-2.6V268l.2-.5V267.2l.4-.8v-.1l.1-.1v-.1l.5-.7.2-.3h.1l.3-.4.2-.1v-.1h.2c0-.2.2-.3.3-.4 0 0 .2 0 .3-.2a5.9 5.9 0 0 1 2.7-1h1.5l.2.1h.4l1 .4h.1l.3.2.5.3c1 .6 1.7 1.4 2.2 2.3v.1l.2.4.2.4V267.5l.1.2v.3l.1.2a6 6 0 0 1-.2 3v.2h-.1c-.3.9-.7 1.5-1.3 2-.8 1-2 1.6-3 1.9h-.4l-.2.1h-2.1a7 7 0 0 1-1.3-.4l-.3-.2-.4-.2-.8-.5v-.1h-.2l-1.1-1.4v-.1l-.6-1Z"/><defs><radialGradient id="a" cx="0" cy="0" r="1" gradientTransform="matrix(-6.6828 -3.5134 3.4945 -6.6468 755.2 264.7)" gradientUnits="userSpaceOnUse"><stop offset="0" stop-color="#BCDEE7"/><stop offset=".5" stop-color="#BDDEE7"/><stop offset=".6" stop-color="#C5E2EA"/><stop offset=".8" stop-color="#D1E8EE"/><stop offset=".9" stop-color="#E2F1F4"/><stop offset="1" stop-color="#F9FCFC"/><stop offset="1" stop-color="#fff"/></radialGradient></defs></svg>