<svg width="1440" height="1315" viewBox="0 0 1440 1315" fill="none" xmlns="http://www.w3.org/2000/svg">
<g id="mainSite__emoji--" clip-path="url(#clip0_241_14)">
<g id="a">
<g id="Group">
<g id="Group_2">
<g id="Group_3">
<path id="Vector" d="M1305.09 957.76C1302.71 889.653 1255.77 823.187 1193.96 779.654C1175.48 766.652 1155.81 755.331 1135.23 745.44C1086.82 722.152 1033.44 706.749 979.48 694.936C933.992 684.966 887.636 677.38 841.829 671.669C799.224 666.328 757.044 662.467 715.697 656.518C659.143 648.486 604.1 636.355 553.525 612.224C527.004 599.572 502.504 583.759 480.268 565.422C435.517 528.421 400.67 482.224 369.457 435.116C359.234 419.711 349.255 404.143 339.222 388.645C303.41 333.375 266.305 277.954 214.73 234.44C207.544 228.366 200.041 222.555 192.235 217.038C128.24 172.023 40.9932 147.807 -32.9543 173.919L-15.4124 106.44C52.5731 70.4798 142.036 83.4072 212.108 120.037C220.631 124.513 228.882 129.329 236.829 134.453C294.006 171.277 338.154 221.551 381.062 272.121C393.085 286.282 405.018 300.526 417.166 314.561C454.196 357.398 495.059 399.351 543.888 430.774C568.216 446.399 594.438 459.285 622.551 468.423C676.156 485.859 732.304 488.936 789.358 489.32C830.925 489.653 872.983 488.575 915.231 490.836C960.761 493.248 1006.67 499.752 1051.23 510.305C1104.13 522.827 1155.47 541.182 1201.46 567.074C1220.97 578.044 1239.49 590.365 1256.82 604.072C1314.81 649.975 1358.59 713.4 1370.47 780.13L1305.13 957.748L1305.09 957.76Z" fill="#B829EC"/>
</g>
<g id="Group_4">
<g id="Group_5" style="mix-blend-mode:overlay" opacity="0.8">
<g id="Group_6">
<path id="Vector_2" d="M1304.66 957.788C1302.31 889.622 1255.43 823.124 1193.66 779.588C1175.19 766.585 1155.53 755.264 1134.96 745.377C1086.58 722.095 1033.23 706.708 979.289 694.915C933.82 684.962 887.481 677.395 841.691 671.704C799.101 666.382 756.934 662.541 715.603 656.61C659.069 648.602 604.049 636.491 553.502 612.367C526.996 599.719 502.512 583.905 480.293 565.565C435.577 528.556 400.767 482.338 369.589 435.207C359.378 419.794 349.411 404.218 339.39 388.713C303.621 333.414 266.558 277.965 215.023 234.442C207.843 228.366 200.345 222.555 192.545 217.038C128.594 172.019 41.3861 147.83 -32.5559 174.006L-14.9794 106.458C53.0082 70.429 142.438 83.3182 212.469 119.941C220.987 124.416 229.233 129.232 237.175 134.356C294.315 171.18 338.42 221.473 381.287 272.064C393.298 286.23 405.22 300.481 417.356 314.521C454.351 357.374 495.177 399.341 543.974 430.764C568.286 446.389 594.493 459.272 622.593 468.403C676.172 485.824 732.303 488.873 789.341 489.225C830.896 489.536 872.943 488.434 915.178 490.673C960.694 493.062 1006.58 499.547 1051.13 510.084C1104 522.588 1155.32 540.93 1201.28 566.819C1220.78 577.787 1239.28 590.11 1256.6 603.818C1314.55 649.729 1358.29 713.186 1370.12 779.967L1304.69 957.775L1304.66 957.788Z" fill="white"/>
</g>
</g>
</g>
</g>
</g>
</g>
</g>
<defs>
<clipPath id="clip0_241_14">
<rect width="1440" height="1315" fill="white"/>
</clipPath>
</defs>
</svg>
