<svg xmlns="http://www.w3.org/2000/svg" width="1440" height="1315" fill="none"><path fill="url(#a)" d="m1038.4 221.5 1.5-1.8.2-.3.3-.4c2.5-3.3 4.3-7 5.3-11 0-.5.2-1 .3-1.4a32 32 0 0 0 .2-11.4v-.1l-.1-.4-.3-1.3-.1-.7-.1-.4-.1-.2v-.3l-1.5-4-.3-.7-.2-.3v-.2h-.1l-.2-.4v-.1l-.2-.3-.2-.3-.1-.3-.1-.1v-.1l-.1-.1-.2-.3a3.5 3.5 0 0 0-.3-.5v-.2l-.3-.3v-.2l-.3-.3-.1-.2-.1-.1-.1-.2-.1-.1-.2-.2v-.2l-.2-.2-.2-.2v-.1l-.2-.2-.1-.2-.2-.3-.3-.2c0-.2-.1-.3-.2-.3 0-.2-.2-.3-.3-.4l-.2-.2-.2-.3-.2-.2-.2-.2-.1-.1-.1-.1-.1-.2-1.4-1.3-.3-.3-.3-.3-.2-.1-.5-.4-.1-.2-.7-.5-.3-.2a4 4 0 0 0-.6-.4l-.3-.3-.7-.5a31.2 31.2 0 0 0-11.3-4.7l-.8-.1h-.1l-1.4-.2h-.2l-.4-.1-.7-.1H1011.4l-2.4.4h-.1l-1.3.4-1.1.2-1.3.4-1.2.4-2.4 1-2.3 1.1-2.5 1.6a30.1 30.1 0 0 0-4 3.2 30.6 30.6 0 0 0-9.2 17v.3c-.2.9-.4 2-.4 3l-.1 2.2a27.4 27.4 0 0 0 .5 6.3l.2.7.2.8.1.6.3.8v.2l1.1 2.9.4.9.1.3.3.5.2.4v.1l.2.3.1.3.2.3c.7 1.3 1.4 2.4 2.2 3.4v.1l.3.3.2.3.4.5.7.8a26.3 26.3 0 0 0 1 1.1l1 1 1.1 1a54.7 54.7 0 0 0 4.6 3.4l.5.2 1.5.9.6.2 1.3.6.2.1a21.6 21.6 0 0 0 2.6 1l2.3.6a27.9 27.9 0 0 0 2.3.5h.8l.5.1 1.2.1c.4 0 1.2.2 2.4.1h2.6c.9-.1 2.5-.2 4.4-.7l1.5-.4.6-.1.9-.3h.2a28 28 0 0 0 7.6-3.8 28.2 28.2 0 0 0 4.1-3.2l.1-.1 1.7-1.7Z"/><path fill="url(#b)" d="m1044.3 212.5.2-.6-.2.6Z"/><path fill="url(#c)" d="m988.9 181.7.3-.5c0 .2-.2.3-.3.5Z"/><defs><linearGradient id="b" x1="1044.3" x2="1044.4" y1="212.2" y2="212.4" gradientUnits="userSpaceOnUse"><stop stop-color="#19B79C"/><stop offset=".4" stop-color="#1DBB9D"/><stop offset=".8" stop-color="#29C7A2"/><stop offset="1" stop-color="#31CFA6"/></linearGradient><linearGradient id="c" x1="988.9" x2="989" y1="181.5" y2="181.6" gradientUnits="userSpaceOnUse"><stop stop-color="#19B79C"/><stop offset=".4" stop-color="#1DBB9D"/><stop offset=".8" stop-color="#29C7A2"/><stop offset="1" stop-color="#31CFA6"/></linearGradient><radialGradient id="a" cx="0" cy="0" r="1" gradientTransform="rotate(44.9 258 1327.6) scale(36.3747 36.3752)" gradientUnits="userSpaceOnUse"><stop stop-color="#F79F40"/><stop offset=".2" stop-color="#F7A442"/><stop offset=".4" stop-color="#F8B449"/><stop offset=".6" stop-color="#F9CE55"/><stop offset=".8" stop-color="#FBE660"/><stop offset=".9" stop-color="#FBF36F"/><stop offset=".9" stop-color="#FBF672"/><stop offset=".9" stop-color="#FBF676"/><stop offset="1" stop-color="#FBF782"/><stop offset="1" stop-color="#FBF897"/><stop offset="1" stop-color="#FCFAB4"/><stop offset="1" stop-color="#FDFBC2"/></radialGradient></defs></svg>