<svg xmlns="http://www.w3.org/2000/svg" width="1440" height="1315" fill="none"><path fill="url(#a)" d="m733.1 730.5.2-.2c.4-.4 2.6-2.7 5.6-6.5l.8-1 1-1.5a116 116 0 0 0 21.5-88.4v-.3l-.1-.4-.2-1.2-1-4.9v-.2a80.2 80.2 0 0 0-1-3.8l-.3-1-.2-.8a116 116 0 0 0-6.6-17.7l-.4-.9-.5-.8v-.1l-.1-.2-.7-1.4v-.2l-.2-.2-.5-.9-.6-1.2-.6-1a11.2 11.2 0 0 0-.4-.8l-.1-.2-.2-.3-.7-1.1-.5-1-.5-.9-.4-.6-.7-1-.5-.8-.6-1-.1-.2-.5-.7-.3-.5-.4-.5v-.1l-.2-.2-.2-.3-.5-.8-.4-.5a40 40 0 0 0-.6-.9l-.6-.7-.3-.4-.5-.7-.5-.6-.8-1-.7-1-.3-.3v-.1l-.8-.9-1-1.2-.8-.9-.8-1-.9-1-.5-.5-.5-.5-.4-.4-.4-.5-5-5-1.2-1-1.2-1-.7-.7-1.7-1.5-.6-.5-2.5-2-1.1-.8-.3-.2a149.7 149.7 0 0 0-5.7-4 116.2 116.2 0 0 0-42-17.6l-3-.5h-.3l-5-.9H660.4l-.2-.1-1.4-.2-2.8-.2-1.5-.2-3-.2H650.6c-5-.2-8.4 0-8.6 0a100 100 0 0 0-8.8.5h-.5l-8.9 1.4h-.2l-5 1.1-4.1 1-4.7 1.5-4.3 1.4c-2.6.8-5.7 2-9 3.6a162 162 0 0 0-8.5 4.3h-.1l-.2.1a87 87 0 0 0-9.1 5.7c-8.9 6.5-9.6 7-14.8 12-6.6 6.2-10.6 11.4-12.5 13.8a113 113 0 0 0-10 15.6c-3.9 7.3-5.6 12.2-7.3 16.8-1 3-1.8 5-2.4 7.5-.8 3-1.5 6.2-2 9.4a75.7 75.7 0 0 0-1.6 12.1c-.2 2.5-.5 5.8-.5 8.2a106.7 106.7 0 0 0 2.2 23.3l.6 2.8.7 3 .5 2 .1.4.9 2.8.2.6a109.6 109.6 0 0 0 5.3 14.2l.6 1.1.9 2 .7 1.4.2.4v.1l.5.8.6 1.2.6 1.1.1.2a111 111 0 0 0 8 12.4l.3.4.8 1v.1l.7 1 1.6 2c.8.9 1.8 2 2.5 3l2.5 2.7 1.2 1.3 3.9 3.8c1.1 1.2 2.8 2.6 4 3.7 2.8 2.3 6.5 5.3 9.4 7.3a91.2 91.2 0 0 0 15.2 9.1l2.1 1 5 2.2.8.4a77.8 77.8 0 0 0 9.5 3.5c2.6.8 6 1.8 8.5 2.3h.3c2.3.6 4.6 1 7 1.5l1.5.3 2.7.3 2.2.2 4 .5c1.6.2 4.6.4 9.2.4h.7c2.4 0 5.3 0 8.7-.3h.2c3.3-.2 9.1-.8 16.5-2.4h.2a120 120 0 0 0 10.7-3l1-.3a112.7 112.7 0 0 0 11.7-4.6 120.6 120.6 0 0 0 22.4-13.3l1.3-1c2.7-2.1 5.4-4.4 8-6.8l.3-.3.2-.2c2-2 4.1-4 6.1-6.2v.1Z"/><path fill="url(#b)" d="m755 697 1-2.3-1 2.2Z"/><path fill="url(#c)" d="M549.3 582.5Z"/><path fill="#412121" d="M725.8 634.7a242.9 242.9 0 0 1-48 35.8 204.7 204.7 0 0 1-49 17.3c-1.2.3-2.5.5-3.4 1.5-7.2 8.3 18.4 29.8 23.4 33l-.5-.3c22-28.5 63.8-51 87.5-47.5 2.2-20.5-3.8-44-10-39.8"/><path fill="#FF3B62" d="M691.6 686.2a134.8 134.8 0 0 0-43.3 35.8c42.8 28.9 82.2-1.8 87.5-47.5-11.5-1.9-26.4 2-44.2 11.7"/><path fill="#412121" d="M594.7 622.5c-4.7 2.1-4 9.5.1 11.3l.5.1c8.5 2.4 14.1 4 27.3 6.5a2580 2580 0 0 0-17.4 24c-1.6 5 2.8 9.6 7 9 2-.4 3-1.7 3.3-2.1 20.2-27.4 23-32 23.4-32.6 1.4-3.3-.5-8-5-8.8a283 283 0 0 1-36.5-7.5 4 4 0 0 0-2.7.1M684.3 574c-.6.4-.7.8-.8 1.7-.2 8.5-.3 14.6-5.2 30.1-.2.8-.2 1.4-.2 1.8a7.4 7.4 0 0 0 6.9 6.9 482 482 0 0 1 34.2 1c3.2-.8 2.8-6.4-.6-9.8-1.7-1.6-3.1-1.8-3.7-1.9-6.3-.3-12.1-.7-23.3-.8 3.6-16.8 3-22.1 2.7-23.7-.9-3.6-7.1-7.1-9.8-5.5l-.2.1"/><defs><linearGradient id="b" x1="755.2" x2="755.8" y1="695.7" y2="696.3" gradientUnits="userSpaceOnUse"><stop stop-color="#19B79C"/><stop offset=".4" stop-color="#1DBB9D"/><stop offset=".8" stop-color="#29C7A2"/><stop offset="1" stop-color="#31CFA6"/></linearGradient><linearGradient id="c" x1="549.7" x2="550" y1="581.7" y2="582" gradientUnits="userSpaceOnUse"><stop stop-color="#19B79C"/><stop offset=".4" stop-color="#1DBB9D"/><stop offset=".8" stop-color="#29C7A2"/><stop offset="1" stop-color="#31CFA6"/></linearGradient><radialGradient id="a" cx="0" cy="0" r="1" gradientTransform="matrix(95.707 95.3898 -95.3912 95.7084 637 669.8)" gradientUnits="userSpaceOnUse"><stop stop-color="#F79F40"/><stop offset=".2" stop-color="#F7A442"/><stop offset=".4" stop-color="#F8B449"/><stop offset=".6" stop-color="#F9CE55"/><stop offset=".8" stop-color="#FBE660"/><stop offset=".9" stop-color="#FBF36F"/><stop offset=".9" stop-color="#FBF672"/><stop offset=".9" stop-color="#FBF676"/><stop offset="1" stop-color="#FBF782"/><stop offset="1" stop-color="#FBF897"/><stop offset="1" stop-color="#FCFAB4"/><stop offset="1" stop-color="#FDFBC2"/></radialGradient></defs></svg>