<svg xmlns="http://www.w3.org/2000/svg" width="1440" height="1315" fill="none"><path fill="url(#a)" d="m1039.44 434.637.06-.089c.11-.162.73-1.122 1.55-2.629.08-.133.15-.266.21-.399.1-.192.21-.384.31-.591 2.51-4.933 3.96-10.22 4.36-15.582v-.044c.04-.576.07-1.167.09-1.758.09-2.806-.11-5.612-.6-8.374-.21-1.3-.55-2.806-.91-4.032-.24-.827-.49-1.655-.79-2.482 0-.044-.03-.088-.04-.118l-.05-.103c-.04-.133-.1-.281-.15-.414-.19-.531-.4-1.078-.65-1.669l-.03-.074c-.12-.28-.24-.576-.39-.871l-.18-.399c-.06-.118-.1-.221-.16-.34-.05-.088-.09-.177-.14-.265-.8-1.684-1.74-3.324-2.79-4.919-.27-.413-.47-.723-.61-.901l-.19-.28-.2-.266-.03-.045-.04-.059c-.09-.133-.22-.31-.33-.443l-.04-.059-.05-.059-.22-.295c-.09-.118-.21-.266-.3-.384l-.27-.325-.15-.177-.04-.06-.06-.059-.09-.103-.3-.354c-.07-.089-.16-.207-.25-.296-.08-.088-.17-.192-.24-.28l-.15-.192c-.09-.104-.21-.237-.3-.34l-.21-.236c-.09-.104-.19-.207-.28-.311l-.05-.059c-.07-.074-.15-.162-.22-.236l-.13-.133-.17-.162-.03-.03-.06-.059-.09-.089c-.07-.088-.16-.162-.24-.251-.06-.059-.1-.103-.14-.162-.09-.089-.18-.177-.27-.266l-.24-.222s-.09-.088-.15-.133c-.08-.073-.15-.133-.21-.206l-.21-.192c-.12-.104-.24-.207-.34-.311l-.33-.28s-.07-.059-.1-.089h-.03c-.09-.103-.2-.192-.3-.28-.15-.133-.3-.252-.45-.384-.1-.089-.21-.178-.31-.266-.12-.104-.24-.192-.36-.281-.12-.103-.24-.192-.37-.295-.08-.059-.15-.118-.23-.178l-.21-.162s-.1-.074-.16-.118c-.06-.045-.12-.089-.18-.133-.67-.502-1.37-.99-2.07-1.448-.17-.103-.31-.206-.45-.295-.16-.103-.31-.207-.48-.295-.1-.059-.19-.119-.28-.178-.24-.147-.46-.28-.7-.413-.07-.044-.16-.089-.24-.148-.34-.192-.67-.369-.98-.546-.15-.089-.32-.163-.47-.237 0 0-.05-.029-.08-.044-.26-.133-.5-.251-.72-.354-.18-.089-.36-.178-.55-.266-.42-.192-.75-.355-.97-.458-1.13-.502-2.28-.96-3.46-1.359-.7-.251-1.33-.443-2.12-.665-3.31-.945-6.74-1.491-10.23-1.61-.34 0-.7-.014-1.04-.029h-.14c-.59 0-1.2 0-1.82.029h-.37c-.16.015-.33.03-.51.03-.34.015-.67.044-.99.074-.18 0-.36.029-.557.044-.372.03-.73.074-1.058.118h-.09c-.074.015-.164.03-.238.045-1.775.221-2.923.472-2.998.487-.581.118-1.178.251-1.759.399-.418.103-.85.207-1.313.34l-.089.029-.075.03c-.909.251-1.894.561-3.027.989h-.045l-.044.03c-.522.192-1.074.428-1.641.664-.492.207-.984.429-1.401.606l-1.536.798c-.507.251-.985.502-1.432.738-.85.443-1.864 1.093-2.938 1.817h-.015c-.909.635-1.849 1.329-2.714 2.023l-.029.03-.03.029c-1.134.901-2.148 1.787-2.863 2.526-2.714 2.806-2.938 3.028-4.474 5.081-1.924 2.584-2.997 4.637-3.519 5.612-1.492 2.836-2.297 5.244-2.55 6.041-.94 2.806-1.253 4.608-1.566 6.351-.194 1.078-.298 1.846-.373 2.762-.104 1.108-.149 2.26-.164 3.412v.414c-.06 1.181 0 2.761.164 3.943.105.871.224 2.038.373 2.895.149.857.358 1.994.567 2.851.223.945.328 1.344.581 2.171.298 1.034.641 2.038 1.014 3.013.12.325.239.635.373.945.149.369.298.724.447 1.034.075.162.179.399.314.65l.059.118c.134.266.283.576.448.93.044.074.074.148.119.222.522 1.019 1.193 2.26 2.013 3.53.179.281.417.65.731 1.108.089.133.164.251.253.369l.448.635c.089.133.223.31.328.443l.119.148.03.029.179.237c.089.118.208.266.298.384l.298.369.03.03c1.163 1.462 2.356 2.747 3.564 3.899l.119.103c.105.104.224.207.343.325l.03.03c.105.103.209.192.298.28l.686.621c.313.28.746.635 1.059.901.298.251.671.531 1.014.812h.015c.179.148.358.281.507.399.462.339 1.104.783 1.566 1.107.477.34 1.163.739 1.655 1.064 1.089.635 2.565 1.447 3.698 1.994.88.428 2.088.975 3.028 1.3.238.088.477.162.73.251.731.251 1.506.517 2.148.738l.79.207c.626.177 1.238.34 1.864.487l.313.089c.731.192 1.655.354 2.49.487.358.059.716.119 1.074.163.969.148 2.181.295 3.121.31h.1c.85.059 1.7.074 2.57.074h.53l.97-.044c.25 0 .52-.03.78-.045l1.46-.074c.56-.029 1.59-.118 3.23-.398h.08l.16-.045c.85-.147 1.84-.354 3.01-.62.03 0 .06 0 .08-.015 1.15-.266 3.16-.812 5.64-1.831l.06-.03c.56-.236 1.16-.487 1.77-.768.25-.118.52-.251.79-.384.37-.177.73-.354 1.04-.517.11-.059.21-.118.32-.177.55-.295 1.1-.606 1.67-.931.77-.443 1.55-.93 2.16-1.373 1.09-.739 2.18-1.551 3.27-2.452.67-.546 1.32-1.108 1.89-1.669.63-.591 1.25-1.211 1.88-1.861.15-.148.28-.295.42-.443.82-.901 1.61-1.846 2.4-2.88l.09-.104.04-.073c.61-.813 1.19-1.655 1.78-2.541l-.05.03Z"/><defs><radialGradient id="a" cx="0" cy="0" r="1" gradientTransform="matrix(37.66564 26.57088 -26.48666 37.54626 1005.2 416.867)" gradientUnits="userSpaceOnUse"><stop offset=".7" stop-color="#DC3BEE"/><stop offset=".74" stop-color="#DC3FEE"/><stop offset=".78" stop-color="#DE4BEF"/><stop offset=".83" stop-color="#E260F1"/><stop offset=".87" stop-color="#E77DF3"/><stop offset=".92" stop-color="#EEA3F7"/><stop offset=".96" stop-color="#F6D0FB"/><stop offset="1" stop-color="#fff"/></radialGradient></defs></svg>