<svg xmlns="http://www.w3.org/2000/svg" width="1440" height="1315" fill="none"><path fill="url(#a)" d="M405.368 331.086c.372-.089.745-.192 1.103-.281.492-.133.97-.281 1.432-.428.358-.118.701-.237 1.059-.355.462-.162.909-.339 1.357-.531.328-.133.671-.281.984-.429.432-.207.865-.413 1.282-.65.299-.162.612-.31.91-.487.432-.251.835-.517 1.253-.783.268-.177.536-.34.805-.532.432-.31.85-.649 1.267-.989.209-.163.418-.325.627-.502.596-.517 1.178-1.079 1.73-1.655l6.829-7.266c-.551.59-1.133 1.137-1.729 1.654-.194.177-.418.325-.627.502-.417.34-.835.679-1.267.99-.254.177-.537.354-.806.531-.402.266-.82.532-1.252.783-.298.177-.597.325-.91.488-.417.221-.85.443-1.282.649-.328.148-.656.296-.985.429-.447.177-.894.369-1.357.531-.343.133-.7.252-1.058.355-.478.148-.955.295-1.432.428-.373.104-.731.192-1.103.296-.507.118-1.015.221-1.536.325-.373.073-.761.147-1.134.221-.492.089-.999.148-1.491.207-.477.059-.954.133-1.432.177-.507.044-1.029.089-1.536.118-.492.03-.984.074-1.491.089-.522.015-1.059.015-1.61.03h-1.566c-.552 0-1.104-.045-1.67-.06-.537-.029-1.074-.044-1.626-.088-.566-.045-1.148-.104-1.73-.148-.551-.059-1.103-.103-1.67-.162-.596-.074-1.193-.148-1.789-.237-.567-.074-1.134-.147-1.715-.251-.612-.103-1.238-.207-1.849-.325-.582-.103-1.178-.206-1.76-.325-.626-.133-1.268-.265-1.909-.413-.596-.133-1.208-.266-1.819-.399-.582-.133-1.178-.295-1.775-.443-.715-.177-1.446-.369-2.177-.576-.596-.163-1.208-.355-1.819-.532-.731-.207-1.462-.428-2.207-.664-.627-.192-1.253-.399-1.879-.606-.746-.236-1.491-.487-2.237-.739-.641-.221-1.282-.457-1.924-.679-.76-.266-1.506-.546-2.281-.842-.656-.251-1.313-.502-1.969-.753-.76-.295-1.536-.606-2.311-.916-.671-.266-1.327-.546-1.998-.827-.776-.325-1.566-.665-2.342-1.004-.671-.296-1.357-.591-2.028-.901-.79-.355-1.58-.724-2.386-1.093-.686-.325-1.372-.635-2.058-.975-.805-.384-1.61-.783-2.415-1.182-.701-.339-1.387-.694-2.088-1.048-.805-.414-1.626-.842-2.446-1.256-.701-.369-1.402-.738-2.102-1.107-.821-.444-1.656-.901-2.491-1.359-.701-.384-1.402-.768-2.117-1.167-.85-.473-1.7-.96-2.55-1.462-.701-.399-1.387-.798-2.088-1.211-.865-.517-1.745-1.034-2.61-1.566-.686-.414-1.372-.827-2.058-1.241-.894-.546-1.804-1.122-2.699-1.683-.671-.414-1.327-.828-1.998-1.256-.94-.605-1.879-1.226-2.819-1.846-.641-.414-1.267-.827-1.908-1.256-1.044-.694-2.088-1.417-3.132-2.126-.537-.37-1.074-.724-1.596-1.093-1.58-1.093-3.161-2.216-4.742-3.368-1.64-1.182-3.251-2.378-4.861-3.574-.537-.414-1.074-.827-1.611-1.226-1.043-.798-2.102-1.595-3.131-2.393-.627-.487-1.238-.989-1.864-1.477-.925-.738-1.849-1.462-2.759-2.201-.641-.531-1.283-1.048-1.924-1.58-.865-.709-1.73-1.418-2.58-2.142-.656-.546-1.297-1.107-1.938-1.654-.82-.694-1.641-1.403-2.431-2.097-.641-.561-1.282-1.137-1.924-1.713-.775-.695-1.551-1.389-2.326-2.083-.641-.576-1.253-1.152-1.879-1.743-.746-.694-1.491-1.388-2.222-2.082-.626-.591-1.223-1.182-1.834-1.773-.716-.694-1.432-1.373-2.118-2.068-.596-.59-1.193-1.196-1.789-1.787-.686-.694-1.357-1.373-2.028-2.067-.582-.606-1.148-1.197-1.73-1.802-.656-.68-1.297-1.374-1.939-2.068-.551-.606-1.103-1.196-1.655-1.802-.626-.694-1.238-1.374-1.849-2.068-.537-.605-1.059-1.196-1.581-1.802-.596-.694-1.193-1.373-1.774-2.068-.507-.59-.999-1.196-1.492-1.787-.566-.694-1.133-1.388-1.685-2.082-.477-.591-.954-1.182-1.416-1.773-.537-.694-1.059-1.388-1.596-2.067-.447-.591-.895-1.182-1.327-1.758-.507-.694-1.014-1.388-1.506-2.083-.418-.576-.835-1.152-1.238-1.742-.507-.739-1.014-1.477-1.506-2.216-.343-.502-.686-1.004-.999-1.506-.522-.798-1.014-1.581-1.492-2.364-.283-.443-.566-.886-.835-1.329-.596-.989-1.163-1.964-1.729-2.954-.135-.236-.284-.472-.418-.709-.686-1.211-1.327-2.422-1.939-3.618-.179-.34-.328-.68-.507-1.034-.417-.857-.85-1.699-1.237-2.541-.209-.443-.388-.886-.597-1.344-.328-.724-.641-1.462-.939-2.186-.194-.487-.373-.96-.567-1.432-.268-.68-.522-1.359-.761-2.024-.179-.487-.343-.975-.492-1.462-.253-.739-.492-1.477-.715-2.216-.06-.192-.12-.384-.165-.576-.283-1.004-.551-1.994-.775-2.983-.045-.177-.075-.355-.119-.547-.224-1.019-.433-2.023-.582-3.013 0-.044 0-.088-.015-.147-.149-.975-.268-1.92-.358-2.866 0-.147-.029-.31-.044-.458-.075-.93-.12-1.861-.135-2.776v-.532c0-.916.03-1.817.09-2.703 0-.118.03-.221.03-.34.074-.856.179-1.713.313-2.555.015-.088.03-.177.045-.28.149-.857.343-1.699.551-2.541.045-.162.09-.325.135-.472.223-.813.492-1.61.79-2.393.045-.133.104-.266.164-.399.328-.812.671-1.61 1.074-2.393 1.103-2.141 2.445-4.032 3.996-5.686l-6.83 7.267c-1.551 1.654-2.893 3.544-3.996 5.686-.403.783-.746 1.58-1.074 2.393-.06.133-.104.266-.164.399-.298.782-.552 1.58-.79 2.392-.045.163-.09.31-.135.473-.223.827-.402 1.669-.551 2.54-.015.089-.03.178-.045.281-.134.842-.239 1.684-.313 2.555 0 .118-.03.222-.03.34-.06.886-.089 1.787-.089 2.703v.531c0 .916.059 1.832.134 2.777 0 .148.03.31.044.458.09.945.209 1.905.358 2.865 0 .045 0 .089.015.148.164.99.358 1.994.582 3.013.045.177.074.355.119.547.224.989.492 1.979.776 2.983.059.192.119.384.164.576.089.325.179.635.283.96.134.414.283.827.432 1.256.164.487.329.974.507 1.477.239.664.507 1.344.761 2.023.194.473.373.96.567 1.448.298.723.626 1.447.939 2.171.194.443.388.901.597 1.344.387.842.82 1.698 1.237 2.555.164.34.328.679.507 1.019.612 1.196 1.268 2.408 1.939 3.619.134.236.283.487.418.723.551.975 1.118 1.95 1.714 2.94.269.443.552.886.836 1.329.492.798.984 1.58 1.506 2.378.328.502.671 1.004.999 1.506.373.562.731 1.123 1.118 1.684.12.177.254.355.373.532.403.576.82 1.152 1.223 1.728.492.694.999 1.388 1.506 2.083.433.59.88 1.181 1.327 1.757.522.694 1.044 1.374 1.596 2.068.462.591.939 1.181 1.417 1.772.551.694 1.118 1.389 1.685 2.068.492.591.984 1.196 1.491 1.787.581.694 1.178 1.389 1.774 2.068.522.591 1.044 1.196 1.566 1.787.612.694 1.223 1.374 1.849 2.068.552.606 1.089 1.196 1.656 1.802.641.694 1.282 1.373 1.938 2.068.567.59 1.134 1.196 1.715 1.787.671.694 1.357 1.388 2.043 2.068.582.59 1.178 1.181 1.775 1.772.701.694 1.416 1.388 2.132 2.083.612.59 1.208 1.166 1.834 1.757.731.694 1.477 1.389 2.237 2.083.627.576 1.238 1.152 1.879 1.728.761.694 1.551 1.388 2.327 2.082.641.562 1.267 1.138 1.923 1.699.806.709 1.626 1.403 2.446 2.112.641.546 1.282 1.108 1.924 1.654.85.724 1.715 1.433 2.594 2.142.642.531 1.268 1.048 1.909 1.58.91.739 1.849 1.477 2.774 2.216.626.487 1.238.989 1.849 1.477 1.029.812 2.088 1.595 3.132 2.392.536.414 1.073.827 1.61 1.226 1.596 1.197 3.221 2.393 4.862 3.575 1.58 1.137 3.161 2.259 4.742 3.367.537.369 1.058.724 1.595 1.078 1.044.724 2.103 1.448 3.147 2.142.626.413 1.252.827 1.879 1.241.954.62 1.894 1.255 2.848 1.861.671.428 1.327.841 1.983 1.255.91.576 1.805 1.137 2.714 1.699.686.428 1.372.827 2.058 1.24.865.532 1.745 1.049 2.61 1.566.701.413 1.402.812 2.088 1.211.85.487 1.7.975 2.55 1.462.701.399 1.402.783 2.102 1.167.835.458 1.671.916 2.506 1.359.701.369 1.401.738 2.102 1.108.821.428 1.641.856 2.461 1.27.701.354 1.387.694 2.088 1.048.805.399 1.61.798 2.415 1.182.686.325 1.387.65 2.073.975.791.369 1.581.738 2.371 1.093.686.31 1.372.605 2.043.901.776.339 1.566.679 2.342 1.004.671.281 1.342.561 2.013.842.775.31 1.536.62 2.296.916.656.266 1.327.517 1.984.768.76.28 1.521.561 2.266.827.641.236 1.298.458 1.939.679.745.266 1.491.502 2.237.739.626.207 1.252.413 1.879.605.745.237 1.476.443 2.207.665.611.177 1.223.354 1.819.532.731.206 1.446.384 2.177.576.448.118.91.251 1.357.354.134.03.269.059.418.089.611.147 1.208.28 1.819.399.641.147 1.268.28 1.909.413.596.118 1.178.222 1.774.325.612.118 1.238.222 1.85.325.581.089 1.148.162 1.714.251.597.089 1.208.177 1.79.236.567.059 1.118.119 1.67.163.582.059 1.163.118 1.73.148.537.044 1.074.059 1.611.088.566.03 1.118.059 1.67.059h1.551c.536 0 1.088 0 1.61-.029.507-.015.999-.059 1.491-.089.522-.029 1.044-.074 1.551-.118.477-.044.955-.118 1.432-.177.343-.045.716-.074 1.059-.133.149-.03.298-.059.447-.089.388-.059.761-.148 1.133-.221.522-.104 1.029-.207 1.536-.325h-.059Z"/><path fill="url(#b)" d="M356.232 195.07c53.61 38.712 87.893 87.969 73.756 115.456-14.122 27.487-66.777 13.972-120.387-24.74-53.61-38.711-87.879-87.969-73.757-115.441 14.122-27.486 66.763-13.972 120.373 24.74l.015-.015Z"/><path fill="url(#c)" d="M356.232 195.07c-53.61-38.712-106.251-52.212-120.373-24.74-14.122 27.487 20.132 76.73 73.757 115.441 53.61 38.712 106.265 52.227 120.387 24.74s-20.146-76.744-73.756-115.456l-.015.015Zm73.369 115.249c-4.862 9.438-14.316 14.238-28.095 14.238-23.428 0-57.681-14.637-91.622-39.14-56.07-40.484-87.029-88.796-73.622-114.895 4.787-9.32 14.509-14.238 28.109-14.238 23.428 0 57.682 14.637 91.607 39.14 56.071 40.484 87.029 88.811 73.623 114.895Z" opacity=".9" style="mix-blend-mode:overlay"/><path fill="#5238DF" d="M386.265 263.749c8.365 6.041 12.601 15.908 9.454 22.022-3.146 6.115-12.481 6.174-20.847.133-8.366-6.041-12.601-15.907-9.455-22.022 3.147-6.114 12.482-6.173 20.848-.133Zm-68.507-34.266c-3.146 6.115 1.089 15.981 9.454 22.022 8.366 6.041 17.701 5.982 20.848-.133 3.146-6.114-1.089-15.981-9.455-22.022-8.365-6.04-17.7-5.981-20.847.133Zm-47.644-34.413c-3.147 6.114 1.088 15.981 9.454 22.022 8.366 6.04 17.701 5.981 20.847-.133 3.147-6.115-1.088-15.981-9.454-22.022-8.366-6.041-17.701-5.982-20.847.133Z" opacity=".2" style="mix-blend-mode:multiply"/><defs><linearGradient id="a" x1="211.03" x2="427.064" y1="190.048" y2="332.617" gradientUnits="userSpaceOnUse"><stop stop-color="#BCDFE7"/><stop offset=".11" stop-color="#9CCAE5"/><stop offset=".23" stop-color="#83B9E4"/><stop offset=".33" stop-color="#74AFE4"/><stop offset=".41" stop-color="#6FACE4"/><stop offset=".65" stop-color="#71ADE4"/><stop offset=".76" stop-color="#78B2E4"/><stop offset=".84" stop-color="#85BAE4"/><stop offset=".91" stop-color="#97C6E5"/><stop offset=".97" stop-color="#AED6E6"/><stop offset="1" stop-color="#BCDFE7"/></linearGradient><linearGradient id="b" x1="228.82" x2="418.2" y1="168.558" y2="301.819" gradientUnits="userSpaceOnUse"><stop stop-color="#fff"/><stop offset=".09" stop-color="#F0F8F9"/><stop offset=".27" stop-color="#DAEDF1"/><stop offset=".46" stop-color="#C9E5EB"/><stop offset=".68" stop-color="#C0E0E8"/><stop offset=".96" stop-color="#BDDFE7"/></linearGradient><linearGradient id="c" x1="261.568" x2="397.657" y1="148.678" y2="327.032" gradientUnits="userSpaceOnUse"><stop stop-color="#fff"/><stop offset=".02" stop-color="#fff" stop-opacity=".97"/><stop offset=".5" stop-color="#fff" stop-opacity=".46"/><stop offset=".82" stop-color="#fff" stop-opacity=".13"/><stop offset=".97" stop-color="#fff" stop-opacity="0"/></linearGradient></defs></svg>