<svg xmlns="http://www.w3.org/2000/svg" width="1440" height="1315" fill="none"><path fill="url(#a)" d="m433.4 153.7 1.6-2.7.3-.4.3-.6c2.5-5 4-10.2 4.3-15.6l.1-1.8a40.4 40.4 0 0 0-2.3-14.8v-.2l-.2-.5-.7-1.7-.4-.9-.2-.4-.1-.3-.2-.3a42.5 42.5 0 0 0-3.4-5.8l-.2-.3-.2-.3-.4-.5v-.1l-.3-.3-.3-.4-.2-.3-.2-.2-.1-.1v-.1l-.4-.4-.2-.3-.3-.3-.1-.2-.3-.3-.2-.2-.3-.3v-.1l-.3-.2-.1-.2-.2-.1v-.1l-.2-.1-.2-.3-.2-.1-.2-.3-.3-.2-.1-.1-.2-.3-.2-.1-.4-.4-.3-.2-.1-.1-.3-.3-.5-.4-.3-.3-.3-.2-.4-.3-.2-.2-.3-.2h-.1l-.2-.2-2-1.5c-.2 0-.4-.2-.5-.3-.2 0-.3-.2-.5-.3l-.3-.1-.7-.5-.2-.1-1-.5-.5-.3a16.8 16.8 0 0 0-1.3-.6l-1-.5a41 41 0 0 0-16.8-3.7h-2.9l-1 .2a73.7 73.7 0 0 1-1.6.1h-.3l-3 .6c-.6 0-1.2.2-1.8.4l-1.3.3h-.1l-3 1h-.1l-1.7.7-1.4.6-1.5.8a62.3 62.3 0 0 0-4.4 2.6c-1 .6-1.9 1.3-2.7 2h-.1l-2.9 2.6c-2.7 2.8-2.9 3-4.4 5-2 2.7-3 4.7-3.6 5.7a38.3 38.3 0 0 0-2.5 6c-1 2.8-1.3 4.6-1.6 6.4a27 27 0 0 0-.5 6.2v.4c0 1.2 0 2.7.2 4l.3 2.8a47.9 47.9 0 0 0 3 10l.3.7v.1l.5 1 .2.2a40.8 40.8 0 0 0 2.7 4.6l.2.4.5.6.3.4.1.2.3.3.3.3.2.4a48 48 0 0 0 3.6 4h.2l.3.4.3.3.7.6 1 .9 1 .8h.1l.5.4 1.6 1.1 1.6 1a59 59 0 0 0 6.8 3.4l.7.2 2.1.8.8.2 1.9.5h.3l2.5.5 1 .2 3.2.3h6.4l3.2-.5h.3l3-.7a53.2 53.2 0 0 0 9.3-3.5l.4-.2a64.4 64.4 0 0 0 3.8-2.3 42.5 42.5 0 0 0 7-6l.5-.4 2.4-2.9.1-.2 1.8-2.5Z"/><defs><radialGradient id="a" cx="0" cy="0" r="1" gradientTransform="matrix(37.666 26.5705 -26.4862 37.5466 399.2 136)" gradientUnits="userSpaceOnUse"><stop offset=".7" stop-color="#DC3BEE"/><stop offset=".7" stop-color="#DC3FEE"/><stop offset=".8" stop-color="#DE4BEF"/><stop offset=".8" stop-color="#E260F1"/><stop offset=".9" stop-color="#E77DF3"/><stop offset=".9" stop-color="#EEA3F7"/><stop offset="1" stop-color="#F6D0FB"/><stop offset="1" stop-color="#fff"/></radialGradient></defs></svg>