<svg xmlns="http://www.w3.org/2000/svg" width="1440" height="1315" fill="none"><path fill="url(#a)" d="M1193.87 456.067c-.03-.089-.06-.177-.08-.251-.27-.768-.51-1.698-.62-2.777-.06-.531-.09-1.225 0-2.082.02-.207.05-.443.09-.665 0-.059.02-.118.03-.162v-.059s.03-.118.05-.192c.06-.325.13-.621.21-.916.03-.089.06-.192.07-.281v-.029s.06-.133.08-.192c.17-.532.37-1.019.59-1.447.05-.089.09-.163.12-.251.02-.03.03-.074.06-.104.02-.029.03-.059.06-.103l.03-.045.03-.044s.03-.059.05-.088c.31-.532.58-.931.82-1.241v-.03l.07-.088c.1-.133.22-.266.34-.414.06-.074.14-.162.2-.221.16-.178.38-.414.56-.591.09-.089.17-.163.26-.236 0 0 .1-.104.15-.148.06-.059.13-.118.19-.162.19-.163.4-.325.63-.488.18-.133.35-.251.55-.384.95-.62 2-1.093 3.1-1.403.57-.177 1.25-.31 2-.384h.09c.21-.029.4-.044.62-.059h1.11c.19 0 .33.015.5.044.12 0 .23.03.35.03h.01c.15.015.29.044.43.059h.02c.13.029.25.044.39.074.09.015.18.044.27.059.03 0 .06 0 .1.015.88.206 1.55.457 1.97.649.04.015.07.03.09.045.19.088.37.162.5.236l.15.074h.03c.24.133.53.295.88.517 1.7 1.063 3.05 2.511 3.97 4.253.03.045.06.104.07.148.14.295.27.576.38.812v.045c.1.192.18.413.25.62l.05.103.03.118c.03.074.04.148.07.222.06.177.1.354.15.517.03.148.07.28.1.428v.044s.03.104.05.148c.01.074.03.148.04.222v.029c.36 1.92.2 3.855-.44 5.686-.02.045-.03.089-.05.148v.059s-.07.133-.1.192c-.57 1.462-1.39 2.718-2.36 3.722-1.64 1.772-3.61 2.85-5.59 3.279h-.06c-.09.044-.19.059-.28.088-.03 0-.08.015-.12.03-.06 0-.11.014-.15.029 0 0-.12.03-.18.03-.23.044-.37.059-.39.059-.19.029-.31.044-.54.059h-.13c-.09.015-.16.029-.27.029h-.21c-.16.03-.36.03-.52.03H1204.15c-.11 0-.22-.015-.33-.03h-.28c-.06 0-.12.001-.18-.014-.22-.03-.45-.059-.66-.104h-.01c-1.17-.206-2.06-.546-2.57-.768l-.09-.044c-.13-.059-.27-.118-.38-.177l-.12-.059c-.15-.074-.41-.207-.67-.369-.53-.296-1.02-.636-1.45-1.005-.08-.059-.14-.118-.2-.162-.04-.045-.1-.089-.14-.133-.97-.842-1.64-1.699-2.11-2.422-.04-.059-.07-.118-.1-.177v-.03c-.43-.665-.73-1.3-.97-1.905v-.03l-.02.015Z"/><defs><radialGradient id="a" cx="0" cy="0" r="1" gradientTransform="matrix(13.2272 0 0 13.1001 1205.36 452.847)" gradientUnits="userSpaceOnUse"><stop offset=".54" stop-color="#CE5FB1"/><stop offset=".61" stop-color="#CF63B3"/><stop offset=".68" stop-color="#D36FB9"/><stop offset=".76" stop-color="#D984C3"/><stop offset=".83" stop-color="#E2A1D1"/><stop offset=".91" stop-color="#EDC7E3"/><stop offset=".98" stop-color="#FBF4FA"/><stop offset="1" stop-color="#fff"/></radialGradient></defs></svg>